<svg width="1280" height="720" viewBox="0 0 1280 720" fill="none" xmlns="http://www.w3.org/2000/svg">
<rect x="80" y="80" width="1120" height="280" rx="48" stroke="#23252F" stroke-width="3"/>
<path d="M971 536.039L970.766 534.557L969.5 534.757V536.039H971ZM1044.61 510.568L1045.45 511.811L1049.55 509.041L1044.6 509.068L1044.61 510.568ZM971 503.675H969.5V504.906L970.707 505.146L971 503.675ZM81.5 458C81.5 432.319 102.319 411.5 128 411.5V408.5C100.662 408.5 78.5 430.662 78.5 458H81.5ZM81.5 592V458H78.5V592H81.5ZM128 638.5C102.319 638.5 81.5 617.681 81.5 592H78.5C78.5 619.338 100.662 641.5 128 641.5V638.5ZM923 638.5H128V641.5H923V638.5ZM969.5 592C969.5 617.681 948.681 638.5 923 638.5V641.5C950.338 641.5 972.5 619.338 972.5 592H969.5ZM969.5 536.039V592H972.5V536.039H969.5ZM1044.61 510.568C1043.77 509.325 1043.77 509.325 1043.77 509.325C1043.77 509.325 1043.77 509.325 1043.77 509.325C1043.77 509.325 1043.77 509.326 1043.77 509.326C1043.77 509.328 1043.77 509.33 1043.76 509.334C1043.75 509.341 1043.73 509.353 1043.71 509.369C1043.66 509.401 1043.59 509.449 1043.49 509.513C1043.29 509.642 1042.99 509.834 1042.58 510.083C1041.78 510.58 1040.57 511.303 1038.97 512.197C1035.77 513.984 1031.01 516.451 1024.79 519.151C1012.35 524.55 994.067 530.877 970.766 534.557L971.234 537.52C994.82 533.796 1013.34 527.388 1025.99 521.903C1032.31 519.16 1037.16 516.648 1040.44 514.816C1042.08 513.9 1043.32 513.154 1044.16 512.634C1044.58 512.375 1044.9 512.171 1045.12 512.032C1045.22 511.962 1045.31 511.908 1045.36 511.871C1045.39 511.852 1045.41 511.838 1045.43 511.828C1045.43 511.823 1045.44 511.819 1045.45 511.816C1045.45 511.814 1045.45 511.813 1045.45 511.812C1045.45 511.812 1045.45 511.811 1045.45 511.811C1045.45 511.811 1045.45 511.811 1044.61 510.568ZM970.707 505.146C993.108 509.601 1017.75 512.215 1044.62 512.068L1044.6 509.068C1017.94 509.214 993.5 506.62 971.293 502.203L970.707 505.146ZM969.5 458V503.675H972.5V458H969.5ZM923 411.5C948.681 411.5 969.5 432.319 969.5 458H972.5C972.5 430.662 950.338 408.5 923 408.5V411.5ZM128 411.5H923V408.5H128V411.5Z" fill="#23252F"/>
<path d="M1037 548.549C1050.89 545.744 1082.34 532.783 1097.06 503.377" stroke="#23252F" stroke-width="3"/>
<path d="M1093.74 473.041C1101.71 442.926 1157.21 421.138 1151.36 487.213C1190.07 496.513 1250.87 523.66 1184.38 557.849" stroke="#23252F" stroke-width="3"/>
<path d="M1094.54 549.877C1093.87 564.664 1093.66 599.272 1098.17 619.407" stroke="#23252F" stroke-width="3"/>
<path d="M1172.41 571.578L1185.04 640H1085.54" stroke="#23252F" stroke-width="3"/>
<path d="M1055.62 573.35C1065 572.5 1073.5 570.5 1082 567" stroke="#23252F" stroke-width="3"/>
<path d="M1128.75 576.892C1130.01 588.259 1132.96 613.605 1134.74 624.057" stroke="#23252F" stroke-width="3"/>
<circle cx="1115.18" cy="465.02" r="1.5" stroke="#23252F" stroke-width="3"/>
<circle cx="1127.59" cy="465.02" r="1.5" stroke="#23252F" stroke-width="3"/>
</svg>
