<svg width="512" height="720" viewBox="0 0 512 720" fill="none" xmlns="http://www.w3.org/2000/svg">
<g clip-path="url(#clip0_118_760)">
<rect width="512" height="720" fill="#F8F8F6"/>
<path d="M256 510C338.843 510 406 442.843 406 360C406 277.157 338.843 210 256 210C173.157 210 106 277.157 106 360C106 442.843 173.157 510 256 510Z" fill="#F8F8F6"/>
<mask id="mask0_118_760" style="mask-type:luminance" maskUnits="userSpaceOnUse" x="106" y="210" width="300" height="300">
<path d="M256 510C338.843 510 406 442.843 406 360C406 277.157 338.843 210 256 210C173.157 210 106 277.157 106 360C106 442.843 173.157 510 256 510Z" fill="white"/>
</mask>
<g mask="url(#mask0_118_760)">
<path fill-rule="evenodd" clip-rule="evenodd" d="M422.477 294L609.538 402L380.707 534.115L193.646 426.115L422.477 294Z" fill="#F8F8F6" stroke="#23252F" stroke-width="3" stroke-miterlimit="1.16279" stroke-linecap="square"/>
<path fill-rule="evenodd" clip-rule="evenodd" d="M396.296 542.884V638.653L193.646 521.653V425.884L396.296 542.884Z" fill="#F8F8F6" stroke="#23252F" stroke-width="3" stroke-miterlimit="1.16279" stroke-linecap="square"/>
<rect x="317" y="348" width="7" height="10" fill="#F8F8F6"/>
<rect x="226" y="403.062" width="7" height="10" transform="rotate(-60 226 403.062)" fill="#F8F8F6"/>
<path fill-rule="evenodd" clip-rule="evenodd" d="M235.566 413.913C246.844 407.401 265.314 407.493 276.784 414.115C288.256 420.738 288.412 431.401 277.135 437.913C265.857 444.424 247.387 444.334 235.915 437.712C224.445 431.088 224.287 420.424 235.566 413.913Z" fill="#F8F8F6" stroke="#23252F" stroke-width="3" stroke-miterlimit="1.16279" stroke-linecap="square"/>
<path fill-rule="evenodd" clip-rule="evenodd" d="M248.84 426.43V384.822H262.778V426.43H262.676C262.451 427.275 261.764 428.095 260.621 428.754C257.849 430.354 253.439 430.407 250.778 428.869C249.611 428.196 248.974 427.327 248.858 426.43H248.84Z" fill="#F8F8F6" stroke="#23252F" stroke-width="3" stroke-miterlimit="1.16279" stroke-linecap="square" stroke-linejoin="round"/>
<path fill-rule="evenodd" clip-rule="evenodd" d="M168.671 291.884C165.569 276.884 173.977 261.239 193.895 249.74C228.365 229.84 284.335 229.84 318.803 249.74C338.722 261.239 347.131 276.884 344.029 291.884C341.762 280.927 333.355 270.314 318.803 261.913C284.335 242.012 228.365 242.012 193.895 261.913C179.345 270.314 170.936 280.927 168.671 291.884Z" fill="#F8F8F6" stroke="#23252F" stroke-width="3" stroke-miterlimit="1.16279" stroke-linecap="square"/>
<path fill-rule="evenodd" clip-rule="evenodd" d="M255.8 197.538V413.538L193.646 377.653V161.653L255.8 197.538Z" fill="#F8F8F6" stroke="#23252F" stroke-width="3" stroke-miterlimit="1.16279" stroke-linecap="square"/>
<path fill-rule="evenodd" clip-rule="evenodd" d="M255.6 197.653V413.653L317.955 377.653V161.653L255.6 197.653Z" fill="#F8F8F6" stroke="#23252F" stroke-width="3" stroke-miterlimit="1.16279" stroke-linecap="square"/>
<path fill-rule="evenodd" clip-rule="evenodd" d="M284.609 346.288V356.171L266.591 339.793L284.609 324.748V334.115C297.109 331.687 308.852 327.601 318.803 321.856C333.355 313.454 341.762 302.842 344.029 291.884C347.131 306.884 338.722 322.529 318.803 334.028C308.852 339.773 297.109 343.861 284.609 346.288ZM235.415 347.51C220.196 345.379 205.771 340.885 193.895 334.028C173.977 322.529 165.569 306.884 168.671 291.884C170.936 302.842 179.345 313.454 193.895 321.856C205.771 328.711 220.196 333.205 235.415 335.338V347.51Z" fill="#F8F8F6" stroke="#23252F" stroke-width="3" stroke-miterlimit="3.0814" stroke-linecap="square"/>
</g>
<path d="M256 510C338.843 510 406 442.843 406 360C406 277.157 338.843 210 256 210C173.157 210 106 277.157 106 360C106 442.843 173.157 510 256 510Z" stroke="#23252F" stroke-width="3" stroke-miterlimit="1.5" stroke-linecap="square"/>
</g>
<defs>
<clipPath id="clip0_118_760">
<rect width="512" height="720" fill="white"/>
</clipPath>
</defs>
</svg>
