<svg width="512" height="720" viewBox="0 0 512 720" fill="none" xmlns="http://www.w3.org/2000/svg">
<g clip-path="url(#clip0_118_703)">
<rect width="512" height="720" fill="#F8F8F6"/>
<path d="M256 510C338.843 510 406 442.843 406 360C406 277.157 338.843 210 256 210C173.157 210 106 277.157 106 360C106 442.843 173.157 510 256 510Z" fill="#F8F8F6"/>
<mask id="mask0_118_703" style="mask-type:luminance" maskUnits="userSpaceOnUse" x="106" y="210" width="300" height="300">
<path d="M256 510C338.843 510 406 442.843 406 360C406 277.157 338.843 210 256 210C173.157 210 106 277.157 106 360C106 442.843 173.157 510 256 510Z" fill="white"/>
</mask>
<g mask="url(#mask0_118_703)">
<path fill-rule="evenodd" clip-rule="evenodd" d="M401.692 414V486L173.062 354V282L401.692 414Z" fill="#F8F8F6" stroke="#23252F" stroke-width="3" stroke-miterlimit="1.5" stroke-linecap="square"/>
<path fill-rule="evenodd" clip-rule="evenodd" d="M349.731 180L578.362 312L401.692 414L173.062 282L349.731 180Z" fill="#F8F8F6" stroke="#23252F" stroke-width="3" stroke-miterlimit="1.5" stroke-linecap="square"/>
<path fill-rule="evenodd" clip-rule="evenodd" d="M256.2 342C267.672 348.623 276.985 364.754 276.985 378C276.985 391.247 267.672 396.623 256.2 390C244.729 383.378 235.416 367.247 235.416 354C235.416 340.754 244.729 335.378 256.2 342Z" fill="#F8F8F6" stroke="#23252F" stroke-width="3" stroke-miterlimit="1.5" stroke-linecap="square"/>
<path fill-rule="evenodd" clip-rule="evenodd" d="M344.534 399C353.138 403.967 360.122 416.066 360.122 426C360.122 435.935 353.138 439.967 344.534 435C335.93 430.034 328.946 417.935 328.946 408C328.946 398.066 335.93 394.034 344.534 399Z" fill="#F8F8F6" stroke="#23252F" stroke-width="3" stroke-miterlimit="1.5" stroke-linecap="square"/>
</g>
<path d="M256 510C338.843 510 406 442.843 406 360C406 277.157 338.843 210 256 210C173.157 210 106 277.157 106 360C106 442.843 173.157 510 256 510Z" stroke="#23252F" stroke-width="3" stroke-miterlimit="1.5" stroke-linecap="square"/>
<path fill-rule="evenodd" clip-rule="evenodd" d="M157.472 456.935L136.688 468.935L141.884 474L162.668 462L157.472 456.935Z" fill="#F8F8F6"/>
<path fill-rule="evenodd" clip-rule="evenodd" d="M245.807 374.682L225.023 386.682L230.219 391.748L251.003 379.748L245.807 374.682Z" fill="#F8F8F6"/>
<path fill-rule="evenodd" clip-rule="evenodd" d="M187.756 439.451L63.0477 511.451L33.6597 460.55L158.368 388.55C162.13 386.378 167.326 386.688 173.062 390C184.533 396.623 193.846 412.754 193.846 426C193.846 432.623 191.518 437.279 187.756 439.451Z" fill="#F8F8F6" stroke="#23252F" stroke-width="3" stroke-miterlimit="1.5" stroke-linecap="square"/>
<path fill-rule="evenodd" clip-rule="evenodd" d="M48.3533 462C59.8253 468.623 69.1388 484.754 69.1388 498C69.1388 511.247 59.8253 516.623 48.3533 510C36.8828 503.378 27.5693 487.247 27.5693 474C27.5693 460.754 36.8828 455.378 48.3533 462Z" fill="#F8F8F6" stroke="#23252F" stroke-width="3" stroke-miterlimit="1.5" stroke-linecap="square"/>
<path d="M193.846 402L262.743 362.223" stroke="#23252F" stroke-width="3" stroke-miterlimit="1.5" stroke-linecap="square"/>
</g>
<defs>
<clipPath id="clip0_118_703">
<rect width="512" height="720" fill="white"/>
</clipPath>
</defs>
</svg>
