<svg width="512" height="720" viewBox="0 0 512 720" fill="none" xmlns="http://www.w3.org/2000/svg">
<g clip-path="url(#clip0_118_685)">
<rect width="512" height="720" fill="#F8F8F6"/>
<mask id="mask0_118_685" style="mask-type:luminance" maskUnits="userSpaceOnUse" x="106" y="210" width="300" height="300">
<path d="M256 510C338.843 510 406 442.843 406 360C406 277.157 338.843 210 256 210C173.157 210 106 277.157 106 360C106 442.843 173.157 510 256 510Z" fill="white"/>
</mask>
<g mask="url(#mask0_118_685)">
<path fill-rule="evenodd" clip-rule="evenodd" d="M235.415 330V546L152.276 498V282L235.415 330Z" fill="#F8F8F6" stroke="#23252F" stroke-width="3" stroke-miterlimit="1.5" stroke-linecap="square"/>
<path fill-rule="evenodd" clip-rule="evenodd" d="M297.769 510L235.416 546V330L297.769 294V510Z" fill="#F8F8F6" stroke="#23252F" stroke-width="3" stroke-miterlimit="1.5" stroke-linecap="square"/>
<path fill-rule="evenodd" clip-rule="evenodd" d="M214.63 246L297.769 294L235.415 330L152.276 282L214.63 246Z" fill="#F8F8F6" stroke="#23252F" stroke-width="3" stroke-miterlimit="1.16279" stroke-linecap="square"/>
<path fill-rule="evenodd" clip-rule="evenodd" d="M281.698 391.951C279.892 400.605 273.839 409.701 266.657 413.847C258.071 418.804 251.096 414.822 251.069 404.962C251.069 404.943 251.069 404.923 251.069 404.904V356.98C251.069 347.077 258.055 335.005 266.657 330.037C275.261 325.071 282.247 329.077 282.247 338.98L282.181 372.123" fill="#F8F8F6"/>
<path d="M281.698 391.951C279.892 400.605 273.839 409.701 266.657 413.847C258.071 418.804 251.096 414.822 251.069 404.962C251.069 404.943 251.069 404.923 251.069 404.904V356.98C251.069 347.077 258.055 335.005 266.657 330.037C275.261 325.071 282.247 329.077 282.247 338.98L282.181 372.123" stroke="#23252F" stroke-width="3" stroke-miterlimit="1.5" stroke-linecap="square"/>
<path d="M260.285 368.264L285.7 383.033" stroke="#23252F" stroke-width="3" stroke-miterlimit="1.16279" stroke-linecap="square" stroke-linejoin="round"/>
<path fill-rule="evenodd" clip-rule="evenodd" d="M295.849 437.836L304.396 443.103L305.422 454.419L292.573 447L295.849 437.836Z" fill="#F8F8F6"/>
<path fill-rule="evenodd" clip-rule="evenodd" d="M297.713 439.259C294.569 437.801 292.588 434.219 292.573 428.972C292.573 428.954 292.573 428.934 292.573 428.915V380.99C292.573 371.088 299.558 359.015 308.161 354.048C312.953 351.282 317.242 351.299 320.102 353.567L375.646 385.542L375.629 385.662C378.779 387.128 380.759 390.728 380.759 396V443.925C380.759 443.943 380.759 443.963 380.759 443.982C380.732 453.873 373.757 465.909 365.171 470.867C360.631 473.489 356.54 473.61 353.69 471.686L353.672 471.696L297.703 439.287L297.713 439.259Z" fill="#F8F8F6" stroke="#23252F" stroke-width="3" stroke-miterlimit="1.5" stroke-linecap="square"/>
<path fill-rule="evenodd" clip-rule="evenodd" d="M464.045 462V558L318.554 474V378L464.045 462Z" fill="#F8F8F6" stroke="#23252F" stroke-width="3" stroke-miterlimit="1.5" stroke-linecap="square"/>
<path fill-rule="evenodd" clip-rule="evenodd" d="M380.908 342L526.4 426L464.045 462L318.554 378L380.908 342Z" fill="#F8F8F6" stroke="#23252F" stroke-width="3" stroke-miterlimit="1.16279" stroke-linecap="square"/>
</g>
<path d="M256 510C338.843 510 406 442.843 406 360C406 277.157 338.843 210 256 210C173.157 210 106 277.157 106 360C106 442.843 173.157 510 256 510Z" stroke="#23252F" stroke-width="3" stroke-miterlimit="1.5" stroke-linecap="square"/>
</g>
<defs>
<clipPath id="clip0_118_685">
<rect width="512" height="720" fill="white"/>
</clipPath>
</defs>
</svg>
