<svg width="1280" height="720" viewBox="0 0 1280 720" fill="none" xmlns="http://www.w3.org/2000/svg">
<rect x="80" y="80" width="1120" height="280" rx="48" stroke="#23252F" stroke-width="3"/>
<path d="M128 410C101.49 410 80 431.49 80 458V592C80 618.51 101.49 640 128 640H923C949.51 640 971 618.51 971 592V536.039C1017.89 528.634 1044.61 510.568 1044.61 510.568C1017.84 510.714 993.304 508.11 971 503.675V458C971 431.49 949.51 410 923 410H128Z" stroke="#23252F" stroke-width="3" stroke-miterlimit="10.4714"/>
<path d="M1037 548.549C1050.89 545.744 1082.34 532.783 1097.06 503.377M1184.38 557.849C1250.87 523.66 1190.07 496.513 1151.36 487.213C1157.21 421.138 1101.71 442.926 1093.74 473.041L1102.82 474.591M1094.54 549.878C1093.87 564.665 1093.66 599.272 1098.17 619.407M1172.41 571.578L1185.04 640H1085.54M1055.62 573.349C1063.37 572.98 1081.86 569.851 1093.74 560.285M1128.75 576.892C1130.01 588.259 1132.96 613.605 1134.74 624.057M1116.68 465.02C1116.68 465.848 1116.01 466.52 1115.18 466.52C1114.35 466.52 1113.68 465.848 1113.68 465.02C1113.68 464.191 1114.35 463.52 1115.18 463.52C1116.01 463.52 1116.68 464.191 1116.68 465.02ZM1129.09 465.02C1129.09 465.848 1128.42 466.52 1127.59 466.52C1126.76 466.52 1126.09 465.848 1126.09 465.02C1126.09 464.191 1126.76 463.52 1127.59 463.52C1128.42 463.52 1129.09 464.191 1129.09 465.02Z" stroke="#23252F" stroke-width="3"/>
</svg>
