<svg width="282" height="48" viewBox="0 0 282 48" fill="none" xmlns="http://www.w3.org/2000/svg"><title>Percona</title><path d="M42.714 29.146c5.514-3.604 7.318-10.957 3.981-16.736a12.45 12.45 0 0 0-7.608-5.84 12.438 12.438 0 0 0-8.88.915L26.447.976l-7.805 13.518L.602 45.739h51.691l-9.58-16.592ZM38.202 9.881a9.036 9.036 0 0 1 5.525 4.236c2.394 4.143 1.15 9.397-2.733 12.05l-9.07-15.706a9.04 9.04 0 0 1 6.278-.58ZM26.447 7.837l19.902 34.47H34.704L20.622 17.925l5.824-10.087.001-.001ZM6.546 42.307 18.64 21.362l12.095 20.945H6.546Z" fill="url(#a)"/><path d="M81.802 30.375h-5.01v8.964h-6.594V9.449h12.253c7.153 0 11.48 4.223 11.48 10.333v.081c0 6.919-5.395 10.504-12.121 10.504l-.008.008Zm5.437-10.462c0-2.947-2.054-4.527-5.355-4.527h-5.1v9.135h5.224c3.3 0 5.223-1.966 5.223-4.527v-.081h.008ZM97.611 39.341V9.448h22.617v5.854h-16.062v6.067h14.132v5.854h-14.132v6.28h16.276v5.854h-22.83v-.016ZM143.802 39.341l-6.422-9.563h-5.181v9.563h-6.595V9.448h13.706c7.071 0 11.308 3.717 11.308 9.866v.081c0 4.824-2.61 7.86-6.423 9.269l7.325 10.675h-7.72l.002.002Zm.132-19.683c0-2.815-1.972-4.274-5.181-4.274h-6.552v8.582h6.684c3.211 0 5.049-1.711 5.049-4.224v-.084ZM169.523 40.14c-8.939 0-15.58-6.879-15.58-15.582v-.084c0-8.612 6.507-15.664 15.846-15.664 5.727 0 9.162 1.9 11.983 4.67l-4.252 4.887c-2.347-2.124-4.728-3.417-7.773-3.417-5.118 0-8.814 4.24-8.814 9.434v.084c0 5.195 3.604 9.516 8.814 9.516 3.47 0 5.6-1.385 7.989-3.551l4.253 4.282c-3.13 3.335-6.6 5.41-12.458 5.41l-.008.015ZM199.63 40.14c-9.378 0-16.104-6.968-16.104-15.582v-.084c0-8.612 6.816-15.664 16.186-15.664 9.371 0 16.105 6.968 16.105 15.582v.084c0 8.612-6.816 15.664-16.187 15.664Zm9.205-15.664c0-5.194-3.821-9.515-9.205-9.515s-9.112 4.24-9.112 9.434v.084c0 5.194 3.821 9.516 9.205 9.516s9.112-4.24 9.112-9.435v-.084ZM252.128 39.365 266.883 8.81l14.755 30.557h-7.399l-7.356-15.206-7.33 15.206h-7.425v-.002ZM249.397 9.459v30.684l-22.501-18.17v17.342h-7V8.81l22.501 18.098V9.458h7Z" fill="#2C323E"/><defs><linearGradient id="a" x1="6.809" y1="42.128" x2="47.095" y2="20.036" gradientUnits="userSpaceOnUse"><stop stop-color="#FC3519"/><stop offset="1" stop-color="#F0D136"/></linearGradient></defs></svg>