<svg width="512" height="720" viewBox="0 0 512 720" fill="none" xmlns="http://www.w3.org/2000/svg">
<g clip-path="url(#clip0_118_720)">
<rect width="512" height="720" fill="#F8F8F6"/>
<path d="M256 510C338.843 510 406 442.843 406 360C406 277.157 338.843 210 256 210C173.157 210 106 277.157 106 360C106 442.843 173.157 510 256 510Z" fill="#F8F8F6" stroke="#23252F" stroke-width="3" stroke-miterlimit="1.5" stroke-linecap="square"/>
<path fill-rule="evenodd" clip-rule="evenodd" d="M235.415 432.429C246.832 425.838 265.369 425.838 276.784 432.429C288.2 439.02 288.2 449.723 276.784 456.314C265.369 462.905 246.832 462.905 235.415 456.314C223.999 449.723 223.999 439.02 235.415 432.429Z" fill="#F8F8F6" stroke="#23252F" stroke-width="3" stroke-miterlimit="1.16279" stroke-linecap="square"/>
<path fill-rule="evenodd" clip-rule="evenodd" d="M292.693 429.021C292.71 434.442 289.14 439.867 281.982 444C267.697 452.247 244.503 452.247 230.22 444C223.06 439.867 219.49 434.442 219.507 429.021V345.021H292.695L292.693 429.021Z" fill="#F8F8F6" stroke="#23252F" stroke-width="3" stroke-miterlimit="1.16279" stroke-linecap="square"/>
<path fill-rule="evenodd" clip-rule="evenodd" d="M229.891 405.355C244.027 395.457 267.097 394.114 281.377 402.36C295.657 410.604 295.775 425.334 281.639 435.231C267.503 445.129 244.433 446.472 230.153 438.226C215.873 429.982 215.755 415.252 229.891 405.355Z" fill="#F8F8F6" stroke="#23252F" stroke-width="3" stroke-miterlimit="1.16279" stroke-linecap="square"/>
<path fill-rule="evenodd" clip-rule="evenodd" d="M229.891 392.156C244.027 382.257 267.097 380.915 281.377 389.16C295.657 397.404 295.775 412.134 281.639 422.033C267.503 431.93 244.433 433.272 230.153 425.028C215.873 416.783 215.755 402.053 229.891 392.156Z" fill="#F8F8F6" stroke="#23252F" stroke-width="3" stroke-miterlimit="1.16279" stroke-linecap="square"/>
<path fill-rule="evenodd" clip-rule="evenodd" d="M229.891 378.955C244.027 369.057 267.097 367.716 281.377 375.96C295.657 384.205 295.775 398.934 281.639 408.832C267.503 418.731 244.433 420.072 230.153 411.828C215.873 403.582 215.755 388.854 229.891 378.955Z" fill="#F8F8F6" stroke="#23252F" stroke-width="3" stroke-miterlimit="1.16279" stroke-linecap="square"/>
<path fill-rule="evenodd" clip-rule="evenodd" d="M229.891 365.756C244.027 355.859 267.097 354.516 281.377 362.76C295.657 371.006 295.775 385.736 281.639 395.633C267.503 405.531 244.433 406.874 230.153 398.628C215.873 390.384 215.755 375.654 229.891 365.756Z" fill="#F8F8F6" stroke="#23252F" stroke-width="3" stroke-miterlimit="1.16279" stroke-linecap="square"/>
<path fill-rule="evenodd" clip-rule="evenodd" d="M229.891 352.557C244.027 342.658 267.097 341.316 281.377 349.561C295.657 357.805 295.775 372.535 281.639 382.432C267.503 392.331 244.433 393.673 230.153 385.428C215.873 377.184 215.755 362.454 229.891 352.557Z" fill="#F8F8F6" stroke="#23252F" stroke-width="3" stroke-miterlimit="1.16279" stroke-linecap="square"/>
<path fill-rule="evenodd" clip-rule="evenodd" d="M229.891 339.357C244.027 329.458 267.097 328.116 281.377 336.361C295.657 344.605 295.775 359.335 281.639 369.234C267.503 379.131 244.433 380.473 230.153 372.229C215.873 363.984 215.755 349.254 229.891 339.357Z" fill="#F8F8F6" stroke="#23252F" stroke-width="3" stroke-miterlimit="1.16279" stroke-linecap="square"/>
<path fill-rule="evenodd" clip-rule="evenodd" d="M293.164 348.571C291.122 352.504 287.95 356.784 282.118 360.151C267.8 368.418 244.517 368.398 230.156 360.108C224.428 356.8 220.654 350.656 220.654 350.656L198.98 312.151L313.157 312.115L293.164 348.571Z" fill="#F8F8F6" stroke="#23252F" stroke-width="3" stroke-miterlimit="1.16279" stroke-linecap="square"/>
<path fill-rule="evenodd" clip-rule="evenodd" d="M292.165 276.351V288.351L214.531 333.173L209.335 324.173L292.165 276.351Z" fill="#F8F8F6" stroke="#23252F" stroke-width="3" stroke-miterlimit="1.16279" stroke-linecap="square"/>
<path fill-rule="evenodd" clip-rule="evenodd" d="M209.643 323.995C191.556 310.653 193.11 291.31 214.332 279.057C235.552 266.805 269.056 265.908 292.165 276.351L209.643 323.995ZM302.532 282.366C320.434 295.702 318.822 314.961 297.669 327.172C276.516 339.385 243.16 340.317 220.06 329.98L302.532 282.366Z" fill="#F8F8F6" stroke="#23252F" stroke-width="3" stroke-miterlimit="1.16279" stroke-linecap="square"/>
</g>
<defs>
<clipPath id="clip0_118_720">
<rect width="512" height="720" fill="white"/>
</clipPath>
</defs>
</svg>
