<svg width="498" height="464" viewBox="0 0 498 464" fill="none" xmlns="http://www.w3.org/2000/svg">
<g clip-path="url(#clip0_392_65)">
<path fill-rule="evenodd" clip-rule="evenodd" d="M92.4292 157.707C91.1622 151.403 91.7912 144.779 96.1772 140.086C98.3052 137.809 101.82 137.522 103.848 135.409C104.579 134.647 105.18 133.151 105.162 132.076C105.157 131.75 104.788 130.533 105.123 130.339C106.524 129.527 109.528 131.003 110.843 131.553C111.3 131.743 112.445 132.393 112.975 132.182C113.708 131.89 113.338 130.141 113.221 129.685C112.602 127.246 110.429 124.978 111.383 122.341C112.268 119.894 115.908 121.564 117.747 120.701C121.049 119.15 119.605 112.413 119.51 109.94C119.11 106.117 118.278 102.243 118.242 98.6759C118.099 84.3109 124.716 68.1559 137.282 60.3939C148.289 53.5939 163.888 49.9379 176.487 53.9199C182.158 55.7129 187.205 59.2469 191.541 63.2469C204.716 75.4009 217.018 97.2929 210.461 115.6C208.094 122.208 203.145 127.712 197.73 132.043C195.088 134.156 192.375 136.164 189.697 138.228C184.355 142.342 178.656 146.004 173.51 150.359C169.751 153.539 166.06 156.817 162.246 159.929C154.688 166.099 146.622 171.78 137.926 176.208C133.51 178.457 129.109 181.141 124.141 181.997C113.59 183.815 101.886 178.795 96.9122 169.234C96.8682 169.149 96.8212 169.053 96.7732 168.947C94.8662 165.742 93.2502 161.791 92.4292 157.707Z" fill="#242630"/>
<mask id="mask0_392_65" style="mask-type:luminance" maskUnits="userSpaceOnUse" x="91" y="52" width="122" height="131">
<path d="M92.4292 157.707C91.1622 151.403 91.7912 144.779 96.1772 140.086C98.3052 137.809 101.82 137.522 103.848 135.409C104.579 134.647 105.18 133.151 105.162 132.076C105.157 131.75 104.788 130.533 105.123 130.339C106.524 129.527 109.528 131.003 110.843 131.553C111.3 131.743 112.445 132.393 112.975 132.182C113.708 131.89 113.338 130.141 113.221 129.685C112.602 127.246 110.429 124.978 111.383 122.341C112.268 119.894 115.908 121.564 117.747 120.701C121.049 119.15 119.605 112.413 119.51 109.94C119.11 106.117 118.278 102.243 118.242 98.6759C118.099 84.3109 124.716 68.1559 137.282 60.3939C148.289 53.5939 163.888 49.9379 176.487 53.9199C182.158 55.7129 187.205 59.2469 191.541 63.2469C204.716 75.4009 217.018 97.2929 210.461 115.6C208.094 122.208 203.145 127.712 197.73 132.043C195.088 134.156 192.375 136.164 189.697 138.228C184.355 142.342 178.656 146.004 173.51 150.359C169.751 153.539 166.06 156.817 162.246 159.929C154.688 166.099 146.622 171.78 137.926 176.208C133.51 178.457 129.109 181.141 124.141 181.997C113.59 183.815 101.886 178.795 96.9122 169.234C96.8682 169.149 96.8212 169.053 96.7732 168.947C94.8662 165.742 93.2502 161.791 92.4292 157.707Z" fill="white"/>
</mask>
<g mask="url(#mask0_392_65)">
<path d="M181.742 61.4668C184.819 63.6758 188.06 65.8218 190.563 68.6968C203.409 83.4468 206.472 102.594 208.709 121.227" stroke="white" stroke-width="2" stroke-miterlimit="1.5" stroke-linecap="round" stroke-linejoin="round"/>
<path d="M188.646 74.5649C194.891 82.6539 200.196 92.1239 202.728 102.071C205.002 111 205.428 120.316 207.29 129.339" stroke="white" stroke-width="2" stroke-miterlimit="1.5" stroke-linecap="round" stroke-linejoin="round"/>
<path d="M188.633 81.7329C195.769 92.6619 200.789 105.281 203.577 118.025" stroke="white" stroke-width="2" stroke-miterlimit="1.5" stroke-linecap="round" stroke-linejoin="round"/>
<path d="M206.217 89.9849C208.146 95.8179 210.081 101.823 210.885 107.932C211.623 113.543 211.235 119.282 211.342 124.921" stroke="white" stroke-width="2" stroke-miterlimit="1.5" stroke-linecap="round" stroke-linejoin="round"/>
<path d="M175.039 67.8276C186.331 83.0986 194.527 100.207 200.548 118.21" stroke="white" stroke-width="2" stroke-miterlimit="1.5" stroke-linecap="round" stroke-linejoin="round"/>
<path d="M127.645 87.2646C131.603 93.9826 135.319 100.843 139.435 107.466C142.467 112.343 146.092 117.064 148.542 122.279" stroke="white" stroke-width="2" stroke-miterlimit="1.5" stroke-linecap="round" stroke-linejoin="round"/>
<path d="M129.32 81.8809C133.757 91.7889 138.8 101.591 144.691 110.725C147.356 114.858 150.443 118.672 152.84 122.979" stroke="white" stroke-width="2" stroke-miterlimit="1.5" stroke-linecap="round" stroke-linejoin="round"/>
<path d="M137.394 89.4917C143.738 100.472 151.001 110.89 157.94 121.498" stroke="white" stroke-width="2" stroke-miterlimit="1.5" stroke-linecap="round" stroke-linejoin="round"/>
<path d="M133.501 73.5586C138.834 83.0486 144.085 92.7686 150.168 101.807C152.94 105.927 156.413 109.638 158.835 113.988" stroke="white" stroke-width="2" stroke-miterlimit="1.5" stroke-linecap="round" stroke-linejoin="round"/>
<path d="M145.065 87.0679C147.649 91.5349 150.535 95.6769 153.409 99.9449" stroke="white" stroke-width="2" stroke-miterlimit="1.5" stroke-linecap="round" stroke-linejoin="round"/>
<path d="M123.96 105.307C124.113 110.844 126.794 119.765 122.461 124.391C121.149 125.791 118.929 125.016 117.294 124.88C116.291 124.797 115.137 124.648 114.78 125.833C114.034 128.309 117.097 130.696 118.159 132.656C118.898 134.02 119.572 135.432 117.864 136.472C116.807 137.116 115.199 136.779 114.073 136.518C111.322 135.879 107.485 134.304 105.157 136.879C102.236 140.111 106.722 142.969 107.15 145.976C107.387 147.643 105.456 149.647 104.557 150.935" stroke="white" stroke-width="2" stroke-miterlimit="1.5" stroke-linecap="round" stroke-linejoin="round"/>
<path d="M119.091 141.604C117.949 141.288 116.831 140.899 115.676 140.628C114.836 140.431 113.986 140.258 113.126 140.183C111.098 140.007 108.933 140.784 109.679 143.308C110.545 146.24 112.649 148.7 113.786 151.516C114.232 152.623 114.322 153.278 114.59 154.472" stroke="white" stroke-width="2" stroke-miterlimit="1.5" stroke-linecap="round" stroke-linejoin="round"/>
</g>
<path fill-rule="evenodd" clip-rule="evenodd" d="M92.4292 157.707C91.1622 151.403 91.7912 144.779 96.1772 140.086C98.3052 137.809 101.82 137.522 103.848 135.409C104.579 134.647 105.18 133.151 105.162 132.076C105.157 131.75 104.788 130.533 105.123 130.339C106.524 129.527 109.528 131.003 110.843 131.553C111.3 131.743 112.445 132.393 112.975 132.182C113.708 131.89 113.338 130.141 113.221 129.685C112.602 127.246 110.429 124.978 111.383 122.341C112.268 119.894 115.908 121.564 117.747 120.701C121.049 119.15 119.605 112.413 119.51 109.94C119.11 106.117 118.278 102.243 118.242 98.6759C118.099 84.3109 124.716 68.1559 137.282 60.3939C148.289 53.5939 163.888 49.9379 176.487 53.9199C182.158 55.7129 187.205 59.2469 191.541 63.2469C204.716 75.4009 217.018 97.2929 210.461 115.6C208.094 122.208 203.145 127.712 197.73 132.043C195.088 134.156 192.375 136.164 189.697 138.228C184.355 142.342 178.656 146.004 173.51 150.359C169.751 153.539 166.06 156.817 162.246 159.929C154.688 166.099 146.622 171.78 137.926 176.208C133.51 178.457 129.109 181.141 124.141 181.997C113.59 183.815 101.886 178.795 96.9122 169.234C96.8682 169.149 96.8212 169.053 96.7732 168.947C94.8662 165.742 93.2502 161.791 92.4292 157.707Z" stroke="#242630" stroke-width="2" stroke-miterlimit="1.5" stroke-linecap="round" stroke-linejoin="round"/>
<path fill-rule="evenodd" clip-rule="evenodd" d="M236.504 343.777C238.097 340.447 239.763 337.147 241.282 333.795C245.941 323.518 250.1 312.89 254.151 302.354C255.92 297.75 257.483 293.076 259.333 288.503C260.218 286.316 261.209 283.512 263.295 282.188C270.324 277.729 280.241 286.459 284.559 291.105C289.639 296.571 292.695 303.267 295.726 309.996C298.984 317.227 301.85 324.741 303.118 332.602C304.744 342.681 304.247 352.759 300.377 362.286C297.402 369.611 294.007 376.861 289.514 383.391C287.737 385.974 285.687 389.256 282.502 390.195C276.01 392.111 269.349 384.138 263.47 382.285C257.456 380.39 249.451 381.893 244.019 378.646C240.671 376.644 239.258 372.573 238.348 368.997C236.277 360.867 236.452 352.115 236.504 343.777Z" fill="#C1EDFC"/>
<mask id="mask1_392_65" style="mask-type:luminance" maskUnits="userSpaceOnUse" x="236" y="280" width="68" height="111">
<path d="M236.504 343.777C238.097 340.447 239.763 337.147 241.282 333.795C245.941 323.518 250.1 312.89 254.151 302.354C255.92 297.75 257.483 293.076 259.333 288.503C260.218 286.316 261.209 283.512 263.295 282.188C270.324 277.729 280.241 286.459 284.559 291.105C289.639 296.571 292.695 303.267 295.726 309.996C298.984 317.227 301.85 324.741 303.118 332.602C304.744 342.681 304.247 352.759 300.377 362.286C297.402 369.611 294.007 376.861 289.514 383.391C287.737 385.974 285.687 389.256 282.502 390.195C276.01 392.111 269.349 384.138 263.47 382.285C257.456 380.39 249.451 381.893 244.019 378.646C240.671 376.644 239.258 372.573 238.348 368.997C236.277 360.867 236.452 352.115 236.504 343.777Z" fill="white"/>
</mask>
<g mask="url(#mask1_392_65)">
<path d="M283.358 355.763C286.899 358.115 292.07 361.511 296.721 359.966C297.978 359.548 298.994 358.592 299.926 357.73C300.902 356.827 301.799 355.914 302.505 354.802C303.358 353.458 304.012 351.981 304.414 350.463C305.229 347.378 305.162 344.302 305.002 341.166" stroke="#242630" stroke-width="2" stroke-miterlimit="1.5" stroke-linecap="round" stroke-linejoin="round"/>
</g>
<path fill-rule="evenodd" clip-rule="evenodd" d="M236.504 343.777C238.097 340.447 239.763 337.147 241.282 333.795C245.941 323.518 250.1 312.89 254.151 302.354C255.92 297.75 257.483 293.076 259.333 288.503C260.218 286.316 261.209 283.512 263.295 282.188C270.324 277.729 280.241 286.459 284.559 291.105C289.639 296.571 292.695 303.267 295.726 309.996C298.984 317.227 301.85 324.741 303.118 332.602C304.744 342.681 304.247 352.759 300.377 362.286C297.402 369.611 294.007 376.861 289.514 383.391C287.737 385.974 285.687 389.256 282.502 390.195C276.01 392.111 269.349 384.138 263.47 382.285C257.456 380.39 249.451 381.893 244.019 378.646C240.671 376.644 239.258 372.573 238.348 368.997C236.277 360.867 236.452 352.115 236.504 343.777Z" stroke="#242630" stroke-width="2" stroke-miterlimit="1.5" stroke-linecap="round" stroke-linejoin="round"/>
<path fill-rule="evenodd" clip-rule="evenodd" d="M262.249 288.088C262.156 288.332 262.07 288.57 261.99 288.8C259.198 296.884 259.04 305.458 260.344 313.862C260.505 314.727 260.669 315.591 260.836 316.455C262.188 323.458 263.817 330.212 266.83 336.701C270.689 345.013 276.438 351.709 284.427 356.199C286.54 357.386 290.019 360.157 292.591 359.084C293.337 358.774 293.673 357.641 293.959 356.965C294.747 355.101 295.37 353.169 296.016 351.253C298.535 343.775 301.935 336.682 304.106 329.057C305.302 324.854 306.323 320.839 305.105 316.528C304.381 313.967 302.97 311.685 301.492 309.485C295.959 301.251 289.658 294.175 281.52 288.411C280.541 287.717 279.508 286.99 278.433 286.273C275.502 284.469 272.404 281.353 268.677 281.552C265.362 281.729 263.335 285.256 262.249 288.088Z" fill="white"/>
<mask id="mask2_392_65" style="mask-type:luminance" maskUnits="userSpaceOnUse" x="259" y="281" width="47" height="79">
<path d="M262.249 288.088C262.156 288.332 262.07 288.57 261.99 288.8C259.198 296.884 259.04 305.458 260.344 313.862C260.505 314.727 260.669 315.591 260.836 316.455C262.188 323.458 263.817 330.212 266.83 336.701C270.689 345.013 276.438 351.709 284.427 356.199C286.54 357.386 290.019 360.157 292.591 359.084C293.337 358.774 293.673 357.641 293.959 356.965C294.747 355.101 295.37 353.169 296.016 351.253C298.535 343.775 301.935 336.682 304.106 329.057C305.302 324.854 306.323 320.839 305.105 316.528C304.381 313.967 302.97 311.685 301.492 309.485C295.959 301.251 289.658 294.175 281.52 288.411C280.541 287.717 279.508 286.99 278.433 286.273C275.502 284.469 272.404 281.353 268.677 281.552C265.362 281.729 263.335 285.256 262.249 288.088Z" fill="white"/>
</mask>
<g mask="url(#mask2_392_65)">
<path d="M281.459 331.159C292.532 334.182 304.767 327.534 308.871 316.823C310.041 313.768 310.066 310.35 310.272 307.138" stroke="#242630" stroke-width="2" stroke-miterlimit="1.5" stroke-linecap="round" stroke-linejoin="round"/>
</g>
<path fill-rule="evenodd" clip-rule="evenodd" d="M262.249 288.088C262.156 288.332 262.07 288.57 261.99 288.8C259.198 296.884 259.04 305.458 260.344 313.862C260.505 314.727 260.669 315.591 260.836 316.455C262.188 323.458 263.817 330.212 266.83 336.701C270.689 345.013 276.438 351.709 284.427 356.199C286.54 357.386 290.019 360.157 292.591 359.084C293.337 358.774 293.673 357.641 293.959 356.965C294.747 355.101 295.37 353.169 296.016 351.253C298.535 343.775 301.935 336.682 304.106 329.057C305.302 324.854 306.323 320.839 305.105 316.528C304.381 313.967 302.97 311.685 301.492 309.485C295.959 301.251 289.658 294.175 281.52 288.411C280.541 287.717 279.508 286.99 278.433 286.273C275.502 284.469 272.404 281.353 268.677 281.552C265.362 281.729 263.335 285.256 262.249 288.088Z" stroke="#242630" stroke-width="2" stroke-miterlimit="1.5" stroke-linecap="round" stroke-linejoin="round"/>
<path fill-rule="evenodd" clip-rule="evenodd" d="M289.893 331.775C291.005 326.801 291.232 321.273 292.905 316.478C297.64 302.907 308.601 298.606 320.972 293.663C324.164 292.387 328.169 290.819 330.086 287.732C333.059 282.946 330.108 273.033 327.706 267.99C327.214 266.958 325.414 265.774 325.183 264.841C324.71 262.936 326.257 259.231 326.529 257.248C327.428 250.69 326.596 243.311 321.338 238.82C319.501 237.252 317.342 236.136 315.187 235.072C312.207 233.6 309.025 232.495 305.912 231.329C301.617 229.721 296.806 228.634 292.281 229.982C285.19 232.096 283.066 241.566 279.001 246.76C275.527 251.199 271.926 254.702 269.877 260.101C266.788 268.239 266.952 278.143 266.617 286.765C266.115 299.685 261.712 318.538 274.184 327.546C276.034 328.882 278.097 329.937 280.235 330.73C283.278 331.86 286.683 332.566 289.893 331.775Z" fill="#FFE38C"/>
<mask id="mask3_392_65" style="mask-type:luminance" maskUnits="userSpaceOnUse" x="265" y="229" width="67" height="104">
<path d="M289.893 331.775C291.005 326.801 291.232 321.273 292.905 316.478C297.64 302.907 308.601 298.606 320.972 293.663C324.164 292.387 328.169 290.819 330.086 287.732C333.059 282.946 330.108 273.033 327.706 267.99C327.214 266.958 325.414 265.774 325.183 264.841C324.71 262.936 326.257 259.231 326.529 257.248C327.428 250.69 326.596 243.311 321.338 238.82C319.501 237.252 317.342 236.136 315.187 235.072C312.207 233.6 309.025 232.495 305.912 231.329C301.617 229.721 296.806 228.634 292.281 229.982C285.19 232.096 283.066 241.566 279.001 246.76C275.527 251.199 271.926 254.702 269.877 260.101C266.788 268.239 266.952 278.143 266.617 286.765C266.115 299.685 261.712 318.538 274.184 327.546C276.034 328.882 278.097 329.937 280.235 330.73C283.278 331.86 286.683 332.566 289.893 331.775Z" fill="white"/>
</mask>
<g mask="url(#mask3_392_65)">
<path d="M321.906 282.348C322.321 279.473 322.513 276.614 321.631 273.814C321.357 272.942 320.895 272.246 320.303 271.559C319.04 270.097 312.276 262.379 318.749 262.771C319.388 262.809 320.015 262.914 320.628 263.098C321.543 263.373 322.435 263.797 323.261 264.272C324.537 265.006 325.825 265.828 326.978 266.749" stroke="#242630" stroke-width="2" stroke-miterlimit="1.5" stroke-linecap="round" stroke-linejoin="round"/>
<path d="M326.261 272.67C324.235 273.63 322.205 272.768 320.718 271.329" stroke="#242630" stroke-width="2" stroke-miterlimit="1.5" stroke-linecap="round" stroke-linejoin="round"/>
<path d="M318.629 255.087C314.761 252.677 310.437 252.657 306.067 253.616C302.745 254.345 299.257 254.971 295.853 255.131C294.366 255.201 291.786 254.918 290.536 255.813C286.958 258.376 289.349 262.116 292.297 263.83C298.519 267.448 304.255 267.672 309.507 262.518" stroke="#242630" stroke-width="2" stroke-miterlimit="1.5" stroke-linecap="round" stroke-linejoin="round"/>
<path d="M316.222 266.596C314.565 266.843 312.94 267.186 311.275 266.783C309.494 266.351 307.917 265.232 306.084 264.993" stroke="#242630" stroke-width="2" stroke-miterlimit="1.5" stroke-linecap="round" stroke-linejoin="round"/>
<path d="M292.399 254.589C291.055 251.247 294.397 249.545 297.107 248.352C303.636 245.477 310.252 242.913 317.211 241.225" stroke="#242630" stroke-width="2" stroke-miterlimit="1.5" stroke-linecap="round" stroke-linejoin="round"/>
<path d="M281.798 296.765C283.638 300.666 286.398 303.954 290.65 305.257" stroke="#242630" stroke-width="2" stroke-miterlimit="1.5" stroke-linecap="round" stroke-linejoin="round"/>
<path d="M292.439 280.402C283.901 283.705 276.824 290.006 275.863 299.454" stroke="#242630" stroke-width="2" stroke-miterlimit="1.5" stroke-linecap="round" stroke-linejoin="round"/>
<path d="M269.915 296.913C272.16 292.769 275.601 288.392 280.42 287.196" stroke="#242630" stroke-width="2" stroke-miterlimit="1.5" stroke-linecap="round" stroke-linejoin="round"/>
</g>
<path fill-rule="evenodd" clip-rule="evenodd" d="M289.893 331.775C291.005 326.801 291.232 321.273 292.905 316.478C297.64 302.907 308.601 298.606 320.972 293.663C324.164 292.387 328.169 290.819 330.086 287.732C333.059 282.946 330.108 273.033 327.706 267.99C327.214 266.958 325.414 265.774 325.183 264.841C324.71 262.936 326.257 259.231 326.529 257.248C327.428 250.69 326.596 243.311 321.338 238.82C319.501 237.252 317.342 236.136 315.187 235.072C312.207 233.6 309.025 232.495 305.912 231.329C301.617 229.721 296.806 228.634 292.281 229.982C285.19 232.096 283.066 241.566 279.001 246.76C275.527 251.199 271.926 254.702 269.877 260.101C266.788 268.239 266.952 278.143 266.617 286.765C266.115 299.685 261.712 318.538 274.184 327.546C276.034 328.882 278.097 329.937 280.235 330.73C283.278 331.86 286.683 332.566 289.893 331.775Z" stroke="#242630" stroke-width="2" stroke-miterlimit="1.5" stroke-linecap="round" stroke-linejoin="round"/>
<path fill-rule="evenodd" clip-rule="evenodd" d="M151.643 186.348C159.141 205.428 168.316 223.559 176.756 242.196C180.06 249.493 182.854 257.005 186.256 264.27C187.65 267.248 188.811 270.882 190.953 273.479C192.543 275.408 195.579 275.757 197.879 276.181C205.902 277.659 213.523 275.431 220.603 271.553C222.81 270.344 224.927 268.957 227.094 267.676C227.736 267.296 228.918 266.904 228.869 266.003C228.61 261.206 222.735 257.995 219.488 255.542C214.609 251.857 210.542 247.27 205.925 243.29C186.653 226.682 171.133 206.108 154.333 187.113C153.963 186.694 151.643 186.348 151.643 186.348Z" fill="#C1EDFC" stroke="#242630" stroke-width="2" stroke-miterlimit="1.5" stroke-linecap="round" stroke-linejoin="round"/>
<path fill-rule="evenodd" clip-rule="evenodd" d="M93.418 161.504C96.735 158.773 99.894 155.855 102.861 152.743C104.997 150.503 106.469 147.868 109.695 147.418C121.544 145.765 126.406 157.818 132.479 166.028C136.396 171.324 141.07 175.923 145.329 180.924C150.171 186.608 154.929 193.118 159.176 199.274C165.066 207.811 169.57 217.432 174.333 226.61C179.847 237.237 185.717 247.708 190.167 258.834C191.088 261.136 191.919 263.472 192.834 265.778C193.246 266.816 193.895 267.892 193.178 268.95C185.077 280.897 171.925 266.107 166.004 260.034C164.376 258.365 162.816 256.64 161.214 254.947C159.073 252.685 156.878 250.475 154.728 248.222C147.387 240.523 140.816 232.2 133.737 224.28C127.001 216.745 121.31 208.544 115.125 200.566C110.854 195.057 106.194 190.071 102.768 183.95C100.392 179.706 93.418 161.504 93.418 161.504Z" fill="white"/>
<mask id="mask4_392_65" style="mask-type:luminance" maskUnits="userSpaceOnUse" x="93" y="147" width="101" height="127">
<path d="M93.418 161.504C96.735 158.773 99.894 155.855 102.861 152.743C104.997 150.503 106.469 147.868 109.695 147.418C121.544 145.765 126.406 157.818 132.479 166.028C136.396 171.324 141.07 175.923 145.329 180.924C150.171 186.608 154.929 193.118 159.176 199.274C165.066 207.811 169.57 217.432 174.333 226.61C179.847 237.237 185.717 247.708 190.167 258.834C191.088 261.136 191.919 263.472 192.834 265.778C193.246 266.816 193.895 267.892 193.178 268.95C185.077 280.897 171.925 266.107 166.004 260.034C164.376 258.365 162.816 256.64 161.214 254.947C159.073 252.685 156.878 250.475 154.728 248.222C147.387 240.523 140.816 232.2 133.737 224.28C127.001 216.745 121.31 208.544 115.125 200.566C110.854 195.057 106.194 190.071 102.768 183.95C100.392 179.706 93.418 161.504 93.418 161.504Z" fill="white"/>
</mask>
<g mask="url(#mask4_392_65)">
<path fill-rule="evenodd" clip-rule="evenodd" d="M142.52 187.014C140.504 186.824 138.518 187.211 136.862 188.8C135.846 189.774 134.934 190.824 133.996 191.872C133.65 192.259 133.11 192.801 133.115 193.363C133.119 193.804 133.697 194.156 134.003 194.396C134.938 195.128 135.993 195.708 136.912 196.458C139.478 198.552 143.492 200.523 145.229 203.364C146.442 205.348 146.205 208.041 145.98 210.247C145.658 213.408 145.286 216.338 146.062 219.467C147.499 225.268 150.337 230.584 152.689 236.041C157.036 246.132 160.905 256.456 169.672 263.63C172.578 266.008 175.423 268.678 178.947 270.122C180.096 270.593 181.759 271.122 183.092 270.869C179.837 262.422 175.474 254.381 172.97 245.652C170.861 238.296 170.146 230.549 167.29 223.409C165.522 218.989 162.766 214.955 159.554 211.456C157.52 209.24 154.925 207.379 153.542 204.642C151.685 200.969 154.573 196.86 152.744 193.146C152.15 191.939 151.311 190.778 150.398 189.69C148.072 188.627 145.25 187.271 142.52 187.014Z" fill="#242630" stroke="#242630" stroke-width="2" stroke-miterlimit="1.5" stroke-linecap="round" stroke-linejoin="round"/>
<path d="M161.192 217.406C157.838 217.273 155.353 216.436 152.354 213.357C151.014 211.982 149.671 210.241 149.107 207.89" stroke="white" stroke-width="2" stroke-miterlimit="1.5" stroke-linecap="round" stroke-linejoin="round"/>
<path d="M153.967 203.188C154.881 207.422 156.28 211.531 157.335 215.731" stroke="white" stroke-width="2" stroke-miterlimit="1.5" stroke-linecap="round" stroke-linejoin="round"/>
<path d="M143.489 207.154C144.042 205.559 144.885 203.482 146.283 202.388C149.033 200.236 152.835 202.02 155.15 203.986" stroke="white" stroke-width="2" stroke-miterlimit="1.5" stroke-linecap="round" stroke-linejoin="round"/>
<path d="M127.391 200.312C129.169 197.617 131.195 195.212 133.268 192.752C135.673 189.896 137.954 186.302 142.251 186.653C143.595 186.763 145.075 187.175 146.343 187.64" stroke="#242630" stroke-width="2" stroke-miterlimit="1.5" stroke-linecap="round" stroke-linejoin="round"/>
</g>
<path fill-rule="evenodd" clip-rule="evenodd" d="M93.418 161.504C96.735 158.773 99.894 155.855 102.861 152.743C104.997 150.503 106.469 147.868 109.695 147.418C121.544 145.765 126.406 157.818 132.479 166.028C136.396 171.324 141.07 175.923 145.329 180.924C150.171 186.608 154.929 193.118 159.176 199.274C165.066 207.811 169.57 217.432 174.333 226.61C179.847 237.237 185.717 247.708 190.167 258.834C191.088 261.136 191.919 263.472 192.834 265.778C193.246 266.816 193.895 267.892 193.178 268.95C185.077 280.897 171.925 266.107 166.004 260.034C164.376 258.365 162.816 256.64 161.214 254.947C159.073 252.685 156.878 250.475 154.728 248.222C147.387 240.523 140.816 232.2 133.737 224.28C127.001 216.745 121.31 208.544 115.125 200.566C110.854 195.057 106.194 190.071 102.768 183.95C100.392 179.706 93.418 161.504 93.418 161.504Z" stroke="#242630" stroke-width="2" stroke-miterlimit="1.5" stroke-linecap="round" stroke-linejoin="round"/>
<path fill-rule="evenodd" clip-rule="evenodd" d="M75.9116 159.512C74.8256 159.413 73.7416 159.295 72.6576 159.154C69.5446 158.932 66.4656 158.781 63.3356 158.633C55.5176 158.504 47.6636 157.355 40.0056 156.2C35.6066 155.537 31.2716 154.508 26.8666 153.885C25.4166 153.68 23.9656 153.474 22.5156 153.269C22.0396 153.202 21.5626 153.137 21.0846 153.086C21.0536 153.083 20.3426 153.025 20.3556 153.066C20.4636 153.428 21.1316 153.734 21.4236 153.9C22.4746 154.497 23.6416 154.891 24.6706 155.522C28.5526 157.906 32.2456 160.695 35.7576 163.592C43.4296 169.92 55.9486 177.974 58.2096 188.289C59.5836 194.555 52.6396 199.729 56.1346 205.85C63.9036 219.455 81.1176 222.919 90.9326 234.353C94.8646 238.933 89.0056 244.007 91.7796 249.108C94.7796 254.627 99.8636 259.425 104.342 263.727C114.608 273.589 127.044 284.06 140.843 288.428C143.097 289.141 145.518 289.506 147.879 289.254C149.82 289.047 151.72 288.459 153.597 287.942C159.705 286.259 170.257 283.721 172.396 276.592C174.298 270.252 168.039 263.459 164.415 259.022C154.624 247.036 144.403 235.178 135.228 222.71C125.068 208.904 115.461 194.704 105.433 180.803C101.303 175.077 97.7406 166.642 91.5456 162.781C86.9356 159.908 81.1316 159.988 75.9116 159.512Z" fill="#C1EDFC" stroke="#242630" stroke-width="2" stroke-miterlimit="1.5" stroke-linecap="round" stroke-linejoin="round"/>
<path fill-rule="evenodd" clip-rule="evenodd" d="M173.056 265.347C168.42 258.445 162.939 252.179 158.143 245.403C146.965 229.613 135.304 214.026 124.535 197.957C118.143 188.419 112.16 178.729 106.171 168.945C103.684 164.881 101.612 159.409 98.505 155.759C97.144 154.16 94.5 153.887 92.553 153.878C84.092 153.838 74.867 154.76 66.821 157.518C66.778 157.533 66.311 157.645 66.35 157.74C66.455 157.988 67.57 158.432 67.844 158.618C69.42 159.691 71.168 160.495 72.671 161.674C77.694 165.617 83.186 168.871 88.942 171.64C90.205 172.247 91.503 172.752 92.783 173.321C92.995 173.415 94.141 173.794 94.152 174.099C94.179 174.834 92.702 175.741 92.243 176.219C90.092 178.461 84.548 181.333 86.69 185.15C88.758 188.834 92.661 191.792 95.562 194.832C103.498 203.151 111.955 210.772 120.597 218.342C139.954 235.298 162.774 263.11 181.103 281.166C182.105 282.152 173.056 265.347 173.056 265.347Z" fill="#C1EDFC" stroke="#242630" stroke-width="2" stroke-miterlimit="1.5" stroke-linecap="round" stroke-linejoin="round"/>
<path fill-rule="evenodd" clip-rule="evenodd" d="M164.482 199.968C170.546 195.55 175.819 190.11 180.596 184.348C185.465 178.476 189.864 172.248 193.221 165.38C194.624 162.509 195.996 159.564 196.871 156.483C198.064 152.283 198.522 147.881 200.698 144.016C202.971 139.977 207.12 137.54 209.775 133.825C213.918 128.028 214.199 122.033 213.262 115.186C213.028 113.473 212.928 110.658 212.122 109.094C212.061 108.974 211.992 108.86 211.916 108.75C209.261 109.4 206.494 110.032 203.749 109.634C199.339 108.994 195.887 105.68 193.074 102.466C187.106 95.6499 183.642 86.6079 175.993 81.3239C172.246 78.7349 167.333 76.8119 162.725 77.8069C156.394 79.1739 150.883 86.8329 149.183 92.7589C148.011 96.8459 148.112 101.231 148.468 105.428C148.718 108.377 149.527 111.63 148.552 114.52C146.652 120.154 141.193 123.907 139.22 129.614C139.125 129.53 138.247 127.097 138.186 126.917C137.609 125.238 137.012 123.565 136.348 121.919C134.609 117.609 130.231 107.567 124.392 112.893C121.04 115.949 121.69 121.202 122.694 125.147C122.985 126.29 124.3 128.785 123.874 130.076C122.203 135.134 118.451 139.087 115.054 143.049C113.971 144.311 112.885 145.572 111.82 146.85C111.536 147.191 110.824 147.788 110.726 148.243C109.993 151.684 112.25 155.588 113.807 158.499C118.287 166.876 125.934 173.669 133.783 178.834C136.685 180.744 140.467 181.499 143.094 183.798C148.693 188.697 152.939 196.694 159.915 199.986C161.275 201.128 162.574 201.041 163.894 200.386C164.091 200.249 164.287 200.109 164.482 199.968Z" fill="#FFE38C"/>
<mask id="mask5_392_65" style="mask-type:luminance" maskUnits="userSpaceOnUse" x="110" y="77" width="104" height="124">
<path d="M164.482 199.968C170.546 195.55 175.819 190.11 180.596 184.348C185.465 178.476 189.864 172.248 193.221 165.38C194.624 162.509 195.996 159.564 196.871 156.483C198.064 152.283 198.522 147.881 200.698 144.016C202.971 139.977 207.12 137.54 209.775 133.825C213.918 128.028 214.199 122.033 213.262 115.186C213.028 113.473 212.928 110.658 212.122 109.094C212.061 108.974 211.992 108.86 211.916 108.75C209.261 109.4 206.494 110.032 203.749 109.634C199.339 108.994 195.887 105.68 193.074 102.466C187.106 95.6499 183.642 86.6079 175.993 81.3239C172.246 78.7349 167.333 76.8119 162.725 77.8069C156.394 79.1739 150.883 86.8329 149.183 92.7589C148.011 96.8459 148.112 101.231 148.468 105.428C148.718 108.377 149.527 111.63 148.552 114.52C146.652 120.154 141.193 123.907 139.22 129.614C139.125 129.53 138.247 127.097 138.186 126.917C137.609 125.238 137.012 123.565 136.348 121.919C134.609 117.609 130.231 107.567 124.392 112.893C121.04 115.949 121.69 121.202 122.694 125.147C122.985 126.29 124.3 128.785 123.874 130.076C122.203 135.134 118.451 139.087 115.054 143.049C113.971 144.311 112.885 145.572 111.82 146.85C111.536 147.191 110.824 147.788 110.726 148.243C109.993 151.684 112.25 155.588 113.807 158.499C118.287 166.876 125.934 173.669 133.783 178.834C136.685 180.744 140.467 181.499 143.094 183.798C148.693 188.697 152.939 196.694 159.915 199.986C161.275 201.128 162.574 201.041 163.894 200.386C164.091 200.249 164.287 200.109 164.482 199.968Z" fill="white"/>
</mask>
<g mask="url(#mask5_392_65)">
<path d="M185.093 164.206C185.975 164.289 186.853 164.225 187.709 163.984C189.662 163.432 191.969 163.4 193.481 161.862C194.603 160.72 194.753 159.09 194.559 157.574C194.194 154.728 192.903 152.101 192.282 149.314C191.765 146.996 192.417 145.168 193.107 142.965C194.389 138.87 194.056 130.176 200.418 131.197C201.266 131.333 202.025 131.599 202.782 132C203.793 132.535 204.572 133.099 205.278 134.009" stroke="#242630" stroke-width="2" stroke-miterlimit="1.5" stroke-linecap="round" stroke-linejoin="round"/>
<path d="M164.976 117.248C173.105 115.922 183.198 121.176 187.266 128.442" stroke="#242630" stroke-width="2" stroke-miterlimit="1.5" stroke-linecap="round" stroke-linejoin="round"/>
<path d="M167.268 128.949C169.247 130.794 171.769 132.251 174.382 133C176.178 133.516 177.914 133.104 179.429 134.365" stroke="#242630" stroke-width="2" stroke-miterlimit="1.5" stroke-linecap="round" stroke-linejoin="round"/>
<path d="M194.135 138.79C195.381 140.063 196.967 140.845 198.747 140.408" stroke="#242630" stroke-width="2" stroke-miterlimit="1.5" stroke-linecap="round" stroke-linejoin="round"/>
<path d="M164.459 166.456C164.355 166.893 164.257 167.331 164.154 167.769C164.105 167.975 164.293 167.367 164.377 167.172C164.599 166.653 164.682 166.491 165.338 166.48C166.655 166.458 167.958 167.106 169.089 167.713C173.637 170.155 177.056 173.365 182.299 174.415" stroke="#242630" stroke-width="2" stroke-miterlimit="1.5" stroke-linecap="round" stroke-linejoin="round"/>
<path d="M178.136 150.575C177.156 151.271 176.27 151.956 175.505 152.827C174.315 154.179 172.691 156.907 174.842 158.328C176.25 159.258 178.631 158.823 180.224 159.006C182.17 159.229 183.842 160.093 185.65 160.687" stroke="#242630" stroke-width="2" stroke-miterlimit="1.5" stroke-linecap="round" stroke-linejoin="round"/>
<path d="M153.604 167.051C154.699 163.964 155.784 160.65 158.454 158.554" stroke="#242630" stroke-width="2" stroke-miterlimit="1.5" stroke-linecap="round" stroke-linejoin="round"/>
<path d="M142.366 166.459C140.935 156.484 145.592 141.62 158.395 143.566" stroke="#242630" stroke-width="2" stroke-miterlimit="1.5" stroke-linecap="round" stroke-linejoin="round"/>
<path d="M131.638 153.254C131.797 166.901 140.083 178.018 147.722 188.672" stroke="#242630" stroke-width="2" stroke-miterlimit="1.5" stroke-linecap="round" stroke-linejoin="round"/>
<path d="M123.792 127.258C125.215 131 125.56 135.943 128.18 139.105C130.417 141.806 133.186 140.999 134.166 137.795" stroke="#242630" stroke-width="2" stroke-miterlimit="1.5" stroke-linecap="round" stroke-linejoin="round"/>
<path d="M133.655 132.353C131.399 130.652 132.263 127.787 132.299 125.362C132.342 122.477 130.137 116.545 126.792 115.576" stroke="#242630" stroke-width="2" stroke-miterlimit="1.5" stroke-linecap="round" stroke-linejoin="round"/>
<path d="M130.359 133.776C130.081 132.69 129.695 131.76 129.159 130.777C127.834 128.344 124.367 125.94 126.955 123.036C127.271 122.682 127.676 122.361 128.106 122.153C128.749 121.841 129.514 121.598 130.216 121.454" stroke="#242630" stroke-width="2" stroke-miterlimit="1.5" stroke-linecap="round" stroke-linejoin="round"/>
<path d="M125.415 117.766C124.812 120.615 125.391 123.247 126.453 125.896" stroke="#242630" stroke-width="2" stroke-miterlimit="1.5" stroke-linecap="round" stroke-linejoin="round"/>
</g>
<path fill-rule="evenodd" clip-rule="evenodd" d="M164.482 199.968C170.546 195.55 175.819 190.11 180.596 184.348C185.465 178.476 189.864 172.248 193.221 165.38C194.624 162.509 195.996 159.564 196.871 156.483C198.064 152.283 198.522 147.881 200.698 144.016C202.971 139.977 207.12 137.54 209.775 133.825C213.918 128.028 214.199 122.033 213.262 115.186C213.028 113.473 212.928 110.658 212.122 109.094C212.061 108.974 211.992 108.86 211.916 108.75C209.261 109.4 206.494 110.032 203.749 109.634C199.339 108.994 195.887 105.68 193.074 102.466C187.106 95.6499 183.642 86.6079 175.993 81.3239C172.246 78.7349 167.333 76.8119 162.725 77.8069C156.394 79.1739 150.883 86.8329 149.183 92.7589C148.011 96.8459 148.112 101.231 148.468 105.428C148.718 108.377 149.527 111.63 148.552 114.52C146.652 120.154 141.193 123.907 139.22 129.614C139.125 129.53 138.247 127.097 138.186 126.917C137.609 125.238 137.012 123.565 136.348 121.919C134.609 117.609 130.231 107.567 124.392 112.893C121.04 115.949 121.69 121.202 122.694 125.147C122.985 126.29 124.3 128.785 123.874 130.076C122.203 135.134 118.451 139.087 115.054 143.049C113.971 144.311 112.885 145.572 111.82 146.85C111.536 147.191 110.824 147.788 110.726 148.243C109.993 151.684 112.25 155.588 113.807 158.499C118.287 166.876 125.934 173.669 133.783 178.834C136.685 180.744 140.467 181.499 143.094 183.798C148.693 188.697 152.939 196.694 159.915 199.986C161.275 201.128 162.574 201.041 163.894 200.386C164.091 200.249 164.287 200.109 164.482 199.968Z" stroke="#242630" stroke-width="2" stroke-miterlimit="1.5" stroke-linecap="round" stroke-linejoin="round"/>
<path fill-rule="evenodd" clip-rule="evenodd" d="M295.536 218.993C296.238 217.375 296.958 215.768 297.742 214.189C298.222 213.225 298.69 212.252 299.218 211.314C299.452 210.896 299.89 209.907 300.31 209.687C301.561 209.029 304.027 209.94 304.438 211.359C304.83 212.711 304.062 214.306 303.452 215.485C302.149 218.004 301.035 220.906 297.864 221.023C297.247 221.046 295.536 218.993 295.536 218.993Z" fill="#FFE38C" stroke="#242630" stroke-width="2" stroke-miterlimit="1.5" stroke-linecap="round" stroke-linejoin="round"/>
<path fill-rule="evenodd" clip-rule="evenodd" d="M307.834 214.743C305.682 213.645 303.429 212.767 301.29 211.629C299.937 210.909 298.524 210.284 297.21 209.493C296.414 209.014 294.742 208.42 294.292 207.589C292.771 204.777 296.782 202.503 298.92 202.395C300.457 202.317 301.933 202.929 303.336 203.479C305.251 204.231 306.944 205.354 308.743 206.333C311.975 208.091 314.027 209.366 312.315 213.386C311.988 214.152 311.563 214.834 310.939 215.395C310.467 215.819 307.834 214.743 307.834 214.743Z" fill="#FFE38C" stroke="#242630" stroke-width="2" stroke-miterlimit="1.5" stroke-linecap="round" stroke-linejoin="round"/>
<path fill-rule="evenodd" clip-rule="evenodd" d="M230.981 201.42C220.986 196.737 209.068 201.05 204.385 211.045C199.702 221.041 204.015 232.958 214.01 237.642L252.043 255.461L249.497 260.894L211.465 243.075C198.47 236.987 192.864 221.494 198.952 208.5C205.04 195.506 220.533 189.899 233.527 195.987L272.982 214.473L270.436 219.906L230.981 201.42Z" fill="#FFE38C"/>
<mask id="mask6_392_65" style="mask-type:luminance" maskUnits="userSpaceOnUse" x="196" y="193" width="77" height="68">
<path d="M230.981 201.42C220.986 196.737 209.068 201.05 204.385 211.045C199.702 221.041 204.015 232.958 214.01 237.642L252.043 255.461L249.497 260.894L211.465 243.075C198.47 236.987 192.864 221.494 198.952 208.5C205.04 195.506 220.533 189.899 233.527 195.987L272.982 214.473L270.436 219.906L230.981 201.42Z" fill="white"/>
</mask>
<g mask="url(#mask6_392_65)">
<path fill-rule="evenodd" clip-rule="evenodd" d="M269.094 271.452C268.094 268.68 265.139 267.076 262.688 265.76C260.874 264.785 259.377 262.967 257.484 262.236C254.715 261.167 251.283 261.151 248.676 259.822C247.428 259.186 246.374 257.876 245.038 257.463C243.315 256.931 241.546 256.943 239.934 256.06C238.534 255.294 237.779 253.697 236.4 253.029C235.251 252.472 233.938 252.472 232.801 251.849C231.358 251.058 230.593 248.608 229.245 248.14C228.294 247.81 227.27 248.057 226.345 247.718C225.634 247.458 225.29 246.482 224.583 246.307C223.22 245.97 221.911 246.439 220.561 246.246C219.639 246.114 219.855 244.165 219.299 243.895C218.242 243.383 216.873 244.733 215.906 244.211C214.946 243.692 214.809 242.139 214.021 241.685C213.504 241.388 211.526 242.366 211.291 241.994C210.997 241.529 210.313 239.1 209.998 238.971C208.913 238.526 207.865 239.596 206.848 239.456C205.915 239.328 203.949 236.91 203.002 236.349C201.32 235.353 198.729 233.609 196.922 233.309C195.975 233.152 194.701 233.55 193.822 233.173C193.138 232.88 192.776 231.496 192.264 231.368C190.89 231.023 189.005 231.486 187.876 230.41C187.411 229.967 187.205 228.984 186.758 228.649C184.494 226.953 178.516 229.587 176.973 231.223C175.281 233.017 178.47 236.866 179.89 237.991C186.324 243.086 194.235 244.638 201.764 247.465C209.982 250.55 217.597 254.887 225.784 257.968C234.287 261.168 243.249 263.473 251.504 267.291C257.36 269.999 262.319 273.594 267.795 276.76C268.741 277.307 269.094 271.452 269.094 271.452Z" fill="#242630" stroke="#242630" stroke-width="2" stroke-miterlimit="1.5" stroke-linecap="round" stroke-linejoin="round"/>
<path fill-rule="evenodd" clip-rule="evenodd" d="M208.194 228.723C205.002 227.73 202.449 224.547 202.164 220.599C202.091 219.576 202.551 218.669 202.645 217.662C202.72 216.861 202.404 216.03 202.543 215.24C202.757 214.023 203.47 212.791 203.828 211.596C204.029 210.927 204.067 209.924 204.427 209.311C206.146 206.391 208.288 204.94 209.449 201.614C210.352 200.963 211.383 200.986 212.372 200.446C213.501 199.829 214.134 198.433 215.329 197.956C217.528 197.079 221.077 197.345 223.48 197.088C227.931 196.612 233.764 202.652 233.398 206.979C233.183 209.514 230.674 212.046 228.775 213.484C226.429 215.26 223.755 216.34 221.674 218.516C219.313 220.987 217.678 224.12 215.571 226.802C215.519 226.869 215.454 226.938 215.377 227.009C213.051 229.027 210.461 229.428 208.194 228.723Z" fill="#242630" stroke="#242630" stroke-width="2" stroke-miterlimit="1.5" stroke-linecap="round" stroke-linejoin="round"/>
</g>
<path fill-rule="evenodd" clip-rule="evenodd" d="M230.981 201.42C220.986 196.737 209.068 201.05 204.385 211.045C199.702 221.041 204.015 232.958 214.01 237.642L252.043 255.461L249.497 260.894L211.465 243.075C198.47 236.987 192.864 221.494 198.952 208.5C205.04 195.506 220.533 189.899 233.527 195.987L272.982 214.473L270.436 219.906L230.981 201.42Z" stroke="#242630" stroke-width="2" stroke-miterlimit="1.5" stroke-linecap="round" stroke-linejoin="round"/>
<path fill-rule="evenodd" clip-rule="evenodd" d="M331.731 292.797C333.136 289.798 331.842 286.223 328.843 284.818L227.423 237.3C224.425 235.895 220.85 237.189 219.445 240.187C218.04 243.186 219.333 246.761 222.332 248.166L323.752 295.685C326.751 297.089 330.326 295.796 331.731 292.797Z" fill="#FFE38C"/>
<mask id="mask7_392_65" style="mask-type:luminance" maskUnits="userSpaceOnUse" x="218" y="236" width="115" height="61">
<path d="M331.731 292.797C333.136 289.798 331.842 286.223 328.843 284.818L227.423 237.3C224.425 235.895 220.85 237.189 219.445 240.187C218.04 243.186 219.333 246.761 222.332 248.166L323.752 295.685C326.751 297.089 330.326 295.796 331.731 292.797Z" fill="white"/>
</mask>
<g mask="url(#mask7_392_65)">
<path fill-rule="evenodd" clip-rule="evenodd" d="M241.008 250.875C243.799 249.93 246.895 251.24 249.452 252.335C251.345 253.146 253.7 253.183 255.452 254.208C258.014 255.706 260.166 258.38 262.83 259.59C264.106 260.169 265.786 260.176 266.943 260.964C268.433 261.979 269.526 263.369 271.222 264.08C272.694 264.696 274.413 264.291 275.795 264.952C276.947 265.503 277.765 266.531 278.962 267.031C280.479 267.666 282.871 266.737 284.078 267.499C284.929 268.037 285.374 268.992 286.216 269.504C286.863 269.897 287.84 269.558 288.418 270.001C289.531 270.857 289.98 272.173 290.973 273.108C291.651 273.747 293.04 272.362 293.598 272.629C294.657 273.137 294.456 275.049 295.466 275.479C296.47 275.907 297.77 275.045 298.616 275.379C299.171 275.597 299.64 277.754 300.076 277.706C300.623 277.646 302.949 276.666 303.246 276.832C304.271 277.402 304.088 278.889 304.831 279.597C305.513 280.247 308.629 280.276 309.658 280.667C311.485 281.361 314.464 282.3 315.825 283.526C316.539 284.168 317.021 285.412 317.865 285.865C318.52 286.216 319.828 285.637 320.247 285.957C321.373 286.816 322.187 288.579 323.731 288.791C324.368 288.878 325.265 288.427 325.805 288.567C328.543 289.279 330.21 295.596 329.893 297.823C329.545 300.264 324.548 300.17 322.783 299.761C314.788 297.907 308.642 292.689 301.739 288.565C294.203 284.064 286.065 280.813 278.552 276.332C270.749 271.679 263.359 266.109 255.228 262.035C249.459 259.144 243.557 257.509 237.667 255.2C236.65 254.802 241.008 250.875 241.008 250.875Z" fill="#242630" stroke="#242630" stroke-width="2" stroke-miterlimit="1.5" stroke-linecap="round" stroke-linejoin="round"/>
</g>
<path fill-rule="evenodd" clip-rule="evenodd" d="M331.731 292.797C333.136 289.798 331.842 286.223 328.843 284.818L227.423 237.3C224.425 235.895 220.85 237.189 219.445 240.187C218.04 243.186 219.333 246.761 222.332 248.166L323.752 295.685C326.751 297.089 330.326 295.796 331.731 292.797Z" stroke="#242630" stroke-width="2" stroke-miterlimit="1.5" stroke-linecap="round" stroke-linejoin="round"/>
<path fill-rule="evenodd" clip-rule="evenodd" d="M301.314 232.165L282.941 223.557C283.367 222.52 283.797 221.486 284.235 220.454C284.665 219.748 285.1 219.234 285.544 218.875C287.375 217.396 289.37 218.557 291.895 219.822C294.061 220.907 296.224 221.95 298.428 222.953C329.764 237.222 361.165 253.877 395.5 259.535C411.232 262.128 429.247 262.853 443.55 254.634C463.405 243.224 429.008 283.159 429.008 283.159L425.682 290.259C425.682 290.259 417.01 342.246 413.07 319.688C407.496 287.774 362.698 261.78 347.44 253.776L313.475 237.862C312.343 236.694 311.286 235.375 309.875 234.574C307.321 233.125 304.337 232.342 301.314 232.165Z" fill="#FFE38C"/>
<mask id="mask8_392_65" style="mask-type:luminance" maskUnits="userSpaceOnUse" x="282" y="218" width="168" height="108">
<path d="M301.314 232.165L282.941 223.557C283.367 222.52 283.797 221.486 284.235 220.454C284.665 219.748 285.1 219.234 285.544 218.875C287.375 217.396 289.37 218.557 291.895 219.822C294.061 220.907 296.224 221.95 298.428 222.953C329.764 237.222 361.165 253.877 395.5 259.535C411.232 262.128 429.247 262.853 443.55 254.634C463.405 243.224 429.008 283.159 429.008 283.159L425.682 290.259C425.682 290.259 417.01 342.246 413.07 319.688C407.496 287.774 362.698 261.78 347.44 253.776L313.475 237.862C312.343 236.694 311.286 235.375 309.875 234.574C307.321 233.125 304.337 232.342 301.314 232.165Z" fill="white"/>
</mask>
<g mask="url(#mask8_392_65)">
<path fill-rule="evenodd" clip-rule="evenodd" d="M349.607 251.013C358.34 256.988 369.319 259.523 378.939 263.796C383.047 265.621 388.629 268.183 391.669 271.578C393.63 273.768 393.557 277.545 396.14 279.243C398.018 280.477 400.211 278.189 402.228 279.256C406.137 281.325 403.721 286.63 406.482 289.341C407.805 290.639 409.734 288.011 411.483 288.882C414.781 290.524 415.673 297.098 416.733 300.211C417.078 301.223 418.13 303.061 418.005 304.155C417.806 305.894 414.228 302.53 413.075 301.528C409.138 298.105 406.351 293.372 402.853 289.515C389.866 275.195 370.058 270.348 354.232 260.372C352.466 259.258 349.607 251.013 349.607 251.013Z" fill="#242630" stroke="#242630" stroke-width="2" stroke-miterlimit="1.5" stroke-linecap="round" stroke-linejoin="round"/>
</g>
<path fill-rule="evenodd" clip-rule="evenodd" d="M301.314 232.165L282.941 223.557C283.367 222.52 283.797 221.486 284.235 220.454C284.665 219.748 285.1 219.234 285.544 218.875C287.375 217.396 289.37 218.557 291.895 219.822C294.061 220.907 296.224 221.95 298.428 222.953C329.764 237.222 361.165 253.877 395.5 259.535C411.232 262.128 429.247 262.853 443.55 254.634C463.405 243.224 429.008 283.159 429.008 283.159L425.682 290.259C425.682 290.259 417.01 342.246 413.07 319.688C407.496 287.774 362.698 261.78 347.44 253.776L313.475 237.862C312.343 236.694 311.286 235.375 309.875 234.574C307.321 233.125 304.337 232.342 301.314 232.165Z" stroke="#242630" stroke-width="2" stroke-miterlimit="1.5" stroke-linecap="round" stroke-linejoin="round"/>
<path fill-rule="evenodd" clip-rule="evenodd" d="M281.847 225.369C256.186 213.346 230.531 201.31 204.864 189.3C199.036 186.573 192.829 184.749 186.404 184.217C183.893 184.01 179.725 184.838 178.147 182.331C177.424 181.181 177.858 179.433 178.194 178.232C178.662 176.555 179.378 174.946 180.216 173.422C180.796 172.368 181.469 171.369 182.289 170.486C182.881 169.849 183.528 169.245 184.241 168.745C188.509 165.755 191.403 171.552 193.72 174.289C195.504 176.396 197.697 178.078 200.001 179.577C208.013 184.788 216.93 188.356 225.565 192.373C245.121 201.472 264.628 210.675 284.159 219.826C285.974 220.677 282.577 223.506 281.847 225.369Z" fill="#FFE38C"/>
<mask id="mask9_392_65" style="mask-type:luminance" maskUnits="userSpaceOnUse" x="177" y="167" width="108" height="59">
<path d="M281.847 225.369C256.186 213.346 230.531 201.31 204.864 189.3C199.036 186.573 192.829 184.749 186.404 184.217C183.893 184.01 179.725 184.838 178.147 182.331C177.424 181.181 177.858 179.433 178.194 178.232C178.662 176.555 179.378 174.946 180.216 173.422C180.796 172.368 181.469 171.369 182.289 170.486C182.881 169.849 183.528 169.245 184.241 168.745C188.509 165.755 191.403 171.552 193.72 174.289C195.504 176.396 197.697 178.078 200.001 179.577C208.013 184.788 216.93 188.356 225.565 192.373C245.121 201.472 264.628 210.675 284.159 219.826C285.974 220.677 282.577 223.506 281.847 225.369Z" fill="white"/>
</mask>
<g mask="url(#mask9_392_65)">
<path fill-rule="evenodd" clip-rule="evenodd" d="M172.779 174.546C176.456 171.374 179.577 176.511 183.029 177.351C184.537 177.718 186.129 177.349 187.629 177.768C188.807 178.098 189.393 179.06 190.34 179.735C191.196 180.346 192.299 180.421 193.179 180.985C194.647 181.924 195.198 183.833 196.771 184.661C199.236 185.958 202.143 186.343 204.629 187.5C207.334 188.759 209.747 190.535 212.294 192.071C216.212 194.435 220.3 196.601 224.572 198.254" fill="#242630"/>
<path d="M172.779 174.546C176.456 171.374 179.577 176.511 183.029 177.351C184.537 177.718 186.129 177.349 187.629 177.768C188.807 178.098 189.393 179.06 190.34 179.735C191.196 180.346 192.299 180.421 193.179 180.985C194.647 181.924 195.198 183.833 196.771 184.661C199.236 185.958 202.143 186.343 204.629 187.5C207.334 188.759 209.747 190.535 212.294 192.071C216.212 194.435 220.3 196.601 224.572 198.254" stroke="#242630" stroke-width="2" stroke-miterlimit="1.5" stroke-linecap="round" stroke-linejoin="round"/>
</g>
<path fill-rule="evenodd" clip-rule="evenodd" d="M281.847 225.369C256.186 213.346 230.531 201.31 204.864 189.3C199.036 186.573 192.829 184.749 186.404 184.217C183.893 184.01 179.725 184.838 178.147 182.331C177.424 181.181 177.858 179.433 178.194 178.232C178.662 176.555 179.378 174.946 180.216 173.422C180.796 172.368 181.469 171.369 182.289 170.486C182.881 169.849 183.528 169.245 184.241 168.745C188.509 165.755 191.403 171.552 193.72 174.289C195.504 176.396 197.697 178.078 200.001 179.577C208.013 184.788 216.93 188.356 225.565 192.373C245.121 201.472 264.628 210.675 284.159 219.826C285.974 220.677 282.577 223.506 281.847 225.369Z" stroke="#242630" stroke-width="2" stroke-miterlimit="1.5" stroke-linecap="round" stroke-linejoin="round"/>
<path fill-rule="evenodd" clip-rule="evenodd" d="M298.286 232.187C296.528 232.316 294.801 232.645 293.184 233.162C290.633 233.977 287.549 235.256 288.116 238.59C288.52 240.961 290.902 242.077 293.075 243.308L271.778 288.764C267.142 289.59 263.455 288.056 260.911 283.673L293.064 215.048L303.931 220.139L298.286 232.187Z" fill="#FFE38C"/>
<mask id="mask10_392_65" style="mask-type:luminance" maskUnits="userSpaceOnUse" x="260" y="215" width="44" height="74">
<path d="M298.286 232.187C296.528 232.316 294.801 232.645 293.184 233.162C290.633 233.977 287.549 235.256 288.116 238.59C288.52 240.961 290.902 242.077 293.075 243.308L271.778 288.764C267.142 289.59 263.455 288.056 260.911 283.673L293.064 215.048L303.931 220.139L298.286 232.187Z" fill="white"/>
</mask>
<g mask="url(#mask10_392_65)">
<path fill-rule="evenodd" clip-rule="evenodd" d="M258.902 285.724C260.921 289.37 264.159 285.353 265.947 283.607C269.766 280.019 270.728 275.245 272.112 269.744C272.789 267.051 273.936 264.332 275.502 262.04C276.681 260.313 278.277 259.053 279.135 257.108C280.015 255.114 279.753 252.874 280.568 250.897C281.074 249.671 282.319 249.233 282.931 248.138C284.053 246.129 284.184 244.365 286.056 242.74C289.399 239.837 294.783 238.075 296.334 233.541C298.007 228.648 292.884 223.855 294.842 219.113C295.56 217.372 298.918 216.285 298.155 214.08C296.979 210.682 293.787 212.326 291.978 214.59C287.588 220.087 284.479 226.45 281.296 232.671C277.723 239.654 275.334 246.681 272.691 254.031C270.09 261.262 266.929 268.451 263.46 275.308C261.954 278.285 260.069 281.106 258.688 284.158C258.708 284.579 258.672 285.302 258.887 285.696C258.892 285.705 258.897 285.714 258.902 285.724Z" fill="#242630" stroke="#242630" stroke-width="2" stroke-miterlimit="1.5" stroke-linecap="round" stroke-linejoin="round"/>
</g>
<path fill-rule="evenodd" clip-rule="evenodd" d="M298.286 232.187C296.528 232.316 294.801 232.645 293.184 233.162C290.633 233.977 287.549 235.256 288.116 238.59C288.52 240.961 290.902 242.077 293.075 243.308L271.778 288.764C267.142 289.59 263.455 288.056 260.911 283.673L293.064 215.048L303.931 220.139L298.286 232.187Z" stroke="#242630" stroke-width="2" stroke-miterlimit="1.5" stroke-linecap="round" stroke-linejoin="round"/>
<path fill-rule="evenodd" clip-rule="evenodd" d="M293.065 215.048L282.199 209.956L250.046 278.581C252.589 282.964 256.277 284.499 260.912 283.673L293.065 215.048Z" fill="#FFE38C"/>
<mask id="mask11_392_65" style="mask-type:luminance" maskUnits="userSpaceOnUse" x="250" y="209" width="44" height="75">
<path d="M293.065 215.048L282.199 209.956L250.046 278.581C252.589 282.964 256.277 284.499 260.912 283.673L293.065 215.048Z" fill="white"/>
</mask>
<g mask="url(#mask11_392_65)">
<path fill-rule="evenodd" clip-rule="evenodd" d="M276.502 219.105C277.471 216.962 278.623 214.917 280.234 213.15C281.354 211.92 282.679 210.779 284.07 209.865C289.285 206.435 293.423 211.936 293.788 216.688C294.015 219.638 291.889 223.194 290.27 225.479C287.825 228.932 284.694 231.413 281.381 233.922C280.957 234.086 280.544 234.245 280.16 234.413C278.289 235.229 276.697 236.597 275.246 238.012C272.772 240.424 270.527 243.318 269.284 246.569C268.471 248.695 268.484 251.083 267.399 253.109C266.37 255.031 264.444 256.204 263.389 258.064C262.734 259.217 263.156 260.468 262.67 261.624C261.895 263.468 260.012 264.557 259.144 266.35C258.5 267.68 258.992 269.107 258.299 270.491C257.307 272.474 255.653 273.877 254.983 276.054C254.015 279.202 254.066 282.877 251.949 285.585C250.761 287.105 248.1 287 247.14 288.885C246.286 290.564 247.422 293.837 245.215 294.594C241.814 295.761 241.143 292.233 241.813 289.414C243.439 282.57 246.538 276.202 249.478 269.863C252.779 262.746 256.844 256.537 261.006 249.927C265.101 243.425 268.818 236.507 272.083 229.551C273.227 227.115 274.138 224.547 275.264 222.087C275.656 221.084 276.06 220.085 276.502 219.105Z" fill="#242630" stroke="#242630" stroke-width="2" stroke-miterlimit="1.5" stroke-linecap="round" stroke-linejoin="round"/>
</g>
<path fill-rule="evenodd" clip-rule="evenodd" d="M293.065 215.048L282.199 209.956L250.046 278.581C252.589 282.964 256.277 284.499 260.912 283.673L293.065 215.048Z" stroke="#242630" stroke-width="2" stroke-miterlimit="1.5" stroke-linecap="round" stroke-linejoin="round"/>
<path fill-rule="evenodd" clip-rule="evenodd" d="M282.199 209.956L271.332 204.865L239.179 273.49C241.723 277.873 245.411 279.407 250.046 278.581L282.199 209.956Z" fill="#FFE38C" stroke="#242630" stroke-width="2" stroke-miterlimit="1.5" stroke-linecap="round" stroke-linejoin="round"/>
<path fill-rule="evenodd" clip-rule="evenodd" d="M461.316 251.915C473.311 257.535 474.304 280.762 463.533 303.752C452.761 326.742 434.278 340.844 422.283 335.224C410.289 329.604 409.296 306.377 420.067 283.387C430.838 260.397 449.322 246.295 461.316 251.915Z" fill="#FFE38C"/>
<mask id="mask12_392_65" style="mask-type:luminance" maskUnits="userSpaceOnUse" x="412" y="250" width="60" height="87">
<path d="M461.316 251.915C473.311 257.535 474.304 280.762 463.533 303.752C452.761 326.742 434.278 340.844 422.283 335.224C410.289 329.604 409.296 306.377 420.067 283.387C430.838 260.397 449.322 246.295 461.316 251.915Z" fill="white"/>
</mask>
<g mask="url(#mask12_392_65)">
<path fill-rule="evenodd" clip-rule="evenodd" d="M434.792 246.02C426.409 254.253 420.153 264.529 415.43 275.262C413.308 280.084 411.376 286.713 413.206 291.955C415.633 298.905 423.494 302.286 430.479 301.824C443.28 300.977 456.153 294.213 465.337 285.44C471.978 279.095 479.461 269.953 478.607 260.124C478.169 255.087 476.142 250.329 472.413 246.894C469.867 244.549 467.202 241.947 464.027 240.479C453.92 235.808 442.565 239.597 434.264 245.88C434.176 245.946 434.792 246.02 434.792 246.02Z" fill="#242630" stroke="#242630" stroke-width="2" stroke-miterlimit="1.5" stroke-linecap="round" stroke-linejoin="round"/>
</g>
<path fill-rule="evenodd" clip-rule="evenodd" d="M461.316 251.915C473.311 257.535 474.304 280.762 463.533 303.752C452.761 326.742 434.278 340.844 422.283 335.224C410.289 329.604 409.296 306.377 420.067 283.387C430.838 260.397 449.322 246.295 461.316 251.915Z" stroke="#242630" stroke-width="2" stroke-miterlimit="1.5" stroke-linecap="round" stroke-linejoin="round"/>
<path fill-rule="evenodd" clip-rule="evenodd" d="M296.944 232.325L265.393 217.543L267.938 212.109L362.114 256.234C375.108 262.322 380.715 277.814 374.627 290.809C368.538 303.803 353.046 309.41 340.052 303.321L278.475 274.471L281.021 269.038L342.597 297.888C352.593 302.571 364.51 298.259 369.193 288.263C373.877 278.267 369.564 266.35 359.568 261.667L325.927 245.905C324.475 241.359 319.462 241.696 315.708 239.673C313.494 238.479 312.141 235.86 309.876 234.574C306.087 232.424 301.351 231.74 296.944 232.325Z" fill="#FFE38C"/>
<mask id="mask13_392_65" style="mask-type:luminance" maskUnits="userSpaceOnUse" x="265" y="212" width="113" height="94">
<path d="M296.944 232.325L265.393 217.543L267.938 212.109L362.114 256.234C375.108 262.322 380.715 277.814 374.627 290.809C368.538 303.803 353.046 309.41 340.052 303.321L278.475 274.471L281.021 269.038L342.597 297.888C352.593 302.571 364.51 298.259 369.193 288.263C373.877 278.267 369.564 266.35 359.568 261.667L325.927 245.905C324.475 241.359 319.462 241.696 315.708 239.673C313.494 238.479 312.141 235.86 309.876 234.574C306.087 232.424 301.351 231.74 296.944 232.325Z" fill="white"/>
</mask>
<g mask="url(#mask13_392_65)">
<path fill-rule="evenodd" clip-rule="evenodd" d="M276.935 223.556C279.724 222.604 282.823 223.907 285.383 224.996C287.278 225.803 289.633 225.834 291.387 226.854C293.953 228.346 296.111 231.015 298.778 232.219C300.055 232.795 301.736 232.798 302.894 233.583C304.387 234.594 305.484 235.982 307.181 236.689C308.654 237.302 310.372 236.893 311.756 237.55C312.909 238.099 313.73 239.124 314.928 239.622C316.446 240.253 318.837 239.318 320.045 240.078C320.897 240.613 321.345 241.567 322.188 242.077C322.835 242.469 323.812 242.127 324.391 242.569C325.507 243.422 325.958 244.737 326.953 245.67C327.633 246.307 329.019 244.919 329.577 245.185C330.637 245.69 330.441 247.602 331.452 248.03C332.458 248.455 333.755 247.591 334.602 247.922C335.158 248.139 335.631 250.295 336.068 250.246C336.614 250.184 338.938 249.2 339.236 249.364C340.261 249.932 340.082 251.42 340.827 252.126C341.51 252.774 344.626 252.796 345.657 253.185C347.485 253.874 350.466 254.806 351.83 256.028C352.545 256.669 353.031 257.912 353.876 258.363C354.532 258.713 355.838 258.13 356.258 258.449C357.386 259.306 358.204 261.067 359.749 261.275C360.386 261.36 361.282 260.907 361.822 261.046C364.562 261.752 366.244 268.065 365.932 270.292C365.59 272.734 360.593 272.652 358.827 272.247C350.828 270.412 344.669 265.209 337.756 261.101C330.209 256.618 322.064 253.386 314.54 248.924C306.726 244.289 299.323 238.737 291.182 234.682C285.406 231.805 279.5 230.184 273.605 227.889C272.587 227.493 276.935 223.556 276.935 223.556Z" fill="#242630" stroke="#242630" stroke-width="2" stroke-miterlimit="1.5" stroke-linecap="round" stroke-linejoin="round"/>
<path fill-rule="evenodd" clip-rule="evenodd" d="M269.411 270.762C272.2 269.809 275.299 271.112 277.858 272.201C279.754 273.008 282.108 273.039 283.863 274.059C286.428 275.551 288.587 278.22 291.254 279.424C292.531 280 294.212 280.003 295.37 280.788C296.862 281.8 297.959 283.188 299.656 283.894C301.13 284.507 302.848 284.098 304.231 284.756C305.385 285.304 306.206 286.329 307.403 286.827C308.922 287.458 311.312 286.523 312.521 287.283C313.373 287.818 313.82 288.772 314.663 289.282C315.311 289.674 316.288 289.332 316.866 289.774C317.982 290.628 318.434 291.942 319.429 292.875C320.109 293.512 321.494 292.124 322.053 292.39C323.113 292.895 322.916 294.807 323.928 295.235C324.933 295.661 326.23 294.796 327.078 295.127C327.633 295.345 328.107 297.5 328.543 297.451C329.09 297.39 331.413 296.405 331.711 296.569C332.737 297.137 332.557 298.625 333.302 299.331C333.985 299.979 337.102 300.001 338.132 300.39C339.961 301.079 342.941 302.011 344.305 303.233C345.021 303.874 345.506 305.117 346.351 305.568C347.007 305.918 348.313 305.336 348.733 305.655C349.861 306.511 350.679 308.272 352.224 308.48C352.861 308.566 353.757 308.112 354.298 308.251C357.037 308.957 358.72 315.27 358.408 317.497C358.066 319.939 353.069 319.857 351.302 319.452C343.303 317.618 337.145 312.414 330.231 308.307C322.685 303.823 314.539 300.591 307.016 296.129C299.201 291.494 291.798 285.942 283.657 281.887C277.882 279.01 271.975 277.389 266.081 275.094C265.062 274.698 269.411 270.762 269.411 270.762Z" fill="#242630" stroke="#242630" stroke-width="2" stroke-miterlimit="1.5" stroke-linecap="round" stroke-linejoin="round"/>
</g>
<path fill-rule="evenodd" clip-rule="evenodd" d="M296.944 232.325L265.393 217.543L267.938 212.109L362.114 256.234C375.108 262.322 380.715 277.814 374.627 290.809C368.538 303.803 353.046 309.41 340.052 303.321L278.475 274.471L281.021 269.038L342.597 297.888C352.593 302.571 364.51 298.259 369.193 288.263C373.877 278.267 369.564 266.35 359.568 261.667L325.927 245.905C324.475 241.359 319.462 241.696 315.708 239.673C313.494 238.479 312.141 235.86 309.876 234.574C306.087 232.424 301.351 231.74 296.944 232.325Z" stroke="#242630" stroke-width="2" stroke-miterlimit="1.5" stroke-linecap="round" stroke-linejoin="round"/>
<path fill-rule="evenodd" clip-rule="evenodd" d="M186.606 261.621C188.505 261.247 190.4 260.843 192.277 260.438C195.395 259.809 198.524 259.364 201.045 258.726C204.222 258.079 207.383 257.369 210.505 256.535C213.587 255.711 217.958 255.12 220.361 252.787C227.097 246.247 230.131 233.72 231.494 224.537C231.967 221.35 231.217 216.794 232.63 213.797C234.495 209.839 239.824 209.004 242.804 206.101C246.72 202.287 249.808 197.19 254.309 194.022C256.608 192.404 259.462 192.807 261.719 191.299C265.604 188.703 267.535 186.066 272.308 184.694C276.688 183.435 281.228 182.79 285.654 181.712C287.743 181.203 290.136 180.076 292.262 180.999C296.5 182.841 297.43 188.553 299.198 192.31C300.709 192.323 302.534 191.116 303.653 190.511C306.846 188.783 310.14 185.896 313.671 185.064C317.162 184.241 317.542 188.366 316.976 190.843C316.287 193.857 313.562 195.339 311.128 196.895C310.624 197.217 309.037 197.489 309.563 197.772C311.123 198.612 312.585 198.286 314.242 198.069C316.876 197.724 319.628 197.327 322.289 197.393C324.189 197.441 325.166 198.345 324.199 200.213C323.996 200.605 323.758 200.977 323.506 201.339C323.135 201.875 322.635 202.306 322.143 202.726C321.327 203.421 320.454 204.033 319.473 204.473C311.394 208.092 301.388 204.477 294.284 210.895C288.936 215.725 284.368 221.195 280.998 227.579C275.334 238.305 272.061 250.464 263.515 259.415C249.655 273.929 229.064 278.133 211.263 285.755C203.855 288.927 194.233 293.588 188.836 285.1C185.529 279.901 181.663 275.023 178.886 269.5C178.122 267.981 176.447 264.972 177.819 263.353C178.41 262.656 181.052 262.608 181.958 262.461C183.505 262.211 185.057 261.926 186.606 261.621Z" fill="#FFE38C"/>
<mask id="mask14_392_65" style="mask-type:luminance" maskUnits="userSpaceOnUse" x="177" y="180" width="148" height="110">
<path d="M186.606 261.621C188.505 261.247 190.4 260.843 192.277 260.438C195.395 259.809 198.524 259.364 201.045 258.726C204.222 258.079 207.383 257.369 210.505 256.535C213.587 255.711 217.958 255.12 220.361 252.787C227.097 246.247 230.131 233.72 231.494 224.537C231.967 221.35 231.217 216.794 232.63 213.797C234.495 209.839 239.824 209.004 242.804 206.101C246.72 202.287 249.808 197.19 254.309 194.022C256.608 192.404 259.462 192.807 261.719 191.299C265.604 188.703 267.535 186.066 272.308 184.694C276.688 183.435 281.228 182.79 285.654 181.712C287.743 181.203 290.136 180.076 292.262 180.999C296.5 182.841 297.43 188.553 299.198 192.31C300.709 192.323 302.534 191.116 303.653 190.511C306.846 188.783 310.14 185.896 313.671 185.064C317.162 184.241 317.542 188.366 316.976 190.843C316.287 193.857 313.562 195.339 311.128 196.895C310.624 197.217 309.037 197.489 309.563 197.772C311.123 198.612 312.585 198.286 314.242 198.069C316.876 197.724 319.628 197.327 322.289 197.393C324.189 197.441 325.166 198.345 324.199 200.213C323.996 200.605 323.758 200.977 323.506 201.339C323.135 201.875 322.635 202.306 322.143 202.726C321.327 203.421 320.454 204.033 319.473 204.473C311.394 208.092 301.388 204.477 294.284 210.895C288.936 215.725 284.368 221.195 280.998 227.579C275.334 238.305 272.061 250.464 263.515 259.415C249.655 273.929 229.064 278.133 211.263 285.755C203.855 288.927 194.233 293.588 188.836 285.1C185.529 279.901 181.663 275.023 178.886 269.5C178.122 267.981 176.447 264.972 177.819 263.353C178.41 262.656 181.052 262.608 181.958 262.461C183.505 262.211 185.057 261.926 186.606 261.621Z" fill="white"/>
</mask>
<g mask="url(#mask14_392_65)">
<path d="M271.32 219.211C275.242 214.561 279.054 209.794 283.08 205.235C284.944 203.124 286.952 200.384 289.642 199.199C294.039 197.261 298.976 198.38 303.602 198.602C309.07 198.864 314.736 198.529 319.962 196.852" stroke="#242630" stroke-width="2" stroke-miterlimit="1.5" stroke-linecap="round" stroke-linejoin="round"/>
<path d="M261.542 214.449C263.262 212.077 264.672 209.512 266.934 207.594C268.58 206.198 270.842 205.404 272.684 204.292C284.124 197.382 297.62 195.068 308.694 187.495" stroke="#242630" stroke-width="2" stroke-miterlimit="1.5" stroke-linecap="round" stroke-linejoin="round"/>
<path d="M248.384 213.144C248.262 211.379 248.022 209.637 248.706 207.95C250.025 204.693 253.619 202.502 255.816 199.843C259.132 195.829 261.53 191.399 265.398 187.794" stroke="#242630" stroke-width="2" stroke-miterlimit="1.5" stroke-linecap="round" stroke-linejoin="round"/>
<path d="M272.929 203.761C273.876 202.271 274.931 200.622 275.411 198.894C275.467 198.69 275.642 197.097 275.771 197.016C276.274 196.701 277.555 196.771 278.16 196.546C280.781 195.569 283.527 193.795 285.606 191.929C286.165 191.427 286.816 190.956 287.306 190.389C287.377 190.306 287.73 189.772 287.89 189.841C288.026 189.899 287.99 190.414 287.993 190.526C288.017 191.253 287.87 191.955 287.712 192.66C287.332 194.356 288.051 195.145 289.553 195.926" stroke="#242630" stroke-width="2" stroke-miterlimit="1.5" stroke-linecap="round" stroke-linejoin="round"/>
<path d="M282.52 194.977C283.527 195.986 284.474 196.993 285.532 197.955C284.901 197.359 284.282 196.75 283.65 196.155" stroke="#242630" stroke-width="2" stroke-miterlimit="1.5" stroke-linecap="round" stroke-linejoin="round"/>
</g>
<path fill-rule="evenodd" clip-rule="evenodd" d="M186.606 261.621C188.505 261.247 190.4 260.843 192.277 260.438C195.395 259.809 198.524 259.364 201.045 258.726C204.222 258.079 207.383 257.369 210.505 256.535C213.587 255.711 217.958 255.12 220.361 252.787C227.097 246.247 230.131 233.72 231.494 224.537C231.967 221.35 231.217 216.794 232.63 213.797C234.495 209.839 239.824 209.004 242.804 206.101C246.72 202.287 249.808 197.19 254.309 194.022C256.608 192.404 259.462 192.807 261.719 191.299C265.604 188.703 267.535 186.066 272.308 184.694C276.688 183.435 281.228 182.79 285.654 181.712C287.743 181.203 290.136 180.076 292.262 180.999C296.5 182.841 297.43 188.553 299.198 192.31C300.709 192.323 302.534 191.116 303.653 190.511C306.846 188.783 310.14 185.896 313.671 185.064C317.162 184.241 317.542 188.366 316.976 190.843C316.287 193.857 313.562 195.339 311.128 196.895C310.624 197.217 309.037 197.489 309.563 197.772C311.123 198.612 312.585 198.286 314.242 198.069C316.876 197.724 319.628 197.327 322.289 197.393C324.189 197.441 325.166 198.345 324.199 200.213C323.996 200.605 323.758 200.977 323.506 201.339C323.135 201.875 322.635 202.306 322.143 202.726C321.327 203.421 320.454 204.033 319.473 204.473C311.394 208.092 301.388 204.477 294.284 210.895C288.936 215.725 284.368 221.195 280.998 227.579C275.334 238.305 272.061 250.464 263.515 259.415C249.655 273.929 229.064 278.133 211.263 285.755C203.855 288.927 194.233 293.588 188.836 285.1C185.529 279.901 181.663 275.023 178.886 269.5C178.122 267.981 176.447 264.972 177.819 263.353C178.41 262.656 181.052 262.608 181.958 262.461C183.505 262.211 185.057 261.926 186.606 261.621Z" stroke="#242630" stroke-width="2" stroke-miterlimit="1.5" stroke-linecap="round" stroke-linejoin="round"/>
<path fill-rule="evenodd" clip-rule="evenodd" d="M164.029 263.721C163.973 263.505 163.917 263.288 163.862 263.071C163.869 263.053 163.883 263.041 163.905 263.039C168.392 262.597 172.878 262.126 177.338 261.46C180.993 260.913 184.562 259.861 188.245 259.497C189.621 259.361 191.489 259.091 192.823 259.549C195.008 260.298 195.851 263.452 197.108 265.244C203.646 274.566 207.089 285.704 211.245 296.198C212.222 298.665 213.198 301.147 213.968 303.689C214.177 304.383 214.975 306.082 214.405 306.714C212.622 308.691 208.204 308.566 205.718 309.427C202.526 310.532 199.278 311.617 195.906 312.005C182.376 313.559 178.038 299.203 173.427 289.392C171.308 284.885 169.459 280.263 167.801 275.57C166.4 271.65 165.085 267.745 164.029 263.721Z" fill="white" stroke="#242630" stroke-width="2" stroke-miterlimit="1.5" stroke-linecap="round" stroke-linejoin="round"/>
<path fill-rule="evenodd" clip-rule="evenodd" d="M79.2864 270.291C111.048 266.17 142.919 262.978 174.649 258.589C176.321 258.358 177.998 258.154 179.681 258.015C180.035 257.986 180.528 257.873 180.959 257.889C182.748 261.809 184.448 265.802 186.317 269.689C187.958 273.102 189.522 276.538 191.167 279.982C196.607 291.373 202.191 302.925 205.883 315.023C207.274 319.58 209.093 324.389 209.332 329.178C207.555 329.762 205.476 329.958 204.101 330.186C193.182 331.995 182.161 333.047 171.189 334.464C163.905 335.405 156.68 336.691 149.417 337.776C144.625 338.491 139.783 338.878 134.998 339.598C131.399 340.141 127.966 341.084 124.363 339.916C123.616 339.674 123.015 338.288 122.616 337.673C119.276 332.519 114.502 327.752 109.008 324.93C104.93 322.836 100.297 322.068 96.7244 319.003C90.9134 314.019 99.0124 307.176 102.085 303.309C103.483 301.549 105.089 299.556 103.834 297.313C102.543 295.007 99.5174 293.929 97.1984 293.015C90.5904 290.409 82.7354 287.37 79.1234 280.797C77.3134 277.504 76.5194 273.309 79.2864 270.291Z" fill="#C1EDFC" stroke="#242630" stroke-width="2" stroke-miterlimit="1.5" stroke-linecap="round" stroke-linejoin="round"/>
</g>
<defs>
<clipPath id="clip0_392_65">
<rect width="498" height="464" fill="white"/>
</clipPath>
</defs>
</svg>
