<svg width="335" height="509" viewBox="0 0 335 509" fill="none" xmlns="http://www.w3.org/2000/svg"><path fill-rule="evenodd" clip-rule="evenodd" d="M80.73 420.847c4.249-17.387 7.913-34.874 12.756-52.129-1.671-7.369-7.047-13.706-9.652-20.718-4.068-10.954-6.638-22.597-9.97-33.795-2.551-8.582-6.145-17.082-8.12-25.802-1.46-6.448-2.12-12.984-1.488-19.645.909-9.609 5.245-16.019 11.096-23.283 6.663-8.273 18.744-10.122 24.83-18.904 3.286-4.743 2.519-11.996 2.568-17.467.111-12.47.295-24.947.364-37.407.177-31.838-2.938-63.545-4.498-95.31-.54-10.997-2.525-22.322-1.028-33.295.919-6.734 3.522-12.66 10.562-14.447 6.864-1.743 12.373 2.281 16.09 7.765 8.803 12.991 9.592 29.028 12.135 44.023 3.533 20.833 8.259 41.458 14.205 61.735 3.395 11.579 4.022 23.901 11.823 33.747 3.322 4.192 8.534 4.218 11.31-.59 3.693-6.398 4.25-14.91 5.819-22.005 2.7-12.203 9.989-22.625 13.411-34.591 5.932-20.743 8.319-42.363 15.242-62.843 2.771-8.199 3.939-18.333 10.59-24.538 1.547-1.443 3.362-2.449 5.307-3.26 1.528-.637 3.132-1.134 4.78-1.329 11.429-1.35 13.119 13.638 13.168 21.784.011 1.7-.043 3.402-.156 5.1-.544 8.23-2.41 16.364-3.21 24.586-.714 7.328-1.166 14.7-2.659 21.921-1.936 9.371-5.091 18.449-6.878 27.853-1.782 9.378-1.862 18.979-3.472 28.382-1.919 11.203-6.69 22.113-5.407 33.674.119 1.075 5.451 6.118 6.381 5.58 3.17-1.835 4.986-5.315 7.279-8.042 3.692-4.392 8.184-8.768 13.428-11.242 9.671-4.561 20.639 5.781 25.154 13.556 1.586 2.729 2.479 5.582 2.201 8.755-.884 10.073-10.622 17.044-10.599 27.316.014 6.505 10.403 6.987 13.603 11.418 1.519 2.103 2.821 4.42 3.749 6.844 3.417 8.919-.919 19.067-8.403 24.512-5.029 3.659-11.482 5.815-15.413 10.839-3.72 4.753-4.573 11.334-7.339 16.64-7.296 14-15.121 27.761-20.539 42.639-4.103 11.266-3.458 23.933-8.271 34.855-1.79 4.063-3.862 8.868-7.05 12.048-3.111 3.102-7.98 5.197-9.617 9.534-1.72 4.556-1.696 10.093-2.108 14.882-1.484 17.228-4.705 34.306-8.369 51.193-1.524 7.026-4.077 15.151-12.94 13.335-10.675-2.187-20.749-12.332-27.249-20.61-5.256-6.692-9.516-13.605-17.564-17.291-12.445-5.702-27.155-1.131-40.291-1.948-4.058-.253-9.885.096-13.307-2.475-1.713-1.287-2.776-3.81-3.466-5.762-.103-.293-.124-.833-.097-1.475.319-.921.629-1.846.932-2.774l.377-1.539Z" fill="#FFE38C"/><mask id="a" style="mask-type:luminance" maskUnits="userSpaceOnUse" x="64" y="26" width="219" height="449"><path d="M80.73 420.847c4.249-17.387 7.913-34.874 12.756-52.129-1.671-7.369-7.047-13.706-9.652-20.718-4.068-10.954-6.638-22.597-9.97-33.795-2.551-8.582-6.145-17.082-8.12-25.802-1.46-6.448-2.12-12.984-1.488-19.645.909-9.609 5.245-16.019 11.096-23.283 6.663-8.273 18.744-10.122 24.83-18.904 3.286-4.743 2.519-11.996 2.568-17.467.111-12.47.295-24.947.364-37.407.177-31.838-2.938-63.545-4.498-95.31-.54-10.997-2.525-22.322-1.028-33.295.919-6.734 3.522-12.66 10.562-14.447 6.864-1.743 12.373 2.281 16.09 7.765 8.803 12.991 9.592 29.028 12.135 44.023 3.533 20.833 8.259 41.458 14.205 61.735 3.395 11.579 4.022 23.901 11.823 33.747 3.322 4.192 8.534 4.218 11.31-.59 3.693-6.398 4.25-14.91 5.819-22.005 2.7-12.203 9.989-22.625 13.411-34.591 5.932-20.743 8.319-42.363 15.242-62.843 2.771-8.199 3.939-18.333 10.59-24.538 1.547-1.443 3.362-2.449 5.307-3.26 1.528-.637 3.132-1.134 4.78-1.329 11.429-1.35 13.119 13.638 13.168 21.784.011 1.7-.043 3.402-.156 5.1-.544 8.23-2.41 16.364-3.21 24.586-.714 7.328-1.166 14.7-2.659 21.921-1.936 9.371-5.091 18.449-6.878 27.853-1.782 9.378-1.862 18.979-3.472 28.382-1.919 11.203-6.69 22.113-5.407 33.674.119 1.075 5.451 6.118 6.381 5.58 3.17-1.835 4.986-5.315 7.279-8.042 3.692-4.392 8.184-8.768 13.428-11.242 9.671-4.561 20.639 5.781 25.154 13.556 1.586 2.729 2.479 5.582 2.201 8.755-.884 10.073-10.622 17.044-10.599 27.316.014 6.505 10.403 6.987 13.603 11.418 1.519 2.103 2.821 4.42 3.749 6.844 3.417 8.919-.919 19.067-8.403 24.512-5.029 3.659-11.482 5.815-15.413 10.839-3.72 4.753-4.573 11.334-7.339 16.64-7.296 14-15.121 27.761-20.539 42.639-4.103 11.266-3.458 23.933-8.271 34.855-1.79 4.063-3.862 8.868-7.05 12.048-3.111 3.102-7.98 5.197-9.617 9.534-1.72 4.556-1.696 10.093-2.108 14.882-1.484 17.228-4.705 34.306-8.369 51.193-1.524 7.026-4.077 15.151-12.94 13.335-10.675-2.187-20.749-12.332-27.249-20.61-5.256-6.692-9.516-13.605-17.564-17.291-12.445-5.702-27.155-1.131-40.291-1.948-4.058-.253-9.885.096-13.307-2.475-1.713-1.287-2.776-3.81-3.466-5.762-.103-.293-.124-.833-.097-1.475.319-.921.629-1.846.932-2.774l.377-1.539Z" fill="#fff"/></mask><g mask="url(#a)" stroke="#242630" stroke-width="2" stroke-miterlimit="1.5" stroke-linecap="round" stroke-linejoin="round"><path d="M138.99 270.519c3.931-3.676 11.717-9.945 12.642-15.972.377-2.459-.441-5.335-1.526-7.499a12.633 12.633 0 0 0-1.095-1.789c-.312-.426-1.487-1.385-.978-1.245 3.699 1.022 6.682 5.561 10.414 7.115 5.583 2.324 11.805 2.272 17.718 2.966 10.067 1.182 21.964-.552 31.001-5.215 8.227-4.245 9.497-11.335 3.527-18.422-8.939-10.613-24.603-10.69-35.909-17.524-7.746-4.682-16.438-16.697-26.271-16.721-20.679-.051-36.947 22.544-52.338 33.568"/><path d="M138.279 226.639c.299 6.659 1.635 13.225 5.696 18.715 1.971 2.665 4.64 4.926 6.978 7.277M145.061 229.693c.392 6.748 1.374 12.271 5.007 18.013M104.389 268.056c10.275 4.783 22.151 8.487 33.054 3.354M103.967 281.486c10.67 1.766 22.787 1.9 30.957-6.407M156.765 256.171c9.508 13.191 9.322 35.643 1.376 49.83M159.893 252.039c18.52 22.709 26.432 53.38 20.437 81.984M89.736 356.876c9.074 9.723 21.705 14.564 34.846 16.549M139.041 374.743c8.536 2.176 18.529 4.543 26.589 8.182 8.328 3.76 13.298 9.83 22.975 10.273M178.25 348.98c4.126 5.11 7.825 9.987 9.727 16.327M185.004 332.043c2.758 3.637 4.886 6.99 6.9 11.046M148.478 260.286c1.565 12.324-6.928 20.343-15.644 27.754M246.371 242.854c-7.344 4.661-13.687 11.062-20.279 16.674-7.623 6.489-15.49 12.68-23.1 19.173-5.235 4.467-13.812 10.64-11.059 17.483 3.609 8.974 12.596 11.949 21.326 8.701 6.129-2.281 11.961-6.691 17.791-9.664 11.411-5.816 22.755-11.203 32.541-19.671M187.742 253.581c-3.441 5.604-8.199 11.816-5.974 17.98 2.245 6.221 7.124 13.094 14.751 11.611M206.934 225.968c3.69-4.074 8.478-8.112 11.477-12.75 5.042-7.798 7.552-16.044 14.304-22.936M250.563 237.429c8.634-8.678 16.343-18.094 22.473-28.735"/><path d="M207.892 279.706c2.823 2.633 9.811 8.917 7.348 13.57-.816 1.542-2.181 2.848-3.469 3.989-1.348 1.194-2.876 2.152-4.464 2.99-2.667 1.408-5.534 2.518-8.34 3.618M197.944 253.49c1.567.608 1.415.612 3.535 1.646 1.673.817 9.119 4.757 8.894 7.831-.225 3.07-2.739 6.614-4.406 9.091-1.646 2.444-3.72 4.385-5.941 6.292M180.48 216.455c-1.909 2.435-3.859 4.734-5.885 7.067-.068.078-2.736 2.936-2.652 3.347.835 4.063 5.041 6.587 8.408 8.446 4.916 2.715 9.671 3.338 15.182 2.961.972-.067 4.517.249 5.382-.384 1.71-1.252 3.322-2.942 4.563-4.666M254.495 181.314c4.567 2.115 9.334 4.664 13.156 8.021M274.321 255.131c-1.158 6.57-2.806 11.077-7.334 15.927M262.978 238.205c2.489 2.757 5.112 5.493 7.414 8.414M234.4 265.559c1.885 1.457 3.421 2.917 4.816 4.863M225.776 229.344c3.509 3.584 7.117 6.821 10.226 10.749M193.603 129.281c10.444 5.027 20.966 10.329 33.002 9.897M198.673 123.993c7.938 1.7 14.657 4.516 21.707 8.382M212.103 76.248c6.464 3.431 14.268 6.717 21.723 6.305M220.461 74.745c4.254.437 8.5.984 12.735 1.572M112.276 134.014c10.003 2.774 20.905 1.08 29.944-4.105M119.185 127.664c7.247-2.152 14.661-4.909 22.204-5.922M104.807 88.571c9.354-.97 18.051-3.875 27.117-6.062M178.714 195.113c4.365 8.019 9.101 15.475 14.434 22.851M191.856 207.689c5.105 5.082 10.514 10.66 17.23 13.636M103.836 223.059c3.941-11.032 9.57-21.171 14.219-31.9M103.869 212.056c1.709-8.84 3.124-17.626 5.22-26.366M167.624 178.24c3.75.582 7.381 1.734 11.154 2.138M183.09 176.307c8.26 6.083 18.958 11.636 29.469 7.681M122.08 180.729c9.283.398 18.758-3.134 26.205-8.587M144.2 181.393c1.838-.887 3.618-1.738 5.523-2.45"/></g><path clip-rule="evenodd" d="M80.73 420.847c4.249-17.387 7.913-34.874 12.756-52.129-1.671-7.369-7.047-13.706-9.652-20.718-4.068-10.954-6.638-22.597-9.97-33.795-2.551-8.582-6.145-17.082-8.12-25.802-1.46-6.448-2.12-12.984-1.488-19.645.909-9.609 5.245-16.019 11.096-23.283 6.663-8.273 18.744-10.122 24.83-18.904 3.286-4.743 2.519-11.996 2.568-17.467.111-12.47.295-24.947.364-37.407.177-31.838-2.938-63.545-4.498-95.31-.54-10.997-2.525-22.322-1.028-33.295.919-6.734 3.522-12.66 10.562-14.447 6.864-1.743 12.373 2.281 16.09 7.765 8.803 12.991 9.592 29.028 12.135 44.023 3.533 20.833 8.259 41.458 14.205 61.735 3.395 11.579 4.022 23.901 11.823 33.747 3.322 4.192 8.534 4.218 11.31-.59 3.693-6.398 4.25-14.91 5.819-22.005 2.7-12.203 9.989-22.625 13.411-34.591 5.932-20.743 8.319-42.363 15.242-62.843 2.771-8.199 3.939-18.333 10.59-24.538 1.547-1.443 3.362-2.449 5.307-3.26 1.528-.637 3.132-1.134 4.78-1.329 11.429-1.35 13.119 13.638 13.168 21.784.011 1.7-.043 3.402-.156 5.1-.544 8.23-2.41 16.364-3.21 24.586-.714 7.328-1.166 14.7-2.659 21.921-1.936 9.371-5.091 18.449-6.878 27.853-1.782 9.378-1.862 18.979-3.472 28.382-1.919 11.203-6.69 22.113-5.407 33.674.119 1.075 5.451 6.118 6.381 5.58 3.17-1.835 4.986-5.315 7.279-8.042 3.692-4.392 8.184-8.768 13.428-11.242 9.671-4.561 20.639 5.781 25.154 13.556 1.586 2.729 2.479 5.582 2.201 8.755-.884 10.073-10.622 17.044-10.599 27.316.014 6.505 10.403 6.987 13.603 11.418 1.519 2.103 2.821 4.42 3.749 6.844 3.417 8.919-.919 19.067-8.403 24.512-5.029 3.659-11.482 5.815-15.413 10.839-3.72 4.753-4.573 11.334-7.339 16.64-7.296 14-15.121 27.761-20.539 42.639-4.103 11.266-3.458 23.933-8.271 34.855-1.79 4.063-3.862 8.868-7.05 12.048-3.111 3.102-7.98 5.197-9.617 9.534-1.72 4.556-1.696 10.093-2.108 14.882-1.484 17.228-4.705 34.306-8.369 51.193-1.524 7.026-4.077 15.151-12.94 13.335-10.675-2.187-20.749-12.332-27.249-20.61-5.256-6.692-9.516-13.605-17.564-17.291-12.445-5.702-27.155-1.131-40.291-1.948-4.058-.253-9.885.096-13.307-2.475-1.713-1.287-2.776-3.81-3.466-5.762-.103-.293-.124-.833-.097-1.475.319-.921.629-1.846.932-2.774l.377-1.539Z" stroke="#242630" stroke-width="2" stroke-miterlimit="1.5" stroke-linecap="round" stroke-linejoin="round"/></svg>