<?xml version="1.0" encoding="UTF-8" standalone="no"?><!DOCTYPE svg PUBLIC "-//W3C//DTD SVG 1.1//EN" "http://www.w3.org/Graphics/SVG/1.1/DTD/svg11.dtd"><svg width="100%" height="100%" viewBox="0 0 494 476" version="1.1" xmlns="http://www.w3.org/2000/svg" xmlns:xlink="http://www.w3.org/1999/xlink" xml:space="preserve" xmlns:serif="http://www.serif.com/" style="fill-rule:evenodd;clip-rule:evenodd;stroke-linecap:round;stroke-linejoin:round;stroke-miterlimit:1.5;"><g><path d="M74.01,78.192c-0.389,0.683 -0.787,1.362 -1.169,2.05c-20.933,37.645 -25.502,81.027 -34.963,122.352c-10.668,46.602 -36.93,90.623 -37.849,139.28c-0.42,22.213 3.612,46.856 19.629,63.447c22.917,23.74 61.044,25.148 91.499,30.653c31.424,5.68 60.675,17.115 89.628,30.318c48.43,22.087 110.121,0.78 144.162,-36.874c19.847,-21.953 32.274,-50.527 56.415,-68.514c31.275,-23.303 86.874,-5.402 92.049,-58.151c0.803,-8.184 0.611,-16.45 -0.472,-24.582c-4.822,-36.206 -23.734,-68.845 -28.108,-105.115c-4.671,-38.736 11.25,-86.638 -18.404,-118.306c-28.677,-30.623 -73.765,-30.639 -112.497,-35.294c-33.931,-4.077 -67.258,-12.441 -101.214,-16.672c-40.484,-5.045 -79.57,-5.532 -114.521,18.656c-20.372,14.58 -32.052,35.469 -44.185,56.752" style="fill:#fff;"/><g id="Layer3"><path d="M188.47,80.002c2,-8.748 9.579,-16.06 19.205,-17.232c12.98,-1.581 26.359,0.967 38.907,4.154c10.977,2.788 21.733,6.748 31.526,12.488c51.839,30.386 46.765,98.093 48.191,149.997c0.307,11.177 0.796,22.349 1.772,33.489c0.594,6.786 1.893,14.641 6.71,19.826c8.114,8.734 23.306,5.671 33.884,7.858c6.883,1.424 12.902,5.105 18.899,8.592c6.094,3.544 12.583,6.39 19.023,9.237c1.274,0.563 6.565,1.915 6.988,3.066c0.338,0.92 -1.949,-0.226 -2.911,-0.415c-1.657,-0.326 -3.305,-0.702 -4.948,-1.09c-10.085,-2.381 -19.662,-5.572 -29.585,-0.698c-9.761,4.795 -19.449,19.08 -31.69,14.313c-8.907,-3.469 -13.574,-13.974 -17.349,-22.048c-1.045,-2.234 -1.87,-4.464 -2.269,-6.903c-0.046,-0.276 -0.127,-2.147 -0.454,-2.361c-0.812,-0.53 -0.24,1.927 -0.306,2.895c-0.141,2.07 -0.213,4.145 -0.23,6.22c-0.052,6.427 0.403,12.849 1.076,19.237c2.166,20.549 6.505,40.914 6.616,61.65c0.027,4.884 -0.15,9.864 -1.228,14.646c-0.144,0.641 -0.801,4.396 -1.576,4.506c-0.533,0.075 -1.136,-1.774 -1.278,-2.078c-1.234,-2.659 -3.253,-5.022 -4.84,-7.485c-6.895,-10.695 -7.535,-23.874 -9.832,-36.04c-0.774,-4.098 -1.906,-8.078 -2.918,-12.118c-0.328,-1.313 -0.524,-2.629 -0.72,-3.968c-0.01,-0.069 -0.375,-1.715 -0.384,-1.704c-0.873,1.163 -0.544,4.837 -0.617,6.274c-0.328,6.502 0.319,12.858 1.148,19.294c0.299,2.315 0.312,4.648 0.576,6.96c0.093,0.816 0.25,1.624 0.375,2.436c0.067,0.439 0.509,1.45 0.082,1.329c-0.836,-0.236 -2.033,-4.052 -2.379,-4.858c-2.182,-5.094 -3.706,-10.432 -5.06,-15.796c-4.176,-16.538 -8.167,-32.129 -23.577,-41.744c-11.034,-6.885 -24.958,-7.898 -33.455,-18.54c-8.388,-10.504 -9.5,-25.487 -12.952,-38.006c-7.404,-26.844 -19.959,-51.972 -27.995,-78.539c-3.638,-12.028 -4.762,-24.805 -8.14,-36.881c-2.479,-8.863 -6.699,-38.62 -8.625,-52.73c-0.33,-2.454 -0.194,-4.895 0.34,-7.233" style="fill:#c1edfc;"/><clipPath id="_clip1"><path d="M188.47,80.002c2,-8.748 9.579,-16.06 19.205,-17.232c12.98,-1.581 26.359,0.967 38.907,4.154c10.977,2.788 21.733,6.748 31.526,12.488c51.839,30.386 46.765,98.093 48.191,149.997c0.307,11.177 0.796,22.349 1.772,33.489c0.594,6.786 1.893,14.641 6.71,19.826c8.114,8.734 23.306,5.671 33.884,7.858c6.883,1.424 12.902,5.105 18.899,8.592c6.094,3.544 12.583,6.39 19.023,9.237c1.274,0.563 6.565,1.915 6.988,3.066c0.338,0.92 -1.949,-0.226 -2.911,-0.415c-1.657,-0.326 -3.305,-0.702 -4.948,-1.09c-10.085,-2.381 -19.662,-5.572 -29.585,-0.698c-9.761,4.795 -19.449,19.08 -31.69,14.313c-8.907,-3.469 -13.574,-13.974 -17.349,-22.048c-1.045,-2.234 -1.87,-4.464 -2.269,-6.903c-0.046,-0.276 -0.127,-2.147 -0.454,-2.361c-0.812,-0.53 -0.24,1.927 -0.306,2.895c-0.141,2.07 -0.213,4.145 -0.23,6.22c-0.052,6.427 0.403,12.849 1.076,19.237c2.166,20.549 6.505,40.914 6.616,61.65c0.027,4.884 -0.15,9.864 -1.228,14.646c-0.144,0.641 -0.801,4.396 -1.576,4.506c-0.533,0.075 -1.136,-1.774 -1.278,-2.078c-1.234,-2.659 -3.253,-5.022 -4.84,-7.485c-6.895,-10.695 -7.535,-23.874 -9.832,-36.04c-0.774,-4.098 -1.906,-8.078 -2.918,-12.118c-0.328,-1.313 -0.524,-2.629 -0.72,-3.968c-0.01,-0.069 -0.375,-1.715 -0.384,-1.704c-0.873,1.163 -0.544,4.837 -0.617,6.274c-0.328,6.502 0.319,12.858 1.148,19.294c0.299,2.315 0.312,4.648 0.576,6.96c0.093,0.816 0.25,1.624 0.375,2.436c0.067,0.439 0.509,1.45 0.082,1.329c-0.836,-0.236 -2.033,-4.052 -2.379,-4.858c-2.182,-5.094 -3.706,-10.432 -5.06,-15.796c-4.176,-16.538 -8.167,-32.129 -23.577,-41.744c-11.034,-6.885 -24.958,-7.898 -33.455,-18.54c-8.388,-10.504 -9.5,-25.487 -12.952,-38.006c-7.404,-26.844 -19.959,-51.972 -27.995,-78.539c-3.638,-12.028 -4.762,-24.805 -8.14,-36.881c-2.479,-8.863 -6.699,-38.62 -8.625,-52.73c-0.33,-2.454 -0.194,-4.895 0.34,-7.233"/></clipPath><g clip-path="url(#_clip1)"><path d="M299.526,233.238c-3.138,60.721 -1.97,120.612 5.012,180.99" style="fill:none;stroke:#242630;stroke-width:2px;"/><path d="M285.516,205.669c4.507,62.69 7.469,125.502 11.899,188.193" style="fill:none;stroke:#242630;stroke-width:2px;"/><path d="M298.754,231.182c-0.506,61.38 4.131,124.146 15.711,184.539" style="fill:none;stroke:#242630;stroke-width:2px;"/><path d="M306.405,219.029c2.094,72.08 8.793,144.289 25.252,214.59" style="fill:none;stroke:#242630;stroke-width:2px;"/><path d="M283.822,257.21c0.871,43.147 7.604,85.099 13.086,127.792" style="fill:none;stroke:#242630;stroke-width:2px;"/><path d="M276.802,227.914c2.095,41.499 4.769,82.85 9.02,124.191c1.449,14.091 8.12,31.879 7.397,45.646" style="fill:none;stroke:#242630;stroke-width:2px;"/><path d="M317.617,163.71c0.235,35.392 4.717,70.043 8.372,105.151c2.925,28.09 4.827,56.242 9.34,84.157" style="fill:none;stroke:#242630;stroke-width:2px;"/><path d="M307.468,152.365c8.743,72.186 17.461,144.219 27.496,216.219" style="fill:none;stroke:#242630;stroke-width:2px;"/><path d="M326.355,271.914c1.691,7.183 3.624,14.279 5.766,21.341c1.535,5.06 3.227,10.036 5.282,14.91c0.857,2.032 1.908,4.039 3.102,5.896c9.417,14.649 24.151,-0.793 36.034,-3.595c7.577,-1.786 15.758,0.996 21.718,5.644" style="fill:none;stroke:#242630;stroke-width:2px;"/><path d="M328.46,233.024c-0.251,11.188 -0.248,21.847 1.557,32.878c1.083,6.616 3.17,13.118 5.299,19.462c1.435,4.275 2.896,8.544 4.399,12.796c1.016,2.875 2.261,5.558 4.007,8.077c1.004,1.448 2.039,2.911 3.286,4.164c10.741,10.795 17.583,-13.625 25.204,-15.514c9.966,-2.47 18.989,5.053 27.594,8.747" style="fill:none;stroke:#242630;stroke-width:2px;"/><path d="M370.623,284.485c-1.192,2.463 -2.439,4.812 -3.784,7.191c-1.135,2.009 -1.333,2.472 -2.58,4.295c-3.396,4.961 -9.688,15.069 -17.042,13.639" style="fill:none;stroke:#242630;stroke-width:2px;"/><path d="M362.166,272.742c-0.702,7.705 -2.09,15.432 -4.495,22.807c-1.42,4.356 -4.064,9.662 -8.3,12.028" style="fill:none;stroke:#242630;stroke-width:2px;"/><path d="M355.044,264.357c-0.222,10.387 -1.322,20.537 -4.102,30.582c-1.341,4.842 -1.857,9.676 -5.73,13.128" style="fill:none;stroke:#242630;stroke-width:2px;"/></g><path d="M188.47,80.002c2,-8.748 9.579,-16.06 19.205,-17.232c12.98,-1.581 26.359,0.967 38.907,4.154c10.977,2.788 21.733,6.748 31.526,12.488c51.839,30.386 46.765,98.093 48.191,149.997c0.307,11.177 0.796,22.349 1.772,33.489c0.594,6.786 1.893,14.641 6.71,19.826c8.114,8.734 23.306,5.671 33.884,7.858c6.883,1.424 12.902,5.105 18.899,8.592c6.094,3.544 12.583,6.39 19.023,9.237c1.274,0.563 6.565,1.915 6.988,3.066c0.338,0.92 -1.949,-0.226 -2.911,-0.415c-1.657,-0.326 -3.305,-0.702 -4.948,-1.09c-10.085,-2.381 -19.662,-5.572 -29.585,-0.698c-9.761,4.795 -19.449,19.08 -31.69,14.313c-8.907,-3.469 -13.574,-13.974 -17.349,-22.048c-1.045,-2.234 -1.87,-4.464 -2.269,-6.903c-0.046,-0.276 -0.127,-2.147 -0.454,-2.361c-0.812,-0.53 -0.24,1.927 -0.306,2.895c-0.141,2.07 -0.213,4.145 -0.23,6.22c-0.052,6.427 0.403,12.849 1.076,19.237c2.166,20.549 6.505,40.914 6.616,61.65c0.027,4.884 -0.15,9.864 -1.228,14.646c-0.144,0.641 -0.801,4.396 -1.576,4.506c-0.533,0.075 -1.136,-1.774 -1.278,-2.078c-1.234,-2.659 -3.253,-5.022 -4.84,-7.485c-6.895,-10.695 -7.535,-23.874 -9.832,-36.04c-0.774,-4.098 -1.906,-8.078 -2.918,-12.118c-0.328,-1.313 -0.524,-2.629 -0.72,-3.968c-0.01,-0.069 -0.375,-1.715 -0.384,-1.704c-0.873,1.163 -0.544,4.837 -0.617,6.274c-0.328,6.502 0.319,12.858 1.148,19.294c0.299,2.315 0.312,4.648 0.576,6.96c0.093,0.816 0.25,1.624 0.375,2.436c0.067,0.439 0.509,1.45 0.082,1.329c-0.836,-0.236 -2.033,-4.052 -2.379,-4.858c-2.182,-5.094 -3.706,-10.432 -5.06,-15.796c-4.176,-16.538 -8.167,-32.129 -23.577,-41.744c-11.034,-6.885 -24.958,-7.898 -33.455,-18.54c-8.388,-10.504 -9.5,-25.487 -12.952,-38.006c-7.404,-26.844 -19.959,-51.972 -27.995,-78.539c-3.638,-12.028 -4.762,-24.805 -8.14,-36.881c-2.479,-8.863 -6.699,-38.62 -8.625,-52.73c-0.33,-2.454 -0.194,-4.895 0.34,-7.233" style="fill:none;stroke:#242630;stroke-width:2px;"/><path d="M276.779,273.49c0.002,9.436 1.021,18.706 1.787,28.096c0.403,4.952 1.653,10.19 -1.965,14.354c-4.611,5.307 -13.324,6.406 -19.822,7.429c-13.532,2.128 -26.198,0.802 -39.597,-1.096c-6.533,-0.925 -13.284,-1.421 -19.275,-4.373c-4.051,-1.997 -11.218,-4.165 -13.357,-8.424c-4.786,-9.527 -1.982,-22.36 -1.841,-32.542c0.132,-9.579 -0.214,-18.985 0.919,-28.527c0.52,-4.379 0.592,-9.67 4.319,-12.714c2.911,-2.379 8.029,-1.878 11.545,-1.926c2.616,-0.035 4.93,0.645 7.395,1.446c3.586,1.167 6.982,2.929 10.086,5.073c3.104,2.144 59.806,33.204 59.806,33.204Z" style="fill:#ffe38c;stroke:#242630;stroke-width:2px;"/><path d="M265.701,99.843c-3.176,-9.261 -13.352,-18.085 -20.827,-21.78c-19.021,-9.403 -44.107,-20.097 -65.488,-9.291c-42.889,21.676 -51.041,54.99 -58.153,99.844c-2.153,9.88 -4.182,20.053 -6.836,30.691c-8.168,32.734 -14.847,65.598 -22.32,98.47c-2.955,12.995 -9.411,27.231 -10.365,40.467c-0.078,1.084 6.443,3.02 7.19,3.285c9.959,3.523 18.865,9.585 28.721,13.383c3.573,1.377 7.197,2.646 10.933,3.509c12.866,2.971 20.868,-2.348 28.142,-12.59c2.056,-2.894 4.154,-8.035 6.916,-10.175c0.276,-0.215 0.019,0.699 0.027,1.049c0.022,0.932 0.037,1.864 0.043,2.797c0.015,2.539 -0.058,5.08 -0.14,7.618c-0.271,8.386 -2.027,17.439 -10.157,21.745c-10.459,5.539 -22.337,-3.672 -31.93,-7.205c-2.851,-1.051 -5.722,-2.105 -8.66,-2.888c-0.475,-0.126 -2.759,-0.944 -3.18,-0.351c-0.592,0.833 2.725,1.251 3.214,1.467c2.457,1.083 4.711,2.865 6.856,4.452c9.269,6.86 20.33,15.273 32.513,12.118c7.925,-2.053 14.478,-9.817 17.037,-17.432c1,-2.977 1.5,-6.166 2.167,-9.229c0.046,-0.21 0.441,-2.821 0.684,-2.851c0.309,-0.039 0.571,3.381 0.592,3.599c0.404,4.182 0.646,8.381 0.902,12.575c0.653,10.704 2.354,21.388 5.18,31.741c1.469,5.38 3.096,10.755 5.067,15.973c0.437,1.155 1.411,5.051 2.865,5.469c0.613,0.177 0.165,-2.936 0.142,-3.302c-0.521,-8.113 -2.027,-16.12 -2.631,-24.225c-0.207,-2.776 -0.304,-5.562 -0.212,-8.346c0.023,-0.699 0.058,-1.398 0.106,-2.096c0.036,-0.527 -0.093,-2.013 0.197,-1.572c1.142,1.737 1.329,5.686 1.988,7.792c3.772,12.048 4.369,26.526 14.459,35.369c1.537,1.347 3.322,2.837 4.538,4.485c0.229,0.309 0.883,1.751 1.367,1.728c0.409,-0.019 0.53,-1.873 0.56,-2.162c0.267,-2.529 0.066,-5.401 -0.637,-7.853c-0.088,-0.309 -1.3,-3.486 -0.83,-3.553c1.226,-0.174 2.984,3.07 3.441,3.882c2.678,4.756 3.779,10.248 6.523,14.961c0.757,1.3 2.315,4.959 3.715,5.574c0.11,0.049 -0.643,-3.063 -0.668,-3.148c-0.502,-1.675 -1.063,-3.341 -1.405,-5.059c-1.229,-6.169 -2.38,-12.361 -3.487,-18.553c-3.16,-17.667 -5.626,-35.437 -7.518,-53.283c-3.279,-30.924 -4.962,-61.987 -6.413,-93.042c-1.209,-25.876 -2.656,-52.37 4.669,-77.554c4.289,-14.746 13.182,-29.46 22.676,-42.902c6.314,-12.255 17.426,-19.072 28.494,-26.513c3.524,-2.37 11.34,-7.958 10.849,-12.988c-0.133,-1.366 -0.449,-2.738 -0.916,-4.1Z" style="fill:#c1edfc;"/><clipPath id="_clip2"><path d="M265.701,99.843c-3.176,-9.261 -13.352,-18.085 -20.827,-21.78c-19.021,-9.403 -44.107,-20.097 -65.488,-9.291c-42.889,21.676 -51.041,54.99 -58.153,99.844c-2.153,9.88 -4.182,20.053 -6.836,30.691c-8.168,32.734 -14.847,65.598 -22.32,98.47c-2.955,12.995 -9.411,27.231 -10.365,40.467c-0.078,1.084 6.443,3.02 7.19,3.285c9.959,3.523 18.865,9.585 28.721,13.383c3.573,1.377 7.197,2.646 10.933,3.509c12.866,2.971 20.868,-2.348 28.142,-12.59c2.056,-2.894 4.154,-8.035 6.916,-10.175c0.276,-0.215 0.019,0.699 0.027,1.049c0.022,0.932 0.037,1.864 0.043,2.797c0.015,2.539 -0.058,5.08 -0.14,7.618c-0.271,8.386 -2.027,17.439 -10.157,21.745c-10.459,5.539 -22.337,-3.672 -31.93,-7.205c-2.851,-1.051 -5.722,-2.105 -8.66,-2.888c-0.475,-0.126 -2.759,-0.944 -3.18,-0.351c-0.592,0.833 2.725,1.251 3.214,1.467c2.457,1.083 4.711,2.865 6.856,4.452c9.269,6.86 20.33,15.273 32.513,12.118c7.925,-2.053 14.478,-9.817 17.037,-17.432c1,-2.977 1.5,-6.166 2.167,-9.229c0.046,-0.21 0.441,-2.821 0.684,-2.851c0.309,-0.039 0.571,3.381 0.592,3.599c0.404,4.182 0.646,8.381 0.902,12.575c0.653,10.704 2.354,21.388 5.18,31.741c1.469,5.38 3.096,10.755 5.067,15.973c0.437,1.155 1.411,5.051 2.865,5.469c0.613,0.177 0.165,-2.936 0.142,-3.302c-0.521,-8.113 -2.027,-16.12 -2.631,-24.225c-0.207,-2.776 -0.304,-5.562 -0.212,-8.346c0.023,-0.699 0.058,-1.398 0.106,-2.096c0.036,-0.527 -0.093,-2.013 0.197,-1.572c1.142,1.737 1.329,5.686 1.988,7.792c3.772,12.048 4.369,26.526 14.459,35.369c1.537,1.347 3.322,2.837 4.538,4.485c0.229,0.309 0.883,1.751 1.367,1.728c0.409,-0.019 0.53,-1.873 0.56,-2.162c0.267,-2.529 0.066,-5.401 -0.637,-7.853c-0.088,-0.309 -1.3,-3.486 -0.83,-3.553c1.226,-0.174 2.984,3.07 3.441,3.882c2.678,4.756 3.779,10.248 6.523,14.961c0.757,1.3 2.315,4.959 3.715,5.574c0.11,0.049 -0.643,-3.063 -0.668,-3.148c-0.502,-1.675 -1.063,-3.341 -1.405,-5.059c-1.229,-6.169 -2.38,-12.361 -3.487,-18.553c-3.16,-17.667 -5.626,-35.437 -7.518,-53.283c-3.279,-30.924 -4.962,-61.987 -6.413,-93.042c-1.209,-25.876 -2.656,-52.37 4.669,-77.554c4.289,-14.746 13.182,-29.46 22.676,-42.902c6.314,-12.255 17.426,-19.072 28.494,-26.513c3.524,-2.37 11.34,-7.958 10.849,-12.988c-0.133,-1.366 -0.449,-2.738 -0.916,-4.1Z"/></clipPath><g clip-path="url(#_clip2)"><path d="M193.86,244.185c0.472,71.992 6.306,146.648 24.567,216.696" style="fill:none;stroke:#242630;stroke-width:2px;"/><path d="M186.922,250.305c3.054,72.875 5.382,146.519 20.432,218.069" style="fill:none;stroke:#242630;stroke-width:2px;"/><path d="M181.838,260.394c1.095,70.022 13.082,139.607 25.48,208.279" style="fill:none;stroke:#242630;stroke-width:2px;"/><path d="M177.095,132.155c-21.357,55.509 -17.93,133.612 -14.784,192.288" style="fill:none;stroke:#242630;stroke-width:2px;"/><path d="M128.223,163.193c-5.904,36.64 -9.667,73.692 -14.325,110.516c-3.194,25.254 -8.952,50.825 -10.745,76.148" style="fill:none;stroke:#242630;stroke-width:2px;"/><path d="M131.672,189.119c-3.786,28.754 -4.094,57.481 -6.384,86.348c-1.651,20.813 -4.305,41.851 -4.631,62.75" style="fill:none;stroke:#242630;stroke-width:2px;"/><path d="M142.649,131.048c-8.017,67.636 -14.123,135.3 -10.768,203.553" style="fill:none;stroke:#242630;stroke-width:2px;"/><path d="M143.263,194.867c-2.361,41.088 -3.586,82.573 -2.712,123.756" style="fill:none;stroke:#242630;stroke-width:2px;"/></g><path d="M265.701,99.843c-3.176,-9.261 -13.352,-18.085 -20.827,-21.78c-19.021,-9.403 -44.107,-20.097 -65.488,-9.291c-42.889,21.676 -51.041,54.99 -58.153,99.844c-2.153,9.88 -4.182,20.053 -6.836,30.691c-8.168,32.734 -14.847,65.598 -22.32,98.47c-2.955,12.995 -9.411,27.231 -10.365,40.467c-0.078,1.084 6.443,3.02 7.19,3.285c9.959,3.523 18.865,9.585 28.721,13.383c3.573,1.377 7.197,2.646 10.933,3.509c12.866,2.971 20.868,-2.348 28.142,-12.59c2.056,-2.894 4.154,-8.035 6.916,-10.175c0.276,-0.215 0.019,0.699 0.027,1.049c0.022,0.932 0.037,1.864 0.043,2.797c0.015,2.539 -0.058,5.08 -0.14,7.618c-0.271,8.386 -2.027,17.439 -10.157,21.745c-10.459,5.539 -22.337,-3.672 -31.93,-7.205c-2.851,-1.051 -5.722,-2.105 -8.66,-2.888c-0.475,-0.126 -2.759,-0.944 -3.18,-0.351c-0.592,0.833 2.725,1.251 3.214,1.467c2.457,1.083 4.711,2.865 6.856,4.452c9.269,6.86 20.33,15.273 32.513,12.118c7.925,-2.053 14.478,-9.817 17.037,-17.432c1,-2.977 1.5,-6.166 2.167,-9.229c0.046,-0.21 0.441,-2.821 0.684,-2.851c0.309,-0.039 0.571,3.381 0.592,3.599c0.404,4.182 0.646,8.381 0.902,12.575c0.653,10.704 2.354,21.388 5.18,31.741c1.469,5.38 3.096,10.755 5.067,15.973c0.437,1.155 1.411,5.051 2.865,5.469c0.613,0.177 0.165,-2.936 0.142,-3.302c-0.521,-8.113 -2.027,-16.12 -2.631,-24.225c-0.207,-2.776 -0.304,-5.562 -0.212,-8.346c0.023,-0.699 0.058,-1.398 0.106,-2.096c0.036,-0.527 -0.093,-2.013 0.197,-1.572c1.142,1.737 1.329,5.686 1.988,7.792c3.772,12.048 4.369,26.526 14.459,35.369c1.537,1.347 3.322,2.837 4.538,4.485c0.229,0.309 0.883,1.751 1.367,1.728c0.409,-0.019 0.53,-1.873 0.56,-2.162c0.267,-2.529 0.066,-5.401 -0.637,-7.853c-0.088,-0.309 -1.3,-3.486 -0.83,-3.553c1.226,-0.174 2.984,3.07 3.441,3.882c2.678,4.756 3.779,10.248 6.523,14.961c0.757,1.3 2.315,4.959 3.715,5.574c0.11,0.049 -0.643,-3.063 -0.668,-3.148c-0.502,-1.675 -1.063,-3.341 -1.405,-5.059c-1.229,-6.169 -2.38,-12.361 -3.487,-18.553c-3.16,-17.667 -5.626,-35.437 -7.518,-53.283c-3.279,-30.924 -4.962,-61.987 -6.413,-93.042c-1.209,-25.876 -2.656,-52.37 4.669,-77.554c4.289,-14.746 13.182,-29.46 22.676,-42.902c6.314,-12.255 17.426,-19.072 28.494,-26.513c3.524,-2.37 11.34,-7.958 10.849,-12.988c-0.133,-1.366 -0.449,-2.738 -0.916,-4.1Z" style="fill:none;stroke:#242630;stroke-width:2px;"/><path d="M195.249,245.264c0.146,0.47 0.302,0.935 0.469,1.396c2.471,6.842 6.944,12.745 11.565,18.241c3.129,3.721 5.972,7.1 9.951,9.996c6.332,4.997 13.916,9.01 20.618,13.032c17.145,7.92 37.535,7.733 50.898,-7.667c21.394,-24.653 30.822,-63.883 28.491,-95.844c-1.168,-16.02 -6.04,-32.429 -17.952,-43.784c-5.344,-5.093 -12.39,-7.421 -19.41,-9.199c-17.327,-4.391 -34.724,-4.201 -50.928,4.19c-16.342,8.462 -30.269,27.262 -35.276,44.838c-1.738,6.099 -1.35,21.757 -0.502,36.138c-0.031,9.09 -0.704,19.738 2.076,28.663" style="fill:#ffe38c;"/><clipPath id="_clip3"><path d="M195.249,245.264c0.146,0.47 0.302,0.935 0.469,1.396c2.471,6.842 6.944,12.745 11.565,18.241c3.129,3.721 5.972,7.1 9.951,9.996c6.332,4.997 13.916,9.01 20.618,13.032c17.145,7.92 37.535,7.733 50.898,-7.667c21.394,-24.653 30.822,-63.883 28.491,-95.844c-1.168,-16.02 -6.04,-32.429 -17.952,-43.784c-5.344,-5.093 -12.39,-7.421 -19.41,-9.199c-17.327,-4.391 -34.724,-4.201 -50.928,4.19c-16.342,8.462 -30.269,27.262 -35.276,44.838c-1.738,6.099 -1.35,21.757 -0.502,36.138c-0.031,9.09 -0.704,19.738 2.076,28.663"/></clipPath><g clip-path="url(#_clip3)"><path d="M281.424,179.898c1.327,4.048 2.922,7.798 4.728,11.652c1.203,2.568 2.299,5.215 3.754,7.656c1.091,1.83 3.042,3.811 3.699,5.852c0.778,2.416 -1.312,5.97 -3.284,7.258c-4.64,3.029 -11.477,2.455 -16.715,4.569" style="fill:none;stroke:#242630;stroke-width:2px;"/><path d="M263.728,206.937c-0.751,2.36 -0.792,5.097 0.503,7.297c0.595,1.01 3.08,1.696 3.963,0.634c1.298,-1.563 0.966,-3.131 3.613,-4c2.234,-0.734 5.127,-0.814 7.437,-0.283" style="fill:none;stroke:#242630;stroke-width:2px;"/><path d="M249.974,242.369c3.442,-0.414 6.875,-0.337 10.312,-0.846c2.626,-0.39 5.114,-1.402 7.751,-1.716c2.028,-0.241 3.885,0.721 5.917,0.352c3.527,-0.642 5.716,-1.441 9.295,-0.635c0.705,0.159 1.417,0.26 2.133,0.361c0.384,0.053 1.421,-0.124 1.152,0.154c-1.071,1.101 -4.416,1.272 -5.816,1.668c-6.567,1.86 -12.999,1.807 -19.782,1.25c-2.189,-0.179 -10.962,-0.588 -10.962,-0.588Z" style="fill:#fff;stroke:#242630;stroke-width:2px;"/><path d="M260.478,256.955c7.486,1.051 14.183,2.613 21.195,-0.958" style="fill:none;stroke:#242630;stroke-width:2px;"/><path d="M247.342,240.381c0.435,2.422 3.762,1.475 5.339,0.978c2.13,-0.671 4.646,-1.617 6.504,-2.9c2.239,-1.546 4.121,-3.8 6.781,-4.637c2.689,-0.845 5.036,0.466 7.697,0.569c2.992,0.116 5.803,-1.624 8.805,-1.157c2.976,0.463 5.436,3.648 7.49,5.604" style="fill:none;stroke:#242630;stroke-width:2px;"/></g><path d="M195.249,245.264c0.146,0.47 0.302,0.935 0.469,1.396c2.471,6.842 6.944,12.745 11.565,18.241c3.129,3.721 5.972,7.1 9.951,9.996c6.332,4.997 13.916,9.01 20.618,13.032c17.145,7.92 37.535,7.733 50.898,-7.667c21.394,-24.653 30.822,-63.883 28.491,-95.844c-1.168,-16.02 -6.04,-32.429 -17.952,-43.784c-5.344,-5.093 -12.39,-7.421 -19.41,-9.199c-17.327,-4.391 -34.724,-4.201 -50.928,4.19c-16.342,8.462 -30.269,27.262 -35.276,44.838c-1.738,6.099 -1.35,21.757 -0.502,36.138c-0.031,9.09 -0.704,19.738 2.076,28.663" style="fill:none;stroke:#242630;stroke-width:2px;"/><path d="M328.159,176.391c-3.393,1.541 -7.22,2.136 -10.936,1.677c-2.536,-0.313 -5.823,-1.632 -8.332,-0.723c-3.55,1.286 -3.732,5.882 -5.087,8.765c-1.673,3.56 -6.094,5.074 -9.798,5.099c-1.814,0.012 -3.607,-0.503 -5.29,-1.135c-1.945,-0.731 -3.819,-1.771 -5.209,-3.328c-1.498,-1.677 -1.95,-4.165 -2.409,-6.287c-1.85,-8.561 0.699,-15.915 9.1,-20.086c9.426,-4.68 20.494,-3.066 29.576,1.616c2.962,1.527 8.385,14.402 8.385,14.402Z" style="fill:#242630;stroke:#242630;stroke-width:2px;"/><path d="M300.487,166.564c6.856,4.333 13.379,8.828 18.056,15.595c3.869,5.599 5.528,13.272 11.129,17.521c7.535,5.717 17.152,2.158 25.435,5.309c4.129,1.571 6.678,4.785 9.581,7.962c3.834,4.197 7.903,8.387 11.276,12.955c6.541,8.855 11.284,18.838 16.151,28.663c3.611,7.291 7.259,14.564 10.857,21.862c0.201,-2.55 0.402,-5.073 1.096,-7.542c2.2,-7.822 9.8,-9.8 17.404,-7.409c6.897,2.17 14.42,10.395 22.297,8.826c9.233,-1.839 12.27,-13.61 21.961,-14.563c-13.252,-17.087 -27.361,-33.535 -39.594,-51.391c-5.245,-7.656 -12.453,-16.594 -14.945,-25.633c-6.09,-22.088 -6.46,-45.508 -15.345,-66.881c-4.542,-10.924 -12.044,-21.94 -24.063,-25.275c-9.278,-2.575 -13.296,8.152 -20.901,10.684c-3.173,1.056 -5.916,-0.254 -8.787,-1.531c-2.838,-1.261 -6.108,-3.112 -9.303,-3.094c-5.017,0.027 -10.529,3.326 -14.787,5.759c-9.1,5.199 -16.104,8.506 -19.219,19.214c-3.049,10.482 -3.97,21.72 -5.629,32.495c-0.548,3.564 7.33,16.474 7.33,16.474" style="fill:#ffe38c;"/><clipPath id="_clip4"><path d="M300.487,166.564c6.856,4.333 13.379,8.828 18.056,15.595c3.869,5.599 5.528,13.272 11.129,17.521c7.535,5.717 17.152,2.158 25.435,5.309c4.129,1.571 6.678,4.785 9.581,7.962c3.834,4.197 7.903,8.387 11.276,12.955c6.541,8.855 11.284,18.838 16.151,28.663c3.611,7.291 7.259,14.564 10.857,21.862c0.201,-2.55 0.402,-5.073 1.096,-7.542c2.2,-7.822 9.8,-9.8 17.404,-7.409c6.897,2.17 14.42,10.395 22.297,8.826c9.233,-1.839 12.27,-13.61 21.961,-14.563c-13.252,-17.087 -27.361,-33.535 -39.594,-51.391c-5.245,-7.656 -12.453,-16.594 -14.945,-25.633c-6.09,-22.088 -6.46,-45.508 -15.345,-66.881c-4.542,-10.924 -12.044,-21.94 -24.063,-25.275c-9.278,-2.575 -13.296,8.152 -20.901,10.684c-3.173,1.056 -5.916,-0.254 -8.787,-1.531c-2.838,-1.261 -6.108,-3.112 -9.303,-3.094c-5.017,0.027 -10.529,3.326 -14.787,5.759c-9.1,5.199 -16.104,8.506 -19.219,19.214c-3.049,10.482 -3.97,21.72 -5.629,32.495c-0.548,3.564 7.33,16.474 7.33,16.474"/></clipPath><g clip-path="url(#_clip4)"><path d="M360.557,202.34c9.014,-4.997 16.012,-9.534 16.747,-20.471" style="fill:none;stroke:#242630;stroke-width:2px;"/><path d="M340.074,170.378c2.361,5.915 3.878,11.891 1.507,17.986" style="fill:none;stroke:#242630;stroke-width:2px;"/><path d="M381.298,195.011c5.606,-2.208 11.705,-2.794 17.522,-4.255c3.316,-0.833 6.184,-1.476 8.276,-4.301" style="fill:none;stroke:#242630;stroke-width:2px;"/><path d="M388.546,205.569c5.732,8.557 11.225,17.308 17.007,25.819" style="fill:none;stroke:#242630;stroke-width:2px;"/><path d="M401.927,205.385c1.474,1.801 2.797,3.68 4.23,5.505" style="fill:none;stroke:#242630;stroke-width:2px;"/><path d="M360.425,154.578c7.486,4.005 14.527,8.125 19.485,15.092" style="fill:none;stroke:#242630;stroke-width:2px;"/><path d="M357.184,93.07c-4.158,4.112 -8.035,8.177 -11.905,12.531" style="fill:none;stroke:#242630;stroke-width:2px;"/><path d="M333.535,100.834c0.861,5.103 -0.383,10.501 -2.275,15.334" style="fill:none;stroke:#242630;stroke-width:2px;"/></g><path d="M300.487,166.564c6.856,4.333 13.379,8.828 18.056,15.595c3.869,5.599 5.528,13.272 11.129,17.521c7.535,5.717 17.152,2.158 25.435,5.309c4.129,1.571 6.678,4.785 9.581,7.962c3.834,4.197 7.903,8.387 11.276,12.955c6.541,8.855 11.284,18.838 16.151,28.663c3.611,7.291 7.259,14.564 10.857,21.862c0.201,-2.55 0.402,-5.073 1.096,-7.542c2.2,-7.822 9.8,-9.8 17.404,-7.409c6.897,2.17 14.42,10.395 22.297,8.826c9.233,-1.839 12.27,-13.61 21.961,-14.563c-13.252,-17.087 -27.361,-33.535 -39.594,-51.391c-5.245,-7.656 -12.453,-16.594 -14.945,-25.633c-6.09,-22.088 -6.46,-45.508 -15.345,-66.881c-4.542,-10.924 -12.044,-21.94 -24.063,-25.275c-9.278,-2.575 -13.296,8.152 -20.901,10.684c-3.173,1.056 -5.916,-0.254 -8.787,-1.531c-2.838,-1.261 -6.108,-3.112 -9.303,-3.094c-5.017,0.027 -10.529,3.326 -14.787,5.759c-9.1,5.199 -16.104,8.506 -19.219,19.214c-3.049,10.482 -3.97,21.72 -5.629,32.495c-0.548,3.564 7.33,16.474 7.33,16.474" style="fill:none;stroke:#242630;stroke-width:2px;"/><g><path d="M392.199,154.256c-1.132,0.801 -2.435,1.431 -3.686,1.941c-12.144,4.952 -24.535,9.087 -36.753,13.785c-2.668,1.025 -5.337,2.087 -8.082,2.891c-1.612,0.472 -3.231,1.095 -4.169,-0.719c-0.786,-1.522 -1.385,-2.775 -2.718,-3.909c-3.242,-2.755 -7.096,-3.371 -11.088,-4.315c-7.843,-1.854 -15.268,-0.633 -23.002,1.175c-1.86,0.435 -3.706,0.926 -5.567,1.352c-0.252,0.058 -1.944,0.62 -2.166,0.358c-0.925,-1.094 0.034,-3.448 0.467,-4.527c1.531,-3.82 4.432,-7.096 5.718,-10.993c2.471,-7.485 -0.369,-15.766 2.404,-23.26c1.661,-4.489 7.283,-7.059 11.134,-9.384c4.755,-2.87 10.446,-4.367 15.489,-6.707c9.686,-4.495 18.965,-9.89 28.745,-14.171c3.623,-1.586 9.018,-4.366 13.121,-3.306c3.917,1.012 5.858,7.129 7.353,10.366c4.304,9.324 10.76,17.494 14.878,26.903c0.095,1.425 0.295,2.822 0.532,4.204c0.461,5.563 3.135,13.256 -1.811,17.682c-0.253,0.226 -0.52,0.436 -0.799,0.634" style="fill:#242630;stroke:#242630;stroke-width:2px;"/><path d="M269.621,182.157c5.914,-2.11 11.34,-5.044 17.004,-7.719c8.22,-3.882 16.395,-7.472 24.498,-11.621c4.442,-2.275 11.72,-4.259 13.649,-9.355c3.801,-10.037 -3.103,-20.493 -10.262,-26.927c-4.305,-3.87 -8.43,-8.323 -13.311,-11.499c-4.744,-3.086 -9.152,-3.929 -14.426,-5.338c-8.313,-2.221 -15.945,-4.447 -24.519,-1.485c-15.69,5.422 -24.282,21.911 -31.589,35.705c-4.305,8.125 -8.465,17.08 -9.172,26.376c-0.215,2.822 0.19,5.582 1.239,8.211c5.511,13.819 21.232,15.516 34.354,12.328c2.963,-0.719 12.535,-8.676 12.535,-8.676Z" style="fill:#242630;stroke:#242630;stroke-width:2px;"/><path d="M376.731,92.885c17.491,0 32.794,14.201 34.151,31.692c1.358,17.491 -11.741,31.692 -29.232,31.692c-17.491,-0 -32.794,-14.201 -34.152,-31.692c-1.357,-17.491 11.742,-31.692 29.233,-31.692Z" style="fill:#fff;stroke:#242630;stroke-width:2px;"/><path d="M303.327,96.95c17.491,0 32.794,14.201 34.151,31.692c1.358,17.491 -11.741,31.692 -29.232,31.692c-17.492,-0 -32.794,-14.201 -34.152,-31.692c-1.357,-17.491 11.742,-31.692 29.233,-31.692Z" style="fill:#fff;stroke:#242630;stroke-width:2px;"/><path d="M303.704,101.816c14.806,-0 27.759,12.02 28.908,26.826c1.149,14.806 -9.938,26.826 -24.744,26.826c-14.806,0 -27.759,-12.02 -28.908,-26.826c-1.149,-14.806 9.939,-26.826 24.744,-26.826Z" style="fill:#fff;stroke:#242630;stroke-width:2px;"/><path d="M377.264,97.386c14.806,0 27.759,12.021 28.908,26.826c1.149,14.806 -9.938,26.827 -24.744,26.827c-14.806,-0 -27.759,-12.021 -28.908,-26.827c-1.149,-14.805 9.938,-26.826 24.744,-26.826Z" style="fill:#fff;stroke:#242630;stroke-width:2px;"/></g><path d="M111.513,387.648c-1.514,-3.169 -2.905,-5.899 -5.208,-8.531c-9.686,-11.069 -21.753,-9.98 -34.971,-9.108c-8.891,0.586 -19.087,0.486 -26.44,-5.323c-1.742,-1.376 -5.419,-3.994 -5.503,-6.461c-0.026,-0.779 0.89,-1.625 1.319,-2.215c1.373,-1.882 2.793,-3.729 4.247,-5.549c5.673,-7.102 11.847,-13.781 17.923,-20.534c23.902,-26.569 48.886,-51.926 73.783,-77.555c11.122,-11.449 25.2,-21.465 32.443,-36.067c9.522,-19.196 5.705,-41.721 13.108,-61.524c1.408,-3.766 3.11,-7.395 6.123,-10.147c5.624,-5.135 13.57,-7.099 18.715,-12.83c5.613,-6.251 5.852,-15.588 11.715,-21.675c6.433,-6.678 14.802,-0.262 22.074,-3.385c4.948,-2.124 6.27,-7.977 12.216,-9.15c9.089,-1.793 17.914,5.723 26.734,7.08c0.629,0.097 2.067,0.118 2.374,0.814c0.131,0.296 -1.213,0.804 -1.471,0.988c-1.499,1.067 -3.053,2.049 -4.551,3.12c-3.09,2.209 -6.273,4.347 -10.086,4.996c-1.429,0.243 -6.307,-0.256 -7.191,0.613c-3.11,3.056 -4.818,9.248 -6.658,13.121c-5.478,11.535 -11.422,21.994 -12.458,35.054c-0.273,3.439 -0.289,6.869 -0.182,10.314c0.017,0.518 -0.246,2.718 0.08,3.052c2.227,2.285 6.823,1.102 9.474,0.544c5.079,-1.068 9.758,-3.231 14.951,-3.809c3.029,-0.337 5.745,0.639 8.754,0.639c4.466,-0.001 8.723,-0.879 13.134,-1.355c1.88,-0.203 3.764,-0.317 5.62,-0.695c0.356,-0.072 1.794,-0.734 2.026,-0.622c0.178,0.087 0.121,0.64 0.116,0.796c-0.028,0.835 -0.277,1.658 -0.577,2.431c-1.168,3.019 -3.206,5.958 -5.49,8.246c-3.994,4.001 -8.874,6.846 -13.241,10.388c-3.25,2.636 -6.157,6.104 -9.808,8.133c-6.227,3.463 -14.594,1.958 -20.232,6.522c-4.305,3.484 -3.607,11.351 -6.493,15.999c-7.408,11.931 -16.61,22.645 -25.672,33.328c-35.504,41.855 -70.161,84.7 -100.697,130.357" style="fill:#ffe38c;"/><clipPath id="_clip5"><path d="M111.513,387.648c-1.514,-3.169 -2.905,-5.899 -5.208,-8.531c-9.686,-11.069 -21.753,-9.98 -34.971,-9.108c-8.891,0.586 -19.087,0.486 -26.44,-5.323c-1.742,-1.376 -5.419,-3.994 -5.503,-6.461c-0.026,-0.779 0.89,-1.625 1.319,-2.215c1.373,-1.882 2.793,-3.729 4.247,-5.549c5.673,-7.102 11.847,-13.781 17.923,-20.534c23.902,-26.569 48.886,-51.926 73.783,-77.555c11.122,-11.449 25.2,-21.465 32.443,-36.067c9.522,-19.196 5.705,-41.721 13.108,-61.524c1.408,-3.766 3.11,-7.395 6.123,-10.147c5.624,-5.135 13.57,-7.099 18.715,-12.83c5.613,-6.251 5.852,-15.588 11.715,-21.675c6.433,-6.678 14.802,-0.262 22.074,-3.385c4.948,-2.124 6.27,-7.977 12.216,-9.15c9.089,-1.793 17.914,5.723 26.734,7.08c0.629,0.097 2.067,0.118 2.374,0.814c0.131,0.296 -1.213,0.804 -1.471,0.988c-1.499,1.067 -3.053,2.049 -4.551,3.12c-3.09,2.209 -6.273,4.347 -10.086,4.996c-1.429,0.243 -6.307,-0.256 -7.191,0.613c-3.11,3.056 -4.818,9.248 -6.658,13.121c-5.478,11.535 -11.422,21.994 -12.458,35.054c-0.273,3.439 -0.289,6.869 -0.182,10.314c0.017,0.518 -0.246,2.718 0.08,3.052c2.227,2.285 6.823,1.102 9.474,0.544c5.079,-1.068 9.758,-3.231 14.951,-3.809c3.029,-0.337 5.745,0.639 8.754,0.639c4.466,-0.001 8.723,-0.879 13.134,-1.355c1.88,-0.203 3.764,-0.317 5.62,-0.695c0.356,-0.072 1.794,-0.734 2.026,-0.622c0.178,0.087 0.121,0.64 0.116,0.796c-0.028,0.835 -0.277,1.658 -0.577,2.431c-1.168,3.019 -3.206,5.958 -5.49,8.246c-3.994,4.001 -8.874,6.846 -13.241,10.388c-3.25,2.636 -6.157,6.104 -9.808,8.133c-6.227,3.463 -14.594,1.958 -20.232,6.522c-4.305,3.484 -3.607,11.351 -6.493,15.999c-7.408,11.931 -16.61,22.645 -25.672,33.328c-35.504,41.855 -70.161,84.7 -100.697,130.357"/></clipPath><g clip-path="url(#_clip5)"><path d="M239.7,177.113c-0.411,8.962 2.32,17.312 2.728,26.146c0.384,8.344 -2.152,17.211 -6.269,24.407" style="fill:none;stroke:#242630;stroke-width:2px;"/><path d="M236.85,192.548c0.532,4.626 1.791,10.299 0.368,14.89c-1.438,4.638 -4.481,8.301 -7.337,12.041" style="fill:none;stroke:#242630;stroke-width:2px;"/><path d="M230.745,119.603c5.29,-4.979 10.624,-10.722 15.029,-16.462" style="fill:none;stroke:#242630;stroke-width:2px;"/><path d="M160.136,228.937c7.607,-8.758 13.295,-17.401 19.363,-27.221c1.856,-3.004 4.356,-5.642 5.924,-8.818" style="fill:none;stroke:#242630;stroke-width:2px;"/><path d="M237.265,130.669c4.795,4.198 6.969,8.741 6.634,15.312" style="fill:none;stroke:#242630;stroke-width:2px;"/><path d="M253.583,108.883c1.1,3.171 1.649,5.73 1.76,9.103" style="fill:none;stroke:#242630;stroke-width:2px;"/><path d="M249.998,195.48c-0.29,0.722 -0.58,1.444 -0.871,2.165" style="fill:none;stroke:#242630;stroke-width:2px;"/><path d="M258.109,193.697c-0.235,0.522 -0.46,1.049 -0.71,1.565" style="fill:none;stroke:#242630;stroke-width:2px;"/></g><path d="M111.513,387.648c-1.514,-3.169 -2.905,-5.899 -5.208,-8.531c-9.686,-11.069 -21.753,-9.98 -34.971,-9.108c-8.891,0.586 -19.087,0.486 -26.44,-5.323c-1.742,-1.376 -5.419,-3.994 -5.503,-6.461c-0.026,-0.779 0.89,-1.625 1.319,-2.215c1.373,-1.882 2.793,-3.729 4.247,-5.549c5.673,-7.102 11.847,-13.781 17.923,-20.534c23.902,-26.569 48.886,-51.926 73.783,-77.555c11.122,-11.449 25.2,-21.465 32.443,-36.067c9.522,-19.196 5.705,-41.721 13.108,-61.524c1.408,-3.766 3.11,-7.395 6.123,-10.147c5.624,-5.135 13.57,-7.099 18.715,-12.83c5.613,-6.251 5.852,-15.588 11.715,-21.675c6.433,-6.678 14.802,-0.262 22.074,-3.385c4.948,-2.124 6.27,-7.977 12.216,-9.15c9.089,-1.793 17.914,5.723 26.734,7.08c0.629,0.097 2.067,0.118 2.374,0.814c0.131,0.296 -1.213,0.804 -1.471,0.988c-1.499,1.067 -3.053,2.049 -4.551,3.12c-3.09,2.209 -6.273,4.347 -10.086,4.996c-1.429,0.243 -6.307,-0.256 -7.191,0.613c-3.11,3.056 -4.818,9.248 -6.658,13.121c-5.478,11.535 -11.422,21.994 -12.458,35.054c-0.273,3.439 -0.289,6.869 -0.182,10.314c0.017,0.518 -0.246,2.718 0.08,3.052c2.227,2.285 6.823,1.102 9.474,0.544c5.079,-1.068 9.758,-3.231 14.951,-3.809c3.029,-0.337 5.745,0.639 8.754,0.639c4.466,-0.001 8.723,-0.879 13.134,-1.355c1.88,-0.203 3.764,-0.317 5.62,-0.695c0.356,-0.072 1.794,-0.734 2.026,-0.622c0.178,0.087 0.121,0.64 0.116,0.796c-0.028,0.835 -0.277,1.658 -0.577,2.431c-1.168,3.019 -3.206,5.958 -5.49,8.246c-3.994,4.001 -8.874,6.846 -13.241,10.388c-3.25,2.636 -6.157,6.104 -9.808,8.133c-6.227,3.463 -14.594,1.958 -20.232,6.522c-4.305,3.484 -3.607,11.351 -6.493,15.999c-7.408,11.931 -16.61,22.645 -25.672,33.328c-35.504,41.855 -70.161,84.7 -100.697,130.357" style="fill:none;stroke:#242630;stroke-width:2px;"/><path d="M359.079,127.315c1.656,1.161 3.377,1.915 5.199,2.751c9.254,3.071 19.377,4.608 28.304,-0.128c2.807,-1.49 5.492,-3.478 7.734,-5.89c0.618,-0.665 2.465,-2.035 1.299,-2.966c-9.793,-7.814 -23.296,-8.063 -34.232,-3.292c-2.952,1.287 -5.774,2.971 -8.328,5.073c-0.657,0.541 -2.364,1.733 -2.083,2.858c0.1,0.399 1.402,1.075 1.657,1.267c0.149,0.113 0.299,0.222 0.45,0.327" style="fill:#fff;"/><clipPath id="_clip6"><path d="M359.079,127.315c1.656,1.161 3.377,1.915 5.199,2.751c9.254,3.071 19.377,4.608 28.304,-0.128c2.807,-1.49 5.492,-3.478 7.734,-5.89c0.618,-0.665 2.465,-2.035 1.299,-2.966c-9.793,-7.814 -23.296,-8.063 -34.232,-3.292c-2.952,1.287 -5.774,2.971 -8.328,5.073c-0.657,0.541 -2.364,1.733 -2.083,2.858c0.1,0.399 1.402,1.075 1.657,1.267c0.149,0.113 0.299,0.222 0.45,0.327"/></clipPath><g clip-path="url(#_clip6)"><path d="M379.048,110.106c5.298,-0.839 10.477,2.75 11.559,8.01c1.081,5.259 -2.342,10.21 -7.64,11.049c-5.298,0.838 -10.477,-2.751 -11.558,-8.01c-1.082,-5.26 2.341,-10.211 7.639,-11.049Z" style="fill:#fff;stroke:#242630;stroke-width:2px;"/></g><path d="M359.079,127.315c1.656,1.161 3.377,1.915 5.199,2.751c9.254,3.071 19.377,4.608 28.304,-0.128c2.807,-1.49 5.492,-3.478 7.734,-5.89c0.618,-0.665 2.465,-2.035 1.299,-2.966c-9.793,-7.814 -23.296,-8.063 -34.232,-3.292c-2.952,1.287 -5.774,2.971 -8.328,5.073c-0.657,0.541 -2.364,1.733 -2.083,2.858c0.1,0.399 1.402,1.075 1.657,1.267c0.149,0.113 0.299,0.222 0.45,0.327" style="fill:none;stroke:#242630;stroke-width:2px;"/><path d="M285.562,131.644c1.656,1.161 3.377,1.915 5.199,2.751c9.254,3.071 19.377,4.608 28.304,-0.128c2.808,-1.49 5.492,-3.478 7.734,-5.89c0.618,-0.665 2.465,-2.036 1.299,-2.966c-9.793,-7.814 -23.296,-8.063 -34.232,-3.292c-2.951,1.287 -5.774,2.971 -8.328,5.073c-0.657,0.541 -2.364,1.733 -2.083,2.858c0.1,0.399 1.402,1.075 1.657,1.267c0.149,0.113 0.299,0.222 0.45,0.327" style="fill:#fff;"/><clipPath id="_clip7"><path d="M285.562,131.644c1.656,1.161 3.377,1.915 5.199,2.751c9.254,3.071 19.377,4.608 28.304,-0.128c2.808,-1.49 5.492,-3.478 7.734,-5.89c0.618,-0.665 2.465,-2.036 1.299,-2.966c-9.793,-7.814 -23.296,-8.063 -34.232,-3.292c-2.951,1.287 -5.774,2.971 -8.328,5.073c-0.657,0.541 -2.364,1.733 -2.083,2.858c0.1,0.399 1.402,1.075 1.657,1.267c0.149,0.113 0.299,0.222 0.45,0.327"/></clipPath><g clip-path="url(#_clip7)"><path d="M305.531,114.435c5.298,-0.839 10.477,2.75 11.559,8.01c1.081,5.259 -2.342,10.21 -7.64,11.049c-5.298,0.838 -10.477,-2.751 -11.558,-8.01c-1.082,-5.26 2.341,-10.211 7.639,-11.049Z" style="fill:#fff;stroke:#242630;stroke-width:2px;"/></g><path d="M285.562,131.644c1.656,1.161 3.377,1.915 5.199,2.751c9.254,3.071 19.377,4.608 28.304,-0.128c2.808,-1.49 5.492,-3.478 7.734,-5.89c0.618,-0.665 2.465,-2.036 1.299,-2.966c-9.793,-7.814 -23.296,-8.063 -34.232,-3.292c-2.951,1.287 -5.774,2.971 -8.328,5.073c-0.657,0.541 -2.364,1.733 -2.083,2.858c0.1,0.399 1.402,1.075 1.657,1.267c0.149,0.113 0.299,0.222 0.45,0.327" style="fill:none;stroke:#242630;stroke-width:2px;"/></g></g></svg>