<svg viewBox="0 0 470 487" xmlns="http://www.w3.org/2000/svg" xml:space="preserve" style="fill-rule:evenodd;clip-rule:evenodd;stroke-linecap:round;stroke-linejoin:round;stroke-miterlimit:1.5"><path d="M6.154 310.432c1.522-17.809 4.621-36.115 6.27-54.324 1.745-19.269-.414-39.819-5.096-58.503-5.545-24.153-11.704-47.834-2.939-73.118 14.28-41.194 61.047-54.639 96.97-70.534 14.888-6.587 27.619-16.86 41.311-25.486C174.78 8.239 213.782-6.184 251.949 2.653c34.519 7.992 62.685 32.291 95.83 44.195 44.76 16.076 94.452 25.309 114.37 74.366 16.859 41.524-1.588 89.417-4.938 131.99-3.059 38.883 14.881 81.679-.261 119.052-16.701 41.222-55.753 40.28-90.508 56.53-45.566 21.305-64.672 58.891-124.643 57.494-32.548-.759-63.24-14.767-92.067-31.027-13.464-8.476-27.135-15.506-42.135-20.838-22.549-8.015-47.352-12.161-66.664-27.262C6.43 380.171 3.09 346.31 6.154 310.432Z" style="fill:#F8F8F6"/><path d="M284.302 189.2a38.75 38.75 0 0 0 1.583-.908c1.602-.872 3.193-1.768 4.846-2.522 1.531-.789 3.063-1.579 4.656-2.241l.465-.264.591-.264a424.194 424.194 0 0 0 19.203-9.6c5.156-2.737 10.81-4.15 11.87-10.652 1.319-8.092-1.465-16.159-1.595-24.241-.071-4.381 1.293-8.594 1.807-12.91.423-3.559-1.496-8.818-2.768-12.166-.488-1.283-1.079-2.685-1.873-3.81-.743-1.053-1.782-1.905-2.348-3.08-1.448-3.005-3.329-5.767-4.943-8.68-.792-1.427-1.829-3.056-2.009-4.708-.271-2.497 3.02-3.479 5.026-3.579 4.707-.235 9.869 2.003 13.687 4.62 2.675 1.833 5.592 3.992 7.36 6.757 2.48 3.879 3.089 8.614 4.678 12.865 1.618 4.327 5.314 10.078 6.865 14.433.582 1.633 1.056 3.297 1.597 4.943.072.221.369 1.593.647 1.652 1.098.23 2.432-.255 3.433-.652 2.59-1.026 4.931-2.646 7.185-4.26 6.716-4.811 14.208-8.25 21.831-11.359 5.2-2.122 10.675-3.507 15.391.48 4.933 4.171-.184 9.959 1.99 14.683 1.562 3.393 6.365 4.198 8.017 8.039 1.901 4.419-.639 7.785.083 12.065.559 3.316 3.495 5.787 4.277 9.08.791 3.325-1.544 6.462-1.951 9.701-.594 4.718 1.627 9.873-.759 14.309-4.526 8.417-15.529 11.086-23.702 14.418-6.515 2.657-11.855 7.951-18.587 9.96-5.33 1.59-10.972.235-16.382 1.237-7.73 1.431-16.073 5.887-22.743 9.921-4.947 2.992-9.586 6.464-14.562 9.41-2.436 1.442-5.256 3.195-8.203 3.026a23.57 23.57 0 0 1-8.394-2.12c-6.725-3.13-11.022-10.717-10.239-18.084.134-1.267.344-2.582.576-3.92.89-5.267 1.177-10.013-2.672-14.272-1.407-1.558-2.939-2.623-4.723-3.698-.679-.41-2.008-1.074-2.17-1.953-.012-.068 1.017-.574 1.109-.628.61-.355 1.232-.689 1.85-1.028" style="fill:#ffe38c"/><clipPath id="a"><path d="M284.302 189.2a38.75 38.75 0 0 0 1.583-.908c1.602-.872 3.193-1.768 4.846-2.522 1.531-.789 3.063-1.579 4.656-2.241l.465-.264.591-.264a424.194 424.194 0 0 0 19.203-9.6c5.156-2.737 10.81-4.15 11.87-10.652 1.319-8.092-1.465-16.159-1.595-24.241-.071-4.381 1.293-8.594 1.807-12.91.423-3.559-1.496-8.818-2.768-12.166-.488-1.283-1.079-2.685-1.873-3.81-.743-1.053-1.782-1.905-2.348-3.08-1.448-3.005-3.329-5.767-4.943-8.68-.792-1.427-1.829-3.056-2.009-4.708-.271-2.497 3.02-3.479 5.026-3.579 4.707-.235 9.869 2.003 13.687 4.62 2.675 1.833 5.592 3.992 7.36 6.757 2.48 3.879 3.089 8.614 4.678 12.865 1.618 4.327 5.314 10.078 6.865 14.433.582 1.633 1.056 3.297 1.597 4.943.072.221.369 1.593.647 1.652 1.098.23 2.432-.255 3.433-.652 2.59-1.026 4.931-2.646 7.185-4.26 6.716-4.811 14.208-8.25 21.831-11.359 5.2-2.122 10.675-3.507 15.391.48 4.933 4.171-.184 9.959 1.99 14.683 1.562 3.393 6.365 4.198 8.017 8.039 1.901 4.419-.639 7.785.083 12.065.559 3.316 3.495 5.787 4.277 9.08.791 3.325-1.544 6.462-1.951 9.701-.594 4.718 1.627 9.873-.759 14.309-4.526 8.417-15.529 11.086-23.702 14.418-6.515 2.657-11.855 7.951-18.587 9.96-5.33 1.59-10.972.235-16.382 1.237-7.73 1.431-16.073 5.887-22.743 9.921-4.947 2.992-9.586 6.464-14.562 9.41-2.436 1.442-5.256 3.195-8.203 3.026a23.57 23.57 0 0 1-8.394-2.12c-6.725-3.13-11.022-10.717-10.239-18.084.134-1.267.344-2.582.576-3.92.89-5.267 1.177-10.013-2.672-14.272-1.407-1.558-2.939-2.623-4.723-3.698-.679-.41-2.008-1.074-2.17-1.953-.012-.068 1.017-.574 1.109-.628.61-.355 1.232-.689 1.85-1.028"/></clipPath><g clip-path="url(#a)"><path d="M402.77 130.292c-.679 2.205-2.618 5.961-1.782 8.553M411.028 151.496c-1.134 2.025-2.441 3.93-1.704 6.293M320.159 106.572c1.211-.179 3.746-.404 4.706-1.366 1.892-1.894-.796-5.368-2.255-6.354-4.092-2.766-9.82-2.641-14.472-3.805M340.88 136.452c5.698-.293 11.187-1.134 16.68-2.719M344.156 131.633c2.825 1.045 5.698 2.092 8.702 2.461M403.417 152.808c.564 3.153 1.479 6.231 1.993 9.391.37 2.281.356 4.679.975 6.91.756 2.726 2.781 4.865 3.574 7.606.763 2.634.362 5.367.174 8.054M334.587 210.528c5.825.304 8.761-3.877 13.779-5.625" style="fill:none;stroke:#242630;stroke-width:2px"/></g><path d="M284.302 189.2a38.75 38.75 0 0 0 1.583-.908c1.602-.872 3.193-1.768 4.846-2.522 1.531-.789 3.063-1.579 4.656-2.241l.465-.264.591-.264a424.194 424.194 0 0 0 19.203-9.6c5.156-2.737 10.81-4.15 11.87-10.652 1.319-8.092-1.465-16.159-1.595-24.241-.071-4.381 1.293-8.594 1.807-12.91.423-3.559-1.496-8.818-2.768-12.166-.488-1.283-1.079-2.685-1.873-3.81-.743-1.053-1.782-1.905-2.348-3.08-1.448-3.005-3.329-5.767-4.943-8.68-.792-1.427-1.829-3.056-2.009-4.708-.271-2.497 3.02-3.479 5.026-3.579 4.707-.235 9.869 2.003 13.687 4.62 2.675 1.833 5.592 3.992 7.36 6.757 2.48 3.879 3.089 8.614 4.678 12.865 1.618 4.327 5.314 10.078 6.865 14.433.582 1.633 1.056 3.297 1.597 4.943.072.221.369 1.593.647 1.652 1.098.23 2.432-.255 3.433-.652 2.59-1.026 4.931-2.646 7.185-4.26 6.716-4.811 14.208-8.25 21.831-11.359 5.2-2.122 10.675-3.507 15.391.48 4.933 4.171-.184 9.959 1.99 14.683 1.562 3.393 6.365 4.198 8.017 8.039 1.901 4.419-.639 7.785.083 12.065.559 3.316 3.495 5.787 4.277 9.08.791 3.325-1.544 6.462-1.951 9.701-.594 4.718 1.627 9.873-.759 14.309-4.526 8.417-15.529 11.086-23.702 14.418-6.515 2.657-11.855 7.951-18.587 9.96-5.33 1.59-10.972.235-16.382 1.237-7.73 1.431-16.073 5.887-22.743 9.921-4.947 2.992-9.586 6.464-14.562 9.41-2.436 1.442-5.256 3.195-8.203 3.026a23.57 23.57 0 0 1-8.394-2.12c-6.725-3.13-11.022-10.717-10.239-18.084.134-1.267.344-2.582.576-3.92.89-5.267 1.177-10.013-2.672-14.272-1.407-1.558-2.939-2.623-4.723-3.698-.679-.41-2.008-1.074-2.17-1.953-.012-.068 1.017-.574 1.109-.628.61-.355 1.232-.689 1.85-1.028" style="fill:none;stroke:#242630;stroke-width:2px"/><path d="M210.881 171.494c.013-.607.021-1.215.005-1.825.046-1.823.065-3.648.239-5.457.082-1.721.164-3.442.387-5.153l.004-.535.067-.643a422.8 422.8 0 0 0 1.287-21.43c.209-5.834 1.811-11.437-3.289-15.606-6.348-5.188-14.727-6.811-21.791-10.739-3.829-2.129-6.796-5.418-10.277-8.02-2.87-2.146-8.385-3.114-11.92-3.686-1.355-.219-2.864-.408-4.236-.283-1.283.117-2.541.59-3.841.493-3.326-.248-6.659-.001-9.989-.058-1.632-.029-3.561.055-5.081-.615-2.299-1.013-1.504-4.355-.587-6.143 2.15-4.193 6.669-7.544 10.844-9.543 2.925-1.4 6.253-2.846 9.532-2.995 4.599-.208 9.004 1.632 13.481 2.381 4.556.762 11.385.438 15.932 1.271 1.704.313 3.382.735 5.079 1.089.227.048 1.564.477 1.754.265.748-.836.995-2.233 1.152-3.298.406-2.756.174-5.594-.097-8.352-.808-8.223-.041-16.43 1.078-24.587.763-5.564 2.3-10.998 8.111-13.088 6.079-2.187 8.534 5.138 13.711 5.617 3.719.345 6.819-3.413 10.971-2.923 4.777.563 6.422 4.446 10.489 5.961 3.152 1.174 6.76-.133 10.003.835 3.275.978 4.824 4.569 7.425 6.541 3.79 2.874 9.364 3.528 12.013 7.812 5.026 8.128 1.836 18.991.636 27.735-.957 6.971.958 14.242-.669 21.077-1.287 5.411-5.282 9.62-7.119 14.805-2.626 7.411-2.938 16.864-2.78 24.657.118 5.781.805 11.534.869 17.316.031 2.831.138 6.15-1.481 8.617a23.554 23.554 0 0 1-6.033 6.21c-6.073 4.259-14.792 4.186-20.781-.175-1.03-.75-2.065-1.589-3.107-2.458-4.116-3.405-8.083-6.026-13.696-4.823-2.053.44-3.741 1.234-5.564 2.241-.694.384-1.934 1.202-2.776.903-.065-.023.011-1.167.01-1.274-.002-.706.02-1.411.035-2.117" style="fill:#ffe38c"/><clipPath id="b"><path d="M210.881 171.494c.013-.607.021-1.215.005-1.825.046-1.823.065-3.648.239-5.457.082-1.721.164-3.442.387-5.153l.004-.535.067-.643a422.8 422.8 0 0 0 1.287-21.43c.209-5.834 1.811-11.437-3.289-15.606-6.348-5.188-14.727-6.811-21.791-10.739-3.829-2.129-6.796-5.418-10.277-8.02-2.87-2.146-8.385-3.114-11.92-3.686-1.355-.219-2.864-.408-4.236-.283-1.283.117-2.541.59-3.841.493-3.326-.248-6.659-.001-9.989-.058-1.632-.029-3.561.055-5.081-.615-2.299-1.013-1.504-4.355-.587-6.143 2.15-4.193 6.669-7.544 10.844-9.543 2.925-1.4 6.253-2.846 9.532-2.995 4.599-.208 9.004 1.632 13.481 2.381 4.556.762 11.385.438 15.932 1.271 1.704.313 3.382.735 5.079 1.089.227.048 1.564.477 1.754.265.748-.836.995-2.233 1.152-3.298.406-2.756.174-5.594-.097-8.352-.808-8.223-.041-16.43 1.078-24.587.763-5.564 2.3-10.998 8.111-13.088 6.079-2.187 8.534 5.138 13.711 5.617 3.719.345 6.819-3.413 10.971-2.923 4.777.563 6.422 4.446 10.489 5.961 3.152 1.174 6.76-.133 10.003.835 3.275.978 4.824 4.569 7.425 6.541 3.79 2.874 9.364 3.528 12.013 7.812 5.026 8.128 1.836 18.991.636 27.735-.957 6.971.958 14.242-.669 21.077-1.287 5.411-5.282 9.62-7.119 14.805-2.626 7.411-2.938 16.864-2.78 24.657.118 5.781.805 11.534.869 17.316.031 2.831.138 6.15-1.481 8.617a23.554 23.554 0 0 1-6.033 6.21c-6.073 4.259-14.792 4.186-20.781-.175-1.03-.75-2.065-1.589-3.107-2.458-4.116-3.405-8.083-6.026-13.696-4.823-2.053.44-3.741 1.234-5.564 2.241-.694.384-1.934 1.202-2.776.903-.065-.023.011-1.167.01-1.274-.002-.706.02-1.411.035-2.117"/></clipPath><g clip-path="url(#b)"><path d="M219.099 39.444c1.57 1.691 3.854 5.248 6.517 5.82M241.592 42.895c1.186 1.995 2.182 4.079 4.598 4.622M157.252 99.128c.45-1.139 1.523-3.447 1.17-4.759-.694-2.585-5.047-1.994-6.631-1.224-4.441 2.161-7.197 7.184-10.531 10.63M193.489 96.122c2.595-5.08 4.611-10.254 5.985-15.804M190.954 90.876c2.317-1.924 4.66-3.888 6.482-6.305M238.923 50.142c3.011 1.088 6.134 1.835 9.129 2.97 2.16.819 4.23 2.031 6.471 2.61 2.739.709 5.604.024 8.374.708 2.663.656 4.829 2.37 7.063 3.876M254.495 138.61c3.175-4.892 1.023-9.525 2.017-14.745" style="fill:none;stroke:#242630;stroke-width:2px"/></g><path d="M210.881 171.494c.013-.607.021-1.215.005-1.825.046-1.823.065-3.648.239-5.457.082-1.721.164-3.442.387-5.153l.004-.535.067-.643a422.8 422.8 0 0 0 1.287-21.43c.209-5.834 1.811-11.437-3.289-15.606-6.348-5.188-14.727-6.811-21.791-10.739-3.829-2.129-6.796-5.418-10.277-8.02-2.87-2.146-8.385-3.114-11.92-3.686-1.355-.219-2.864-.408-4.236-.283-1.283.117-2.541.59-3.841.493-3.326-.248-6.659-.001-9.989-.058-1.632-.029-3.561.055-5.081-.615-2.299-1.013-1.504-4.355-.587-6.143 2.15-4.193 6.669-7.544 10.844-9.543 2.925-1.4 6.253-2.846 9.532-2.995 4.599-.208 9.004 1.632 13.481 2.381 4.556.762 11.385.438 15.932 1.271 1.704.313 3.382.735 5.079 1.089.227.048 1.564.477 1.754.265.748-.836.995-2.233 1.152-3.298.406-2.756.174-5.594-.097-8.352-.808-8.223-.041-16.43 1.078-24.587.763-5.564 2.3-10.998 8.111-13.088 6.079-2.187 8.534 5.138 13.711 5.617 3.719.345 6.819-3.413 10.971-2.923 4.777.563 6.422 4.446 10.489 5.961 3.152 1.174 6.76-.133 10.003.835 3.275.978 4.824 4.569 7.425 6.541 3.79 2.874 9.364 3.528 12.013 7.812 5.026 8.128 1.836 18.991.636 27.735-.957 6.971.958 14.242-.669 21.077-1.287 5.411-5.282 9.62-7.119 14.805-2.626 7.411-2.938 16.864-2.78 24.657.118 5.781.805 11.534.869 17.316.031 2.831.138 6.15-1.481 8.617a23.554 23.554 0 0 1-6.033 6.21c-6.073 4.259-14.792 4.186-20.781-.175-1.03-.75-2.065-1.589-3.107-2.458-4.116-3.405-8.083-6.026-13.696-4.823-2.053.44-3.741 1.234-5.564 2.241-.694.384-1.934 1.202-2.776.903-.065-.023.011-1.167.01-1.274-.002-.706.02-1.411.035-2.117" style="fill:none;stroke:#242630;stroke-width:2px"/><path d="M158.837 226.227a37.468 37.468 0 0 0-1.578-.918c-1.556-.951-3.127-1.88-4.607-2.936-1.449-.931-2.899-1.862-4.269-2.911l-.461-.271-.523-.379a423.175 423.175 0 0 0-17.916-11.83c-4.948-3.097-8.999-7.287-15.159-4.954-7.668 2.903-13.262 9.348-20.197 13.502-3.758 2.251-8.089 3.176-12.084 4.89-3.293 1.412-6.889 5.704-9.151 8.479-.868 1.064-1.786 2.277-2.364 3.527-.54 1.17-.759 2.496-1.493 3.574-1.878 2.756-3.33 5.766-5.045 8.621-.841 1.399-1.732 3.112-3.073 4.093-2.027 1.484-4.524-.875-5.613-2.563-2.556-3.959-3.2-9.547-2.843-14.163.25-3.233.662-6.838 2.173-9.752 2.119-4.087 5.915-6.982 8.802-10.484 2.938-3.565 6.071-9.641 9.067-13.162 1.123-1.32 2.327-2.562 3.482-3.854.155-.173 1.195-1.116 1.107-1.387-.35-1.066-1.437-1.978-2.281-2.647-2.183-1.73-4.757-2.947-7.281-4.092-7.525-3.411-14.249-8.179-20.754-13.226-4.437-3.443-8.374-7.492-7.279-13.569 1.145-6.358 8.717-4.821 11.72-9.065 2.158-3.05.454-7.612 2.954-10.963 2.876-3.856 7.061-3.339 10.407-6.104 2.592-2.143 3.265-5.92 5.725-8.245 2.484-2.347 6.368-1.893 9.377-3.16 4.383-1.845 7.737-6.346 12.772-6.498 9.552-.288 17.364 7.906 24.337 13.317 5.559 4.314 12.813 6.292 17.919 11.118 4.042 3.821 5.69 9.384 9.262 13.569 5.104 5.979 13.135 10.975 19.964 14.735 5.064 2.788 10.391 5.07 15.43 7.906 2.467 1.388 5.395 2.955 6.722 5.591a23.55 23.55 0 0 1 2.361 8.33c.652 7.388-3.77 14.903-10.542 17.909-1.164.517-2.408.993-3.682 1.461-5.007 1.863-9.26 3.987-11.025 9.45-.645 1.998-.802 3.857-.841 5.939-.015.793.074 2.276-.606 2.856-.052.044-1.005-.593-1.098-.646-.613-.351-1.213-.723-1.816-1.088" style="fill:#ffe38c"/><clipPath id="c"><path d="M158.837 226.227a37.468 37.468 0 0 0-1.578-.918c-1.556-.951-3.127-1.88-4.607-2.936-1.449-.931-2.899-1.862-4.269-2.911l-.461-.271-.523-.379a423.175 423.175 0 0 0-17.916-11.83c-4.948-3.097-8.999-7.287-15.159-4.954-7.668 2.903-13.262 9.348-20.197 13.502-3.758 2.251-8.089 3.176-12.084 4.89-3.293 1.412-6.889 5.704-9.151 8.479-.868 1.064-1.786 2.277-2.364 3.527-.54 1.17-.759 2.496-1.493 3.574-1.878 2.756-3.33 5.766-5.045 8.621-.841 1.399-1.732 3.112-3.073 4.093-2.027 1.484-4.524-.875-5.613-2.563-2.556-3.959-3.2-9.547-2.843-14.163.25-3.233.662-6.838 2.173-9.752 2.119-4.087 5.915-6.982 8.802-10.484 2.938-3.565 6.071-9.641 9.067-13.162 1.123-1.32 2.327-2.562 3.482-3.854.155-.173 1.195-1.116 1.107-1.387-.35-1.066-1.437-1.978-2.281-2.647-2.183-1.73-4.757-2.947-7.281-4.092-7.525-3.411-14.249-8.179-20.754-13.226-4.437-3.443-8.374-7.492-7.279-13.569 1.145-6.358 8.717-4.821 11.72-9.065 2.158-3.05.454-7.612 2.954-10.963 2.876-3.856 7.061-3.339 10.407-6.104 2.592-2.143 3.265-5.92 5.725-8.245 2.484-2.347 6.368-1.893 9.377-3.16 4.383-1.845 7.737-6.346 12.772-6.498 9.552-.288 17.364 7.906 24.337 13.317 5.559 4.314 12.813 6.292 17.919 11.118 4.042 3.821 5.69 9.384 9.262 13.569 5.104 5.979 13.135 10.975 19.964 14.735 5.064 2.788 10.391 5.07 15.43 7.906 2.467 1.388 5.395 2.955 6.722 5.591a23.55 23.55 0 0 1 2.361 8.33c.652 7.388-3.77 14.903-10.542 17.909-1.164.517-2.408.993-3.682 1.461-5.007 1.863-9.26 3.987-11.025 9.45-.645 1.998-.802 3.857-.841 5.939-.015.793.074 2.276-.606 2.856-.052.044-1.005-.593-1.098-.646-.613-.351-1.213-.723-1.816-1.088"/></clipPath><g clip-path="url(#c)"><path d="M48.587 153.084c2.25-.514 6.472-.713 8.299-2.733M62.822 135.331c2.321-.031 4.624.149 6.302-1.671M69.351 236.487c-.761-.959-2.223-3.042-3.536-3.393-2.586-.691-4.25 3.374-4.375 5.131-.35 4.926 2.622 9.825 3.94 14.435M84.867 203.602c-3.102-4.787-6.575-9.12-10.694-13.085M79.056 203.175c-.507-2.97-1.037-5.98-2.219-8.767M67.764 141.265c2.448-2.064 4.656-4.395 7.136-6.421 1.79-1.461 3.874-2.648 5.497-4.299 1.983-2.017 2.822-4.841 4.799-6.899 1.9-1.977 4.467-2.996 6.889-4.177M152.166 172.014c-2.65-5.196-7.739-5.649-11.761-9.12" style="fill:none;stroke:#242630;stroke-width:2px"/></g><path d="M158.837 226.227a37.468 37.468 0 0 0-1.578-.918c-1.556-.951-3.127-1.88-4.607-2.936-1.449-.931-2.899-1.862-4.269-2.911l-.461-.271-.523-.379a423.175 423.175 0 0 0-17.916-11.83c-4.948-3.097-8.999-7.287-15.159-4.954-7.668 2.903-13.262 9.348-20.197 13.502-3.758 2.251-8.089 3.176-12.084 4.89-3.293 1.412-6.889 5.704-9.151 8.479-.868 1.064-1.786 2.277-2.364 3.527-.54 1.17-.759 2.496-1.493 3.574-1.878 2.756-3.33 5.766-5.045 8.621-.841 1.399-1.732 3.112-3.073 4.093-2.027 1.484-4.524-.875-5.613-2.563-2.556-3.959-3.2-9.547-2.843-14.163.25-3.233.662-6.838 2.173-9.752 2.119-4.087 5.915-6.982 8.802-10.484 2.938-3.565 6.071-9.641 9.067-13.162 1.123-1.32 2.327-2.562 3.482-3.854.155-.173 1.195-1.116 1.107-1.387-.35-1.066-1.437-1.978-2.281-2.647-2.183-1.73-4.757-2.947-7.281-4.092-7.525-3.411-14.249-8.179-20.754-13.226-4.437-3.443-8.374-7.492-7.279-13.569 1.145-6.358 8.717-4.821 11.72-9.065 2.158-3.05.454-7.612 2.954-10.963 2.876-3.856 7.061-3.339 10.407-6.104 2.592-2.143 3.265-5.92 5.725-8.245 2.484-2.347 6.368-1.893 9.377-3.16 4.383-1.845 7.737-6.346 12.772-6.498 9.552-.288 17.364 7.906 24.337 13.317 5.559 4.314 12.813 6.292 17.919 11.118 4.042 3.821 5.69 9.384 9.262 13.569 5.104 5.979 13.135 10.975 19.964 14.735 5.064 2.788 10.391 5.07 15.43 7.906 2.467 1.388 5.395 2.955 6.722 5.591a23.55 23.55 0 0 1 2.361 8.33c.652 7.388-3.77 14.903-10.542 17.909-1.164.517-2.408.993-3.682 1.461-5.007 1.863-9.26 3.987-11.025 9.45-.645 1.998-.802 3.857-.841 5.939-.015.793.074 2.276-.606 2.856-.052.044-1.005-.593-1.098-.646-.613-.351-1.213-.723-1.816-1.088" style="fill:none;stroke:#242630;stroke-width:2px"/><path d="M180.215 298.664c-.533.292-1.064.589-1.584.908-1.602.871-3.192 1.768-4.846 2.521-1.531.79-3.062 1.58-4.656 2.242l-.465.264-.59.263a423.691 423.691 0 0 0-19.203 9.601c-5.156 2.736-10.81 4.15-11.87 10.651-1.319 8.092 1.465 16.159 1.595 24.242.071 4.38-1.294 8.593-1.807 12.91-.424 3.558 1.495 8.818 2.768 12.165.487 1.283 1.079 2.685 1.872 3.81.743 1.053 1.782 1.905 2.349 3.08 1.447 3.005 3.328 5.767 4.943 8.68.792 1.428 1.829 3.056 2.009 4.708.271 2.497-3.021 3.48-5.027 3.58-4.706.234-9.868-2.003-13.687-4.62-2.674-1.833-5.591-3.992-7.359-6.758-2.48-3.879-3.089-8.613-4.679-12.864-1.618-4.328-5.313-10.079-6.865-14.434-.581-1.632-1.055-3.296-1.596-4.943-.072-.221-.369-1.593-.648-1.651-1.098-.23-2.431.255-3.432.651-2.59 1.026-4.932 2.647-7.185 4.26-6.717 4.811-14.208 8.25-21.831 11.36-5.2 2.121-10.675 3.506-15.391-.48-4.933-4.171.183-9.96-1.99-14.683-1.562-3.394-6.366-4.199-8.018-8.04-1.9-4.418.639-7.785-.082-12.064-.559-3.316-3.495-5.788-4.278-9.08-.79-3.326 1.545-6.462 1.952-9.701.594-4.719-1.627-9.874.759-14.31 4.526-8.416 15.529-11.085 23.701-14.418 6.516-2.657 11.855-7.951 18.588-9.959 5.33-1.591 10.972-.236 16.382-1.237 7.73-1.431 16.072-5.888 22.743-9.922 4.947-2.992 9.586-6.464 14.561-9.41 2.436-1.442 5.257-3.194 8.204-3.026a23.57 23.57 0 0 1 8.394 2.12c6.724 3.13 11.021 10.717 10.239 18.084-.135 1.267-.344 2.583-.576 3.92-.89 5.267-1.177 10.013 2.672 14.273 1.407 1.557 2.939 2.622 4.722 3.697.68.41 2.008 1.074 2.17 1.954.013.067-1.016.573-1.108.627-.611.356-1.232.689-1.85 1.029" style="fill:#ffe38c"/><clipPath id="d"><path d="M180.215 298.664c-.533.292-1.064.589-1.584.908-1.602.871-3.192 1.768-4.846 2.521-1.531.79-3.062 1.58-4.656 2.242l-.465.264-.59.263a423.691 423.691 0 0 0-19.203 9.601c-5.156 2.736-10.81 4.15-11.87 10.651-1.319 8.092 1.465 16.159 1.595 24.242.071 4.38-1.294 8.593-1.807 12.91-.424 3.558 1.495 8.818 2.768 12.165.487 1.283 1.079 2.685 1.872 3.81.743 1.053 1.782 1.905 2.349 3.08 1.447 3.005 3.328 5.767 4.943 8.68.792 1.428 1.829 3.056 2.009 4.708.271 2.497-3.021 3.48-5.027 3.58-4.706.234-9.868-2.003-13.687-4.62-2.674-1.833-5.591-3.992-7.359-6.758-2.48-3.879-3.089-8.613-4.679-12.864-1.618-4.328-5.313-10.079-6.865-14.434-.581-1.632-1.055-3.296-1.596-4.943-.072-.221-.369-1.593-.648-1.651-1.098-.23-2.431.255-3.432.651-2.59 1.026-4.932 2.647-7.185 4.26-6.717 4.811-14.208 8.25-21.831 11.36-5.2 2.121-10.675 3.506-15.391-.48-4.933-4.171.183-9.96-1.99-14.683-1.562-3.394-6.366-4.199-8.018-8.04-1.9-4.418.639-7.785-.082-12.064-.559-3.316-3.495-5.788-4.278-9.08-.79-3.326 1.545-6.462 1.952-9.701.594-4.719-1.627-9.874.759-14.31 4.526-8.416 15.529-11.085 23.701-14.418 6.516-2.657 11.855-7.951 18.588-9.959 5.33-1.591 10.972-.236 16.382-1.237 7.73-1.431 16.072-5.888 22.743-9.922 4.947-2.992 9.586-6.464 14.561-9.41 2.436-1.442 5.257-3.194 8.204-3.026a23.57 23.57 0 0 1 8.394 2.12c6.724 3.13 11.021 10.717 10.239 18.084-.135 1.267-.344 2.583-.576 3.92-.89 5.267-1.177 10.013 2.672 14.273 1.407 1.557 2.939 2.622 4.722 3.697.68.41 2.008 1.074 2.17 1.954.013.067-1.016.573-1.108.627-.611.356-1.232.689-1.85 1.029"/></clipPath><g clip-path="url(#d)"><path d="M61.746 357.571c.68-2.205 2.618-5.961 1.783-8.553M53.489 336.367c1.134-2.025 2.441-3.93 1.704-6.293M144.358 381.291c-1.212.18-3.746.404-4.707 1.366-1.891 1.894.797 5.368 2.256 6.354 4.092 2.766 9.82 2.642 14.471 3.806M123.636 351.412c-5.697.292-11.186 1.133-16.679 2.718M120.36 356.231c-2.825-1.046-5.697-2.093-8.701-2.462M61.1 335.055c-.564-3.152-1.479-6.23-1.993-9.391-.371-2.28-.357-4.679-.975-6.91-.756-2.726-2.782-4.865-3.575-7.605-.762-2.634-.361-5.367-.173-8.055M129.929 277.335c-5.824-.304-8.761 3.877-13.778 5.625" style="fill:none;stroke:#242630;stroke-width:2px"/></g><path d="M180.215 298.664c-.533.292-1.064.589-1.584.908-1.602.871-3.192 1.768-4.846 2.521-1.531.79-3.062 1.58-4.656 2.242l-.465.264-.59.263a423.691 423.691 0 0 0-19.203 9.601c-5.156 2.736-10.81 4.15-11.87 10.651-1.319 8.092 1.465 16.159 1.595 24.242.071 4.38-1.294 8.593-1.807 12.91-.424 3.558 1.495 8.818 2.768 12.165.487 1.283 1.079 2.685 1.872 3.81.743 1.053 1.782 1.905 2.349 3.08 1.447 3.005 3.328 5.767 4.943 8.68.792 1.428 1.829 3.056 2.009 4.708.271 2.497-3.021 3.48-5.027 3.58-4.706.234-9.868-2.003-13.687-4.62-2.674-1.833-5.591-3.992-7.359-6.758-2.48-3.879-3.089-8.613-4.679-12.864-1.618-4.328-5.313-10.079-6.865-14.434-.581-1.632-1.055-3.296-1.596-4.943-.072-.221-.369-1.593-.648-1.651-1.098-.23-2.431.255-3.432.651-2.59 1.026-4.932 2.647-7.185 4.26-6.717 4.811-14.208 8.25-21.831 11.36-5.2 2.121-10.675 3.506-15.391-.48-4.933-4.171.183-9.96-1.99-14.683-1.562-3.394-6.366-4.199-8.018-8.04-1.9-4.418.639-7.785-.082-12.064-.559-3.316-3.495-5.788-4.278-9.08-.79-3.326 1.545-6.462 1.952-9.701.594-4.719-1.627-9.874.759-14.31 4.526-8.416 15.529-11.085 23.701-14.418 6.516-2.657 11.855-7.951 18.588-9.959 5.33-1.591 10.972-.236 16.382-1.237 7.73-1.431 16.072-5.888 22.743-9.922 4.947-2.992 9.586-6.464 14.561-9.41 2.436-1.442 5.257-3.194 8.204-3.026a23.57 23.57 0 0 1 8.394 2.12c6.724 3.13 11.021 10.717 10.239 18.084-.135 1.267-.344 2.583-.576 3.92-.89 5.267-1.177 10.013 2.672 14.273 1.407 1.557 2.939 2.622 4.722 3.697.68.41 2.008 1.074 2.17 1.954.013.067-1.016.573-1.108.627-.611.356-1.232.689-1.85 1.029" style="fill:none;stroke:#242630;stroke-width:2px"/><path d="M253.636 316.369a37.01 37.01 0 0 0-.005 1.825c-.047 1.823-.066 3.649-.24 5.458-.082 1.72-.163 3.441-.387 5.152l-.004.535-.066.643a424.004 424.004 0 0 0-1.288 21.431c-.208 5.833-1.811 11.437 3.29 15.605 6.348 5.188 14.726 6.811 21.791 10.74 3.829 2.129 6.795 5.417 10.277 8.02 2.87 2.146 8.384 3.114 11.919 3.685 1.356.22 2.865.409 4.237.284 1.283-.117 2.54-.591 3.841-.494 3.326.249 6.659.001 9.988.059 1.633.028 3.562-.056 5.082.614 2.298 1.014 1.503 4.356.587 6.143-2.15 4.193-6.669 7.545-10.844 9.543-2.925 1.4-6.254 2.847-9.533 2.995-4.599.208-9.003-1.632-13.48-2.381-4.557-.762-11.385-.437-15.932-1.271-1.705-.313-3.383-.734-5.079-1.089-.227-.048-1.564-.477-1.754-.265-.748.836-.995 2.233-1.152 3.299-.406 2.756-.174 5.594.097 8.352.808 8.222.041 16.429-1.078 24.586-.763 5.564-2.301 10.998-8.111 13.089-6.079 2.187-8.534-5.139-13.711-5.618-3.72-.344-6.819 3.413-10.971 2.923-4.777-.563-6.423-4.445-10.49-5.96-3.151-1.174-6.759.132-10.002-.836-3.275-.978-4.824-4.568-7.426-6.541-3.789-2.873-9.364-3.527-12.013-7.811-5.025-8.129-1.835-18.992-.635-27.736.956-6.971-.958-14.242.669-21.077 1.287-5.411 5.282-9.62 7.119-14.805 2.626-7.41 2.938-16.864 2.779-24.657-.117-5.78-.805-11.534-.868-17.316-.031-2.831-.138-6.15 1.481-8.617 1.56-2.377 3.705-4.577 6.033-6.21 6.073-4.258 14.792-4.186 20.781.175 1.029.75 2.064 1.589 3.106 2.459 4.117 3.404 8.084 6.026 13.697 4.822 2.052-.44 3.74-1.234 5.563-2.241.695-.384 1.934-1.202 2.777-.902.064.023-.011 1.167-.011 1.273.003.707-.019 1.412-.034 2.117" style="fill:#ffe38c"/><clipPath id="e"><path d="M253.636 316.369a37.01 37.01 0 0 0-.005 1.825c-.047 1.823-.066 3.649-.24 5.458-.082 1.72-.163 3.441-.387 5.152l-.004.535-.066.643a424.004 424.004 0 0 0-1.288 21.431c-.208 5.833-1.811 11.437 3.29 15.605 6.348 5.188 14.726 6.811 21.791 10.74 3.829 2.129 6.795 5.417 10.277 8.02 2.87 2.146 8.384 3.114 11.919 3.685 1.356.22 2.865.409 4.237.284 1.283-.117 2.54-.591 3.841-.494 3.326.249 6.659.001 9.988.059 1.633.028 3.562-.056 5.082.614 2.298 1.014 1.503 4.356.587 6.143-2.15 4.193-6.669 7.545-10.844 9.543-2.925 1.4-6.254 2.847-9.533 2.995-4.599.208-9.003-1.632-13.48-2.381-4.557-.762-11.385-.437-15.932-1.271-1.705-.313-3.383-.734-5.079-1.089-.227-.048-1.564-.477-1.754-.265-.748.836-.995 2.233-1.152 3.299-.406 2.756-.174 5.594.097 8.352.808 8.222.041 16.429-1.078 24.586-.763 5.564-2.301 10.998-8.111 13.089-6.079 2.187-8.534-5.139-13.711-5.618-3.72-.344-6.819 3.413-10.971 2.923-4.777-.563-6.423-4.445-10.49-5.96-3.151-1.174-6.759.132-10.002-.836-3.275-.978-4.824-4.568-7.426-6.541-3.789-2.873-9.364-3.527-12.013-7.811-5.025-8.129-1.835-18.992-.635-27.736.956-6.971-.958-14.242.669-21.077 1.287-5.411 5.282-9.62 7.119-14.805 2.626-7.41 2.938-16.864 2.779-24.657-.117-5.78-.805-11.534-.868-17.316-.031-2.831-.138-6.15 1.481-8.617 1.56-2.377 3.705-4.577 6.033-6.21 6.073-4.258 14.792-4.186 20.781.175 1.029.75 2.064 1.589 3.106 2.459 4.117 3.404 8.084 6.026 13.697 4.822 2.052-.44 3.74-1.234 5.563-2.241.695-.384 1.934-1.202 2.777-.902.064.023-.011 1.167-.011 1.273.003.707-.019 1.412-.034 2.117"/></clipPath><g clip-path="url(#e)"><path d="M245.417 448.419c-1.57-1.691-3.853-5.248-6.516-5.82M222.925 444.968c-1.187-1.995-2.183-4.079-4.598-4.622M307.265 388.736c-.45 1.138-1.523 3.446-1.171 4.758.695 2.585 5.048 1.994 6.631 1.224 4.442-2.16 7.198-7.184 10.531-10.63M271.028 391.741c-2.595 5.08-4.612 10.255-5.986 15.804M273.563 396.988c-2.318 1.923-4.66 3.887-6.482 6.305M225.594 437.721c-3.012-1.088-6.135-1.834-9.129-2.97-2.16-.819-4.23-2.03-6.472-2.61-2.738-.709-5.604-.024-8.374-.707-2.662-.657-4.828-2.371-7.062-3.877M210.022 349.253c-3.175 4.892-1.023 9.526-2.018 14.745" style="fill:none;stroke:#242630;stroke-width:2px"/></g><path d="M253.636 316.369a37.01 37.01 0 0 0-.005 1.825c-.047 1.823-.066 3.649-.24 5.458-.082 1.72-.163 3.441-.387 5.152l-.004.535-.066.643a424.004 424.004 0 0 0-1.288 21.431c-.208 5.833-1.811 11.437 3.29 15.605 6.348 5.188 14.726 6.811 21.791 10.74 3.829 2.129 6.795 5.417 10.277 8.02 2.87 2.146 8.384 3.114 11.919 3.685 1.356.22 2.865.409 4.237.284 1.283-.117 2.54-.591 3.841-.494 3.326.249 6.659.001 9.988.059 1.633.028 3.562-.056 5.082.614 2.298 1.014 1.503 4.356.587 6.143-2.15 4.193-6.669 7.545-10.844 9.543-2.925 1.4-6.254 2.847-9.533 2.995-4.599.208-9.003-1.632-13.48-2.381-4.557-.762-11.385-.437-15.932-1.271-1.705-.313-3.383-.734-5.079-1.089-.227-.048-1.564-.477-1.754-.265-.748.836-.995 2.233-1.152 3.299-.406 2.756-.174 5.594.097 8.352.808 8.222.041 16.429-1.078 24.586-.763 5.564-2.301 10.998-8.111 13.089-6.079 2.187-8.534-5.139-13.711-5.618-3.72-.344-6.819 3.413-10.971 2.923-4.777-.563-6.423-4.445-10.49-5.96-3.151-1.174-6.759.132-10.002-.836-3.275-.978-4.824-4.568-7.426-6.541-3.789-2.873-9.364-3.527-12.013-7.811-5.025-8.129-1.835-18.992-.635-27.736.956-6.971-.958-14.242.669-21.077 1.287-5.411 5.282-9.62 7.119-14.805 2.626-7.41 2.938-16.864 2.779-24.657-.117-5.78-.805-11.534-.868-17.316-.031-2.831-.138-6.15 1.481-8.617 1.56-2.377 3.705-4.577 6.033-6.21 6.073-4.258 14.792-4.186 20.781.175 1.029.75 2.064 1.589 3.106 2.459 4.117 3.404 8.084 6.026 13.697 4.822 2.052-.44 3.74-1.234 5.563-2.241.695-.384 1.934-1.202 2.777-.902.064.023-.011 1.167-.011 1.273.003.707-.019 1.412-.034 2.117" style="fill:none;stroke:#242630;stroke-width:2px"/><path d="M305.68 261.637a37.91 37.91 0 0 0 1.578.917c1.555.952 3.127 1.881 4.607 2.936 1.449.931 2.898 1.862 4.268 2.911l.461.271.524.38a424.482 424.482 0 0 0 17.916 11.83c4.947 3.097 8.999 7.287 15.159 4.954 7.667-2.904 13.262-9.348 20.196-13.502 3.759-2.252 8.089-3.177 12.084-4.89 3.294-1.413 6.889-5.705 9.152-8.48.868-1.064 1.786-2.277 2.363-3.527.541-1.17.759-2.496 1.494-3.574 1.878-2.756 3.33-5.766 5.045-8.62.841-1.4 1.732-3.112 3.073-4.094 2.027-1.484 4.523.876 5.613 2.563 2.556 3.959 3.2 9.548 2.842 14.163-.25 3.233-.661 6.839-2.172 9.753-2.119 4.087-5.915 6.981-8.802 10.484-2.938 3.565-6.071 9.64-9.067 13.161-1.123 1.321-2.327 2.563-3.483 3.855-.155.173-1.195 1.116-1.106 1.386.35 1.066 1.437 1.978 2.281 2.647 2.183 1.73 4.757 2.948 7.281 4.092 7.525 3.412 14.249 8.18 20.753 13.227 4.438 3.443 8.375 7.491 7.28 13.569-1.145 6.358-8.717 4.821-11.721 9.065-2.158 3.049-.453 7.612-2.953 10.963-2.877 3.855-7.062 3.339-10.407 6.104-2.593 2.142-3.265 5.92-5.725 8.244-2.485 2.347-6.369 1.894-9.377 3.16-4.384 1.845-7.737 6.346-12.772 6.498-9.552.288-17.365-7.906-24.337-13.317-5.559-4.314-12.813-6.292-17.919-11.118-4.042-3.821-5.69-9.384-9.262-13.568-5.104-5.979-13.136-10.976-19.964-14.736-5.064-2.788-10.391-5.069-15.43-7.906-2.467-1.388-5.395-2.955-6.722-5.591a23.573 23.573 0 0 1-2.362-8.329c-.651-7.389 3.771-14.904 10.542-17.909 1.165-.517 2.409-.994 3.683-1.462 5.006-1.862 9.26-3.987 11.025-9.45.645-1.997.801-3.856.84-5.939.015-.793-.074-2.276.607-2.855.052-.045 1.005.593 1.097.646.614.351 1.213.722 1.817 1.088" style="fill:#ffe38c"/><clipPath id="f"><path d="M305.68 261.637a37.91 37.91 0 0 0 1.578.917c1.555.952 3.127 1.881 4.607 2.936 1.449.931 2.898 1.862 4.268 2.911l.461.271.524.38a424.482 424.482 0 0 0 17.916 11.83c4.947 3.097 8.999 7.287 15.159 4.954 7.667-2.904 13.262-9.348 20.196-13.502 3.759-2.252 8.089-3.177 12.084-4.89 3.294-1.413 6.889-5.705 9.152-8.48.868-1.064 1.786-2.277 2.363-3.527.541-1.17.759-2.496 1.494-3.574 1.878-2.756 3.33-5.766 5.045-8.62.841-1.4 1.732-3.112 3.073-4.094 2.027-1.484 4.523.876 5.613 2.563 2.556 3.959 3.2 9.548 2.842 14.163-.25 3.233-.661 6.839-2.172 9.753-2.119 4.087-5.915 6.981-8.802 10.484-2.938 3.565-6.071 9.64-9.067 13.161-1.123 1.321-2.327 2.563-3.483 3.855-.155.173-1.195 1.116-1.106 1.386.35 1.066 1.437 1.978 2.281 2.647 2.183 1.73 4.757 2.948 7.281 4.092 7.525 3.412 14.249 8.18 20.753 13.227 4.438 3.443 8.375 7.491 7.28 13.569-1.145 6.358-8.717 4.821-11.721 9.065-2.158 3.049-.453 7.612-2.953 10.963-2.877 3.855-7.062 3.339-10.407 6.104-2.593 2.142-3.265 5.92-5.725 8.244-2.485 2.347-6.369 1.894-9.377 3.16-4.384 1.845-7.737 6.346-12.772 6.498-9.552.288-17.365-7.906-24.337-13.317-5.559-4.314-12.813-6.292-17.919-11.118-4.042-3.821-5.69-9.384-9.262-13.568-5.104-5.979-13.136-10.976-19.964-14.736-5.064-2.788-10.391-5.069-15.43-7.906-2.467-1.388-5.395-2.955-6.722-5.591a23.573 23.573 0 0 1-2.362-8.329c-.651-7.389 3.771-14.904 10.542-17.909 1.165-.517 2.409-.994 3.683-1.462 5.006-1.862 9.26-3.987 11.025-9.45.645-1.997.801-3.856.84-5.939.015-.793-.074-2.276.607-2.855.052-.045 1.005.593 1.097.646.614.351 1.213.722 1.817 1.088"/></clipPath><g clip-path="url(#f)"><path d="M415.929 334.78c-2.249.514-6.471.713-8.298 2.733M401.695 352.533c-2.321.03-4.624-.149-6.302 1.671M395.166 251.376c.761.959 2.222 3.042 3.535 3.393 2.586.691 4.251-3.374 4.376-5.13.349-4.927-2.623-9.826-3.94-14.436M379.65 284.261c3.102 4.788 6.575 9.121 10.694 13.086M385.461 284.689c.507 2.969 1.037 5.98 2.219 8.766M396.753 346.598c-2.448 2.064-4.656 4.396-7.137 6.421-1.789 1.461-3.873 2.648-5.496 4.299-1.983 2.018-2.823 4.842-4.8 6.899-1.899 1.977-4.467 2.996-6.888 4.178M312.351 315.85c2.649 5.196 7.738 5.648 11.761 9.119" style="fill:none;stroke:#242630;stroke-width:2px"/></g><path d="M305.68 261.637a37.91 37.91 0 0 0 1.578.917c1.555.952 3.127 1.881 4.607 2.936 1.449.931 2.898 1.862 4.268 2.911l.461.271.524.38a424.482 424.482 0 0 0 17.916 11.83c4.947 3.097 8.999 7.287 15.159 4.954 7.667-2.904 13.262-9.348 20.196-13.502 3.759-2.252 8.089-3.177 12.084-4.89 3.294-1.413 6.889-5.705 9.152-8.48.868-1.064 1.786-2.277 2.363-3.527.541-1.17.759-2.496 1.494-3.574 1.878-2.756 3.33-5.766 5.045-8.62.841-1.4 1.732-3.112 3.073-4.094 2.027-1.484 4.523.876 5.613 2.563 2.556 3.959 3.2 9.548 2.842 14.163-.25 3.233-.661 6.839-2.172 9.753-2.119 4.087-5.915 6.981-8.802 10.484-2.938 3.565-6.071 9.64-9.067 13.161-1.123 1.321-2.327 2.563-3.483 3.855-.155.173-1.195 1.116-1.106 1.386.35 1.066 1.437 1.978 2.281 2.647 2.183 1.73 4.757 2.948 7.281 4.092 7.525 3.412 14.249 8.18 20.753 13.227 4.438 3.443 8.375 7.491 7.28 13.569-1.145 6.358-8.717 4.821-11.721 9.065-2.158 3.049-.453 7.612-2.953 10.963-2.877 3.855-7.062 3.339-10.407 6.104-2.593 2.142-3.265 5.92-5.725 8.244-2.485 2.347-6.369 1.894-9.377 3.16-4.384 1.845-7.737 6.346-12.772 6.498-9.552.288-17.365-7.906-24.337-13.317-5.559-4.314-12.813-6.292-17.919-11.118-4.042-3.821-5.69-9.384-9.262-13.568-5.104-5.979-13.136-10.976-19.964-14.736-5.064-2.788-10.391-5.069-15.43-7.906-2.467-1.388-5.395-2.955-6.722-5.591a23.573 23.573 0 0 1-2.362-8.329c-.651-7.389 3.771-14.904 10.542-17.909 1.165-.517 2.409-.994 3.683-1.462 5.006-1.862 9.26-3.987 11.025-9.45.645-1.997.801-3.856.84-5.939.015-.793-.074-2.276.607-2.855.052-.045 1.005.593 1.097.646.614.351 1.213.722 1.817 1.088" style="fill:none;stroke:#242630;stroke-width:2px"/><path d="m211.029 198.083 26.523 18.853 30.566-11.161-9.734 31.05 20.06 25.622-32.538.337-18.169 26.996-10.376-30.842-31.289-8.937 26.126-19.398-1.169-32.52Z" style="fill:#242630;stroke:#242630;stroke-width:2px"/></svg>