<svg fill="none" height="720" viewBox="0 0 1280 720" width="1280" xmlns="http://www.w3.org/2000/svg"><path d="m937.002 560 .942-1.168-.413-.332h-.529zm262.998 80 .09 1.497 10.57-.656-10.33-2.305zm-166.79-80v-1.5h-3.19l2.04 2.459zm-951.71-352c0-25.681 20.819-46.5 46.5-46.5v-3c-27.338 0-49.5 22.162-49.5 49.5zm0 304v-304h-3v304zm46.5 46.5c-25.681 0-46.5-20.819-46.5-46.5h-3c0 27.338 22.162 49.5 49.5 49.5zm809.002 0h-809.002v3h809.002zm262.998 81.5c-.09-1.497-.09-1.497-.09-1.497h-.01s-.01.001-.02.001c-.01.001-.04.003-.08.005-.07.004-.17.01-.32.017-.28.015-.71.036-1.28.06-1.13.046-2.8.104-4.98.145-4.35.084-10.7.103-18.67-.152-15.94-.51-38.34-2.119-64.21-6.515-51.74-8.796-117.214-28.728-172.396-73.232l-1.884 2.336c55.728 44.943 121.75 65.01 173.78 73.853 26.02 4.423 48.57 6.043 64.62 6.557 8.02.257 14.42.237 18.82.153 2.2-.042 3.9-.1 5.05-.148.57-.024 1.01-.045 1.31-.061.15-.007.26-.014.33-.018.04-.002.07-.004.09-.005.01-.001.02-.001.02-.001.01-.001.01-.001.01-.001s0 0-.09-1.497zm-167.94-79.041c14.09 16.93 57.06 55.851 167.61 80.505l.66-2.928c-110.05-24.541-152.39-63.176-165.96-79.495zm119.94-2.459h-118.79v3h118.79zm46.5-46.5c0 25.681-20.82 46.5-46.5 46.5v3c27.34 0 49.5-22.162 49.5-49.5zm0-304v304h3v-304zm-46.5-46.5c25.68 0 46.5 20.819 46.5 46.5h3c0-27.338-22.16-49.5-49.5-49.5zm-1024 0h1024v-3h-1024z" fill="#23252f"/></svg>